<svg width="148" height="64" viewBox="0 0 148 64" fill="none" xmlns="http://www.w3.org/2000/svg">
<path d="M15.0548 54.2728L2.00598 46.7798L2.00298 31.7311L2 16.6824L14.793 9.33402C21.8292 5.29243 27.8265 1.99213 28.1204 2.00001C28.5667 2.01199 41.2693 9.22391 51.3599 15.1942L54 16.7563V31.7311V46.7058L51.3599 48.2655C49.9078 49.1233 44.7992 52.0814 40.0073 54.8391C35.2155 57.5968 30.5768 60.2834 29.6992 60.8094L28.1034 61.7659L15.0548 54.2728ZM43.8988 48.1146C44.1586 47.8555 43.6262 46.378 42.672 44.7102L40.9861 41.7635H23.336H5.68594V43.0714C5.68594 44.6218 5.28262 44.3409 18.0867 51.7083L28.0614 57.4477L35.7505 53.0101C39.9796 50.5693 43.6463 48.3664 43.8988 48.1146ZM49.4681 45.0637C50.5724 44.16 50.594 43.8608 50.4506 31.4933L50.304 18.8469L42.3836 14.2233C38.0274 11.6803 34.3025 9.58939 34.106 9.57684C33.5308 9.54012 30.409 15.2956 30.5964 16.0475C30.8711 17.1501 47.63 45.9715 48.0014 45.98C48.187 45.9842 48.847 45.5719 49.4681 45.0637ZM21.76 22.8866L30.5277 7.70595L29.396 6.77798C28.3141 5.89087 28.1915 5.89388 26.6116 6.84619C25.7026 7.39408 21.5135 9.80912 17.3025 12.2129C13.0915 14.6167 8.75508 17.1433 7.66603 17.8276L5.68594 19.0717V28.5695V38.0674H9.33915H12.9924L21.76 22.8866ZM38.4234 37.7331C38.4234 36.8457 28.1357 19.634 27.8122 19.9802C27.137 20.7028 17.8305 37.1378 17.8305 37.6076C17.8305 37.8605 22.4639 38.0674 28.127 38.0674C33.79 38.0674 38.4234 37.9169 38.4234 37.7331Z" fill="#C7A64F"/>
<path d="M60.6094 15.6172C60.6094 14.1875 60.957 13.0625 61.6523 12.2422C62.3477 11.4219 63.25 11.0117 64.3594 11.0117C65.0469 11.0117 65.6289 11.2031 66.1055 11.5859C66.5898 11.9609 66.9531 12.4102 67.1953 12.9336L66.3984 13.2148C65.875 12.2773 65.1875 11.8086 64.3359 11.8086C63.4922 11.8086 62.8203 12.1562 62.3203 12.8516C61.8203 13.5391 61.5703 14.4609 61.5703 15.6172C61.5703 16.7891 61.8242 17.7148 62.332 18.3945C62.8398 19.0664 63.5078 19.4023 64.3359 19.4023C64.8594 19.4023 65.3164 19.2578 65.707 18.9688C66.0977 18.6719 66.3906 18.3086 66.5859 17.8789L67.4297 18.1484C67.1641 18.7188 66.7773 19.207 66.2695 19.6133C65.7617 20.0117 65.125 20.2109 64.3594 20.2109C63.2578 20.2109 62.3555 19.8047 61.6523 18.9922C60.957 18.1719 60.6094 17.0469 60.6094 15.6172Z" fill="white"/>
<path d="M68.3672 15.6172C68.3672 14.2422 68.6992 13.1328 69.3633 12.2891C70.0273 11.4375 70.9141 11.0117 72.0234 11.0117C73.1406 11.0117 74.0234 11.4336 74.6719 12.2773C75.3281 13.1211 75.6562 14.2383 75.6562 15.6289C75.6562 17.0352 75.3242 18.1523 74.6602 18.9805C74.0039 19.8008 73.125 20.2109 72.0234 20.2109C70.9141 20.2109 70.0273 19.7969 69.3633 18.9688C68.6992 18.1328 68.3672 17.0156 68.3672 15.6172ZM69.3281 15.6172C69.3281 16.7734 69.5703 17.6953 70.0547 18.3828C70.5391 19.0625 71.1953 19.4023 72.0234 19.4023C72.8359 19.4023 73.4844 19.0664 73.9688 18.3945C74.4531 17.7227 74.6953 16.8008 74.6953 15.6289C74.6953 14.4727 74.4609 13.5469 73.9922 12.8516C73.5234 12.1562 72.8672 11.8086 72.0234 11.8086C71.1953 11.8086 70.5391 12.1523 70.0547 12.8398C69.5703 13.5273 69.3281 14.4531 69.3281 15.6172Z" fill="white"/>
<path d="M77.4844 20V11.2227H78.4219V19.2031H82.5938V20H77.4844Z" fill="white"/>
<path d="M83.9062 20V11.2227H89.3906V12.0195H84.8438V15.0664H88.9453V15.8516H84.8438V19.2031H89.4844V20H83.9062Z" fill="white"/>
<path d="M90.5625 15.6172C90.5625 14.2578 90.9023 13.1523 91.582 12.3008C92.2695 11.4414 93.2031 11.0117 94.3828 11.0117C94.7812 11.0117 95.1523 11.0742 95.4961 11.1992C95.8398 11.3164 96.125 11.4766 96.3516 11.6797C96.5859 11.8828 96.7773 12.082 96.9258 12.2773C97.082 12.4648 97.2109 12.6641 97.3125 12.875L96.5156 13.1562C95.9609 12.2578 95.25 11.8086 94.3828 11.8086C93.4844 11.8086 92.7812 12.1602 92.2734 12.8633C91.7734 13.5586 91.5234 14.4766 91.5234 15.6172C91.5234 16.8047 91.7812 17.7344 92.2969 18.4062C92.8125 19.0703 93.4922 19.4023 94.3359 19.4023C95.1016 19.4023 95.6914 19.1523 96.1055 18.6523C96.5195 18.1523 96.7266 17.5625 96.7266 16.8828V16.0625H94.2422V15.2656H97.6406V20H96.9609L96.8906 18.7109C96.4297 19.7109 95.5703 20.2109 94.3125 20.2109C93.1953 20.2109 92.2891 19.8008 91.5938 18.9805C90.9062 18.1602 90.5625 17.0391 90.5625 15.6172Z" fill="white"/>
<path d="M99.6797 20V11.2227H100.617V20H99.6797Z" fill="white"/>
<path d="M102.434 15.6172C102.434 14.2422 102.766 13.1328 103.43 12.2891C104.094 11.4375 104.98 11.0117 106.09 11.0117C107.207 11.0117 108.09 11.4336 108.738 12.2773C109.395 13.1211 109.723 14.2383 109.723 15.6289C109.723 17.0352 109.391 18.1523 108.727 18.9805C108.07 19.8008 107.191 20.2109 106.09 20.2109C104.98 20.2109 104.094 19.7969 103.43 18.9688C102.766 18.1328 102.434 17.0156 102.434 15.6172ZM103.395 15.6172C103.395 16.7734 103.637 17.6953 104.121 18.3828C104.605 19.0625 105.262 19.4023 106.09 19.4023C106.902 19.4023 107.551 19.0664 108.035 18.3945C108.52 17.7227 108.762 16.8008 108.762 15.6289C108.762 14.4727 108.527 13.5469 108.059 12.8516C107.59 12.1562 106.934 11.8086 106.09 11.8086C105.262 11.8086 104.605 12.1523 104.121 12.8398C103.637 13.5273 103.395 14.4531 103.395 15.6172Z" fill="white"/>
<path d="M114.48 20V11.2227H116.848C118.113 11.2227 119.109 11.5977 119.836 12.3477C120.562 13.0898 120.926 14.1797 120.926 15.6172C120.926 16.9844 120.574 18.0586 119.871 18.8398C119.168 19.6133 118.152 20 116.824 20H114.48ZM115.418 19.2031H116.684C117.699 19.2031 118.5 18.918 119.086 18.3477C119.672 17.7695 119.965 16.8594 119.965 15.6172C119.965 14.3594 119.672 13.4453 119.086 12.875C118.5 12.3047 117.707 12.0195 116.707 12.0195H115.418V19.2031Z" fill="white"/>
<path d="M122.695 20V11.2227H128.18V12.0195H123.633V15.0664H127.734V15.8516H123.633V19.2031H128.273V20H122.695Z" fill="white"/>
<path d="M62.1562 28.7188H65.4609L64.4297 25.7656C64.3672 25.5859 64.2656 25.3008 64.125 24.9102C63.9922 24.5117 63.8984 24.2344 63.8438 24.0781H63.7734C63.4453 25.0391 63.2539 25.6016 63.1992 25.7656L62.1562 28.7188ZM59.9531 32L63.2344 23.2227H64.3828L67.6641 32H66.6328L65.7422 29.4688H61.875L60.9844 32H59.9531Z" fill="white"/>
<path d="M69.7734 27.4062H72.1406C72.7266 27.4062 73.1758 27.25 73.4883 26.9375C73.8086 26.625 73.9688 26.2109 73.9688 25.6953C73.9688 25.1953 73.8008 24.793 73.4648 24.4883C73.1367 24.1758 72.6641 24.0195 72.0469 24.0195H69.7734V27.4062ZM68.8359 32V23.2227H72.2578C73.1172 23.2227 73.7773 23.457 74.2383 23.9258C74.6992 24.3867 74.9297 24.957 74.9297 25.6367C74.9297 26.2539 74.7734 26.7539 74.4609 27.1367C74.1484 27.5195 73.8047 27.7617 73.4297 27.8633C73.7578 28.0352 73.9961 28.2461 74.1445 28.4961C74.293 28.7461 74.4141 29.0938 74.5078 29.5391C74.6094 29.9766 74.6797 30.2773 74.7188 30.4414C74.7656 30.5977 74.8438 30.8242 74.9531 31.1211C75.0703 31.418 75.2109 31.7109 75.375 32H74.3203C74.1875 31.75 74.0664 31.4844 73.957 31.2031C73.8555 30.9141 73.7812 30.6797 73.7344 30.5C73.6875 30.3125 73.6172 30.0156 73.5234 29.6094C73.4219 29.1719 73.2656 28.8281 73.0547 28.5781C72.8516 28.3281 72.5234 28.2031 72.0703 28.2031H69.7734V32H68.8359Z" fill="white"/>
<path d="M76.1484 27.6289C76.1484 26.2305 76.4805 25.1133 77.1445 24.2773C77.8164 23.4336 78.7031 23.0117 79.8047 23.0117C80.9141 23.0117 81.7969 23.4336 82.4531 24.2773C83.1094 25.1211 83.4375 26.2383 83.4375 27.6289C83.4375 29.0039 83.1133 30.1133 82.4648 30.957C81.8164 31.793 80.9297 32.2109 79.8047 32.2109C78.6875 32.2109 77.7969 31.793 77.1328 30.957C76.4766 30.1133 76.1484 29.0039 76.1484 27.6289ZM77.1094 27.6289C77.1094 28.7852 77.3516 29.7031 77.8359 30.3828C78.3281 31.0625 78.9844 31.4023 79.8047 31.4023C80.625 31.4023 81.2734 31.0664 81.75 30.3945C82.2344 29.7148 82.4766 28.793 82.4766 27.6289C82.4766 26.4258 82.2344 25.4883 81.75 24.8164C81.2656 24.1445 80.6172 23.8086 79.8047 23.8086C78.9844 23.8086 78.3281 24.1523 77.8359 24.8398C77.3516 25.5195 77.1094 26.4492 77.1094 27.6289ZM79.6172 29.3281L80.2266 28.7773L83.4375 32.0586L82.8281 32.5977L79.6172 29.3281Z" fill="white"/>
<path d="M85.2422 28.8242V23.2227H86.1797V28.8008C86.1797 29.6758 86.3789 30.3281 86.7773 30.7578C87.1836 31.1875 87.7031 31.4023 88.3359 31.4023C88.9844 31.4023 89.5078 31.1836 89.9062 30.7461C90.3125 30.3008 90.5156 29.6523 90.5156 28.8008V23.2227H91.4531V28.8242C91.4531 29.8867 91.1836 30.7188 90.6445 31.3203C90.1055 31.9141 89.3359 32.2109 88.3359 32.2109C87.3594 32.2109 86.5977 31.918 86.0508 31.332C85.5117 30.7461 85.2422 29.9102 85.2422 28.8242Z" fill="white"/>
<path d="M93.8555 32V23.2227H94.793V32H93.8555Z" fill="white"/>
<path d="M96.1406 24.0195V23.2227H102.422V24.0195H99.75V32H98.8125V24.0195H96.1406Z" fill="white"/>
<path d="M103.758 32V23.2227H109.242V24.0195H104.695V27.0664H108.797V27.8516H104.695V31.2031H109.336V32H103.758Z" fill="white"/>
<path d="M110.414 27.6172C110.414 26.1875 110.762 25.0625 111.457 24.2422C112.152 23.4219 113.055 23.0117 114.164 23.0117C114.852 23.0117 115.434 23.2031 115.91 23.5859C116.395 23.9609 116.758 24.4102 117 24.9336L116.203 25.2148C115.68 24.2773 114.992 23.8086 114.141 23.8086C113.297 23.8086 112.625 24.1562 112.125 24.8516C111.625 25.5391 111.375 26.4609 111.375 27.6172C111.375 28.7891 111.629 29.7148 112.137 30.3945C112.645 31.0664 113.312 31.4023 114.141 31.4023C114.664 31.4023 115.121 31.2578 115.512 30.9688C115.902 30.6719 116.195 30.3086 116.391 29.8789L117.234 30.1484C116.969 30.7188 116.582 31.207 116.074 31.6133C115.566 32.0117 114.93 32.2109 114.164 32.2109C113.062 32.2109 112.16 31.8047 111.457 30.9922C110.762 30.1719 110.414 29.0469 110.414 27.6172Z" fill="white"/>
<path d="M117.703 24.0195V23.2227H123.984V24.0195H121.312V32H120.375V24.0195H117.703Z" fill="white"/>
<path d="M124.547 27.6172C124.547 26.2422 124.879 25.1328 125.543 24.2891C126.207 23.4375 127.094 23.0117 128.203 23.0117C129.32 23.0117 130.203 23.4336 130.852 24.2773C131.508 25.1211 131.836 26.2383 131.836 27.6289C131.836 29.0352 131.504 30.1523 130.84 30.9805C130.184 31.8008 129.305 32.2109 128.203 32.2109C127.094 32.2109 126.207 31.7969 125.543 30.9688C124.879 30.1328 124.547 29.0156 124.547 27.6172ZM125.508 27.6172C125.508 28.7734 125.75 29.6953 126.234 30.3828C126.719 31.0625 127.375 31.4023 128.203 31.4023C129.016 31.4023 129.664 31.0664 130.148 30.3945C130.633 29.7227 130.875 28.8008 130.875 27.6289C130.875 26.4727 130.641 25.5469 130.172 24.8516C129.703 24.1562 129.047 23.8086 128.203 23.8086C127.375 23.8086 126.719 24.1523 126.234 24.8398C125.75 25.5273 125.508 26.4531 125.508 27.6172Z" fill="white"/>
<path d="M132.914 30.3477L133.781 30.043C134.305 30.9492 135.117 31.4023 136.219 31.4023C136.828 31.4023 137.324 31.2539 137.707 30.957C138.09 30.6602 138.281 30.2539 138.281 29.7383C138.281 29.4805 138.227 29.2539 138.117 29.0586C138.008 28.8555 137.832 28.6797 137.59 28.5312C137.355 28.3828 137.137 28.2656 136.934 28.1797C136.73 28.0938 136.453 27.9922 136.102 27.875C135.82 27.7812 135.621 27.7148 135.504 27.6758C135.387 27.6367 135.199 27.5664 134.941 27.4648C134.691 27.3633 134.504 27.2734 134.379 27.1953C134.262 27.1172 134.113 27.0117 133.934 26.8789C133.754 26.7383 133.621 26.5977 133.535 26.457C133.457 26.3164 133.383 26.1484 133.312 25.9531C133.25 25.75 133.219 25.5352 133.219 25.3086C133.219 24.6133 133.484 24.0586 134.016 23.6445C134.547 23.2227 135.258 23.0117 136.148 23.0117C136.828 23.0117 137.418 23.168 137.918 23.4805C138.426 23.793 138.789 24.1836 139.008 24.6523L138.211 24.9336C137.75 24.1836 137.055 23.8086 136.125 23.8086C135.516 23.8086 135.039 23.9453 134.695 24.2188C134.352 24.4922 134.18 24.8555 134.18 25.3086C134.18 25.5117 134.227 25.7031 134.32 25.8828C134.414 26.0547 134.516 26.1953 134.625 26.3047C134.742 26.4062 134.926 26.5195 135.176 26.6445C135.434 26.7617 135.633 26.8477 135.773 26.9023C135.922 26.9492 136.16 27.0273 136.488 27.1367C136.566 27.1602 136.625 27.1797 136.664 27.1953C137.047 27.3203 137.367 27.4414 137.625 27.5586C137.883 27.6758 138.148 27.832 138.422 28.0273C138.695 28.2227 138.898 28.4609 139.031 28.7422C139.172 29.0156 139.242 29.3359 139.242 29.7031C139.242 30.4922 138.965 31.1094 138.41 31.5547C137.863 31.9922 137.125 32.2109 136.195 32.2109C135.398 32.2109 134.723 32.043 134.168 31.707C133.613 31.3711 133.195 30.918 132.914 30.3477Z" fill="white"/>
<path d="M61.2188 44V35.2227H63.5859C64.8516 35.2227 65.8477 35.5977 66.5742 36.3477C67.3008 37.0898 67.6641 38.1797 67.6641 39.6172C67.6641 40.9844 67.3125 42.0586 66.6094 42.8398C65.9062 43.6133 64.8906 44 63.5625 44H61.2188ZM62.1562 43.2031H63.4219C64.4375 43.2031 65.2383 42.918 65.8242 42.3477C66.4102 41.7695 66.7031 40.8594 66.7031 39.6172C66.7031 38.3594 66.4102 37.4453 65.8242 36.875C65.2383 36.3047 64.4453 36.0195 63.4453 36.0195H62.1562V43.2031Z" fill="white"/>
<path d="M69.4336 44V35.2227H74.918V36.0195H70.3711V39.0664H74.4727V39.8516H70.3711V43.2031H75.0117V44H69.4336Z" fill="white"/>
<path d="M76.6992 44V35.2227H77.6367V43.2031H81.8086V44H76.6992Z" fill="white"/>
<path d="M86.0508 44V35.2227H89.3555C90.207 35.2227 90.8789 35.457 91.3711 35.9258C91.8711 36.3945 92.1211 37.0156 92.1211 37.7891C92.1211 38.5859 91.8672 39.2148 91.3594 39.6758C90.8516 40.1367 90.1836 40.3672 89.3555 40.3672H86.9883V44H86.0508ZM86.9883 39.582H89.2148C89.832 39.582 90.3086 39.4336 90.6445 39.1367C90.9883 38.832 91.1602 38.3828 91.1602 37.7891C91.1602 37.2109 90.9883 36.7734 90.6445 36.4766C90.3086 36.1719 89.8242 36.0195 89.1914 36.0195H86.9883V39.582Z" fill="white"/>
<path d="M93.8086 44V35.2227H99.293V36.0195H94.7461V39.0664H98.8477V39.8516H94.7461V43.2031H99.3867V44H93.8086Z" fill="white"/>
<path d="M102.012 39.4062H104.379C104.965 39.4062 105.414 39.25 105.727 38.9375C106.047 38.625 106.207 38.2109 106.207 37.6953C106.207 37.1953 106.039 36.793 105.703 36.4883C105.375 36.1758 104.902 36.0195 104.285 36.0195H102.012V39.4062ZM101.074 44V35.2227H104.496C105.355 35.2227 106.016 35.457 106.477 35.9258C106.938 36.3867 107.168 36.957 107.168 37.6367C107.168 38.2539 107.012 38.7539 106.699 39.1367C106.387 39.5195 106.043 39.7617 105.668 39.8633C105.996 40.0352 106.234 40.2461 106.383 40.4961C106.531 40.7461 106.652 41.0938 106.746 41.5391C106.848 41.9766 106.918 42.2773 106.957 42.4414C107.004 42.5977 107.082 42.8242 107.191 43.1211C107.309 43.418 107.449 43.7109 107.613 44H106.559C106.426 43.75 106.305 43.4844 106.195 43.2031C106.094 42.9141 106.02 42.6797 105.973 42.5C105.926 42.3125 105.855 42.0156 105.762 41.6094C105.66 41.1719 105.504 40.8281 105.293 40.5781C105.09 40.3281 104.762 40.2031 104.309 40.2031H102.012V44H101.074Z" fill="white"/>
<path d="M108.973 40.8242V35.2227H109.91V40.8008C109.91 41.6758 110.109 42.3281 110.508 42.7578C110.914 43.1875 111.434 43.4023 112.066 43.4023C112.715 43.4023 113.238 43.1836 113.637 42.7461C114.043 42.3008 114.246 41.6523 114.246 40.8008V35.2227H115.184V40.8242C115.184 41.8867 114.914 42.7188 114.375 43.3203C113.836 43.9141 113.066 44.2109 112.066 44.2109C111.09 44.2109 110.328 43.918 109.781 43.332C109.242 42.7461 108.973 41.9102 108.973 40.8242ZM111.234 34.25L112.559 32.1992H113.742L112.031 34.25H111.234Z" fill="white"/>
<path d="M60.3047 53.8086C60.3047 53.0938 60.4785 52.5312 60.8262 52.1211C61.1738 51.7109 61.625 51.5059 62.1797 51.5059C62.5234 51.5059 62.8145 51.6016 63.0527 51.793C63.2949 51.9805 63.4766 52.2051 63.5977 52.4668L63.1992 52.6074C62.9375 52.1387 62.5938 51.9043 62.168 51.9043C61.7461 51.9043 61.4102 52.0781 61.1602 52.4258C60.9102 52.7695 60.7852 53.2305 60.7852 53.8086C60.7852 54.3945 60.9121 54.8574 61.166 55.1973C61.4199 55.5332 61.7539 55.7012 62.168 55.7012C62.4297 55.7012 62.6582 55.6289 62.8535 55.4844C63.0488 55.3359 63.1953 55.1543 63.293 54.9395L63.7148 55.0742C63.582 55.3594 63.3887 55.6035 63.1348 55.8066C62.8809 56.0059 62.5625 56.1055 62.1797 56.1055C61.6289 56.1055 61.1777 55.9023 60.8262 55.4961C60.4785 55.0859 60.3047 54.5234 60.3047 53.8086Z" fill="white"/>
<path d="M64.1836 53.8086C64.1836 53.1211 64.3496 52.5664 64.6816 52.1445C65.0137 51.7188 65.457 51.5059 66.0117 51.5059C66.5703 51.5059 67.0117 51.7168 67.3359 52.1387C67.6641 52.5605 67.8281 53.1191 67.8281 53.8145C67.8281 54.5176 67.6621 55.0762 67.3301 55.4902C67.002 55.9004 66.5625 56.1055 66.0117 56.1055C65.457 56.1055 65.0137 55.8984 64.6816 55.4844C64.3496 55.0664 64.1836 54.5078 64.1836 53.8086ZM64.6641 53.8086C64.6641 54.3867 64.7852 54.8477 65.0273 55.1914C65.2695 55.5312 65.5977 55.7012 66.0117 55.7012C66.418 55.7012 66.7422 55.5332 66.9844 55.1973C67.2266 54.8613 67.3477 54.4004 67.3477 53.8145C67.3477 53.2363 67.2305 52.7734 66.9961 52.4258C66.7617 52.0781 66.4336 51.9043 66.0117 51.9043C65.5977 51.9043 65.2695 52.0762 65.0273 52.4199C64.7852 52.7637 64.6641 53.2266 64.6641 53.8086Z" fill="white"/>
<path d="M68.7422 56V51.6113H69.2812L70.8984 54.4121L71.4258 55.3379H71.4609C71.4141 54.9746 71.3906 54.5605 71.3906 54.0957V51.6113H71.8594V56H71.3203L69.6973 53.1816L69.1758 52.2793H69.1523C69.1914 52.6699 69.2109 53.082 69.2109 53.5156V56H68.7422Z" fill="white"/>
<path d="M72.7031 55.1738L73.1367 55.0215C73.3984 55.4746 73.8047 55.7012 74.3555 55.7012C74.6602 55.7012 74.9082 55.627 75.0996 55.4785C75.291 55.3301 75.3867 55.127 75.3867 54.8691C75.3867 54.7402 75.3594 54.627 75.3047 54.5293C75.25 54.4277 75.1621 54.3398 75.041 54.2656C74.9238 54.1914 74.8145 54.1328 74.7129 54.0898C74.6113 54.0469 74.4727 53.9961 74.2969 53.9375C74.1562 53.8906 74.0566 53.8574 73.998 53.8379C73.9395 53.8184 73.8457 53.7832 73.7168 53.7324C73.5918 53.6816 73.498 53.6367 73.4355 53.5977C73.377 53.5586 73.3027 53.5059 73.2129 53.4395C73.123 53.3691 73.0566 53.2988 73.0137 53.2285C72.9746 53.1582 72.9375 53.0742 72.9023 52.9766C72.8711 52.875 72.8555 52.7676 72.8555 52.6543C72.8555 52.3066 72.9883 52.0293 73.2539 51.8223C73.5195 51.6113 73.875 51.5059 74.3203 51.5059C74.6602 51.5059 74.9551 51.584 75.2051 51.7402C75.459 51.8965 75.6406 52.0918 75.75 52.3262L75.3516 52.4668C75.1211 52.0918 74.7734 51.9043 74.3086 51.9043C74.0039 51.9043 73.7656 51.9727 73.5938 52.1094C73.4219 52.2461 73.3359 52.4277 73.3359 52.6543C73.3359 52.7559 73.3594 52.8516 73.4062 52.9414C73.4531 53.0273 73.5039 53.0977 73.5586 53.1523C73.6172 53.2031 73.709 53.2598 73.834 53.3223C73.9629 53.3809 74.0625 53.4238 74.1328 53.4512C74.207 53.4746 74.3262 53.5137 74.4902 53.5684C74.5293 53.5801 74.5586 53.5898 74.5781 53.5977C74.7695 53.6602 74.9297 53.7207 75.0586 53.7793C75.1875 53.8379 75.3203 53.916 75.457 54.0137C75.5938 54.1113 75.6953 54.2305 75.7617 54.3711C75.832 54.5078 75.8672 54.668 75.8672 54.8516C75.8672 55.2461 75.7285 55.5547 75.4512 55.7773C75.1777 55.9961 74.8086 56.1055 74.3438 56.1055C73.9453 56.1055 73.6074 56.0215 73.3301 55.8535C73.0527 55.6855 72.8438 55.459 72.7031 55.1738Z" fill="white"/>
<path d="M76.7168 56V51.6113H79.459V52.0098H77.1855V53.5332H79.2363V53.9258H77.1855V55.6016H79.5059V56H76.7168Z" fill="white"/>
<path d="M79.8105 55.2969L80.2324 55.1387C80.2871 55.3145 80.375 55.4531 80.4961 55.5547C80.6211 55.6523 80.7676 55.7012 80.9355 55.7012C81.3965 55.7012 81.627 55.375 81.627 54.7227V51.6113H82.0957V54.7988C82.0957 55.2285 81.9961 55.5547 81.7969 55.7773C81.6016 55.9961 81.3184 56.1055 80.9473 56.1055C80.3652 56.1055 79.9863 55.8359 79.8105 55.2969Z" fill="white"/>
<path d="M83.0098 53.8086C83.0098 53.1211 83.1758 52.5664 83.5078 52.1445C83.8398 51.7188 84.2832 51.5059 84.8379 51.5059C85.3965 51.5059 85.8379 51.7168 86.1621 52.1387C86.4902 52.5605 86.6543 53.1191 86.6543 53.8145C86.6543 54.5176 86.4883 55.0762 86.1562 55.4902C85.8281 55.9004 85.3887 56.1055 84.8379 56.1055C84.2832 56.1055 83.8398 55.8984 83.5078 55.4844C83.1758 55.0664 83.0098 54.5078 83.0098 53.8086ZM83.4902 53.8086C83.4902 54.3867 83.6113 54.8477 83.8535 55.1914C84.0957 55.5312 84.4238 55.7012 84.8379 55.7012C85.2441 55.7012 85.5684 55.5332 85.8105 55.1973C86.0527 54.8613 86.1738 54.4004 86.1738 53.8145C86.1738 53.2363 86.0566 52.7734 85.8223 52.4258C85.5879 52.0781 85.2598 51.9043 84.8379 51.9043C84.4238 51.9043 84.0957 52.0762 83.8535 52.4199C83.6113 52.7637 83.4902 53.2266 83.4902 53.8086Z" fill="white"/>
<path d="M89.0332 56V51.6113H89.5723L91.1895 54.4121L91.7168 55.3379H91.752C91.7051 54.9746 91.6816 54.5605 91.6816 54.0957V51.6113H92.1504V56H91.6113L89.9883 53.1816L89.4668 52.2793H89.4434C89.4824 52.6699 89.502 53.082 89.502 53.5156V56H89.0332Z" fill="white"/>
<path d="M93.8379 54.3594H95.4902L94.9746 52.8828C94.9434 52.793 94.8926 52.6504 94.8223 52.4551C94.7559 52.2559 94.709 52.1172 94.6816 52.0391H94.6465C94.4824 52.5195 94.3867 52.8008 94.3594 52.8828L93.8379 54.3594ZM92.7363 56L94.377 51.6113H94.9512L96.5918 56H96.0762L95.6309 54.7344H93.6973L93.252 56H92.7363Z" fill="white"/>
<path d="M96.873 53.8086C96.873 53.0938 97.0469 52.5312 97.3945 52.1211C97.7422 51.7109 98.1934 51.5059 98.748 51.5059C99.0918 51.5059 99.3828 51.6016 99.6211 51.793C99.8633 51.9805 100.045 52.2051 100.166 52.4668L99.7676 52.6074C99.5059 52.1387 99.1621 51.9043 98.7363 51.9043C98.3145 51.9043 97.9785 52.0781 97.7285 52.4258C97.4785 52.7695 97.3535 53.2305 97.3535 53.8086C97.3535 54.3945 97.4805 54.8574 97.7344 55.1973C97.9883 55.5332 98.3223 55.7012 98.7363 55.7012C98.998 55.7012 99.2266 55.6289 99.4219 55.4844C99.6172 55.3359 99.7637 55.1543 99.8613 54.9395L100.283 55.0742C100.15 55.3594 99.957 55.6035 99.7031 55.8066C99.4492 56.0059 99.1309 56.1055 98.748 56.1055C98.1973 56.1055 97.7461 55.9023 97.3945 55.4961C97.0469 55.0859 96.873 54.5234 96.873 53.8086Z" fill="white"/>
<path d="M101.057 56V51.6113H101.525V56H101.057Z" fill="white"/>
<path d="M102.434 53.8086C102.434 53.1211 102.6 52.5664 102.932 52.1445C103.264 51.7188 103.707 51.5059 104.262 51.5059C104.82 51.5059 105.262 51.7168 105.586 52.1387C105.914 52.5605 106.078 53.1191 106.078 53.8145C106.078 54.5176 105.912 55.0762 105.58 55.4902C105.252 55.9004 104.812 56.1055 104.262 56.1055C103.707 56.1055 103.264 55.8984 102.932 55.4844C102.6 55.0664 102.434 54.5078 102.434 53.8086ZM102.914 53.8086C102.914 54.3867 103.035 54.8477 103.277 55.1914C103.52 55.5312 103.848 55.7012 104.262 55.7012C104.668 55.7012 104.992 55.5332 105.234 55.1973C105.477 54.8613 105.598 54.4004 105.598 53.8145C105.598 53.2363 105.48 52.7734 105.246 52.4258C105.012 52.0781 104.684 51.9043 104.262 51.9043C103.848 51.9043 103.52 52.0762 103.277 52.4199C103.035 52.7637 102.914 53.2266 102.914 53.8086Z" fill="white"/>
<path d="M106.992 56V51.6113H107.531L109.148 54.4121L109.676 55.3379H109.711C109.664 54.9746 109.641 54.5605 109.641 54.0957V51.6113H110.109V56H109.57L107.947 53.1816L107.426 52.2793H107.402C107.441 52.6699 107.461 53.082 107.461 53.5156V56H106.992Z" fill="white"/>
<path d="M111.797 54.3594H113.449L112.934 52.8828C112.902 52.793 112.852 52.6504 112.781 52.4551C112.715 52.2559 112.668 52.1172 112.641 52.0391H112.605C112.441 52.5195 112.346 52.8008 112.318 52.8828L111.797 54.3594ZM110.695 56L112.336 51.6113H112.91L114.551 56H114.035L113.59 54.7344H111.656L111.211 56H110.695Z" fill="white"/>
<path d="M115.137 56V51.6113H115.605V55.6016H117.691V56H115.137Z" fill="white"/>
</svg>
