<svg width="191" height="75" viewBox="0 0 191 75" fill="none" xmlns="http://www.w3.org/2000/svg">
<rect width="191" height="75" fill="#24387C"/>
<path d="M68.8857 24.4873H73.6699C74.8379 24.4873 75.7363 24.1803 76.3652 23.5664C77.0091 22.9375 77.3311 22.1064 77.3311 21.0732C77.3311 20.085 76.9941 19.2764 76.3203 18.6475C75.6615 18.0186 74.7106 17.7041 73.4678 17.7041H68.8857V24.4873ZM67.4707 33V16.4912H73.8271C75.4144 16.4912 76.6348 16.9255 77.4883 17.7939C78.3568 18.6475 78.791 19.7106 78.791 20.9834C78.791 22.1963 78.4766 23.1621 77.8477 23.8809C77.2337 24.5846 76.5524 25.0189 75.8037 25.1836C76.4326 25.4831 76.9043 25.8874 77.2188 26.3965C77.5332 26.9056 77.7878 27.5869 77.9824 28.4404C77.9974 28.5303 78.0498 28.7549 78.1396 29.1143C78.2295 29.4736 78.2819 29.6908 78.2969 29.7656C78.3118 29.8405 78.3568 30.0202 78.4316 30.3047C78.5065 30.5892 78.5589 30.7764 78.5889 30.8662C78.6338 30.9561 78.6937 31.1208 78.7686 31.3604C78.8434 31.585 78.9108 31.7646 78.9707 31.8994C79.0456 32.0342 79.1279 32.2064 79.2178 32.416C79.3226 32.6107 79.4349 32.8053 79.5547 33H77.96C77.7204 32.5508 77.5033 32.0716 77.3086 31.5625C77.1289 31.0384 76.9941 30.6042 76.9043 30.2598C76.8145 29.9154 76.6797 29.3389 76.5 28.5303C76.3053 27.6768 75.9909 26.9954 75.5566 26.4863C75.1224 25.9622 74.4411 25.7002 73.5127 25.7002H68.8857V33H67.4707ZM82.4072 33V16.4912H92.5596V17.7041H83.8223V23.8584H91.7285V25.0488H83.8223V31.7871H92.7842V33H82.4072ZM94.918 24.7568C94.918 22.1813 95.5469 20.0924 96.8047 18.4902C98.0625 16.888 99.7995 16.0869 102.016 16.0869C103.378 16.0869 104.501 16.4313 105.385 17.1201C106.268 17.7939 106.927 18.5726 107.361 19.4561L106.148 19.8828C105.115 18.1608 103.738 17.2998 102.016 17.2998C100.234 17.2998 98.8486 17.9886 97.8604 19.3662C96.8721 20.7288 96.3779 22.5257 96.3779 24.7568C96.3779 27.0628 96.8796 28.8747 97.8828 30.1924C98.901 31.5101 100.256 32.1689 101.948 32.1689C103.476 32.1689 104.636 31.6598 105.43 30.6416C106.238 29.6234 106.643 28.418 106.643 27.0254V25.4307H101.746V24.2178H108.035V33H106.979L106.867 30.2598C106.014 32.3561 104.359 33.4043 101.903 33.4043C99.792 33.4043 98.0999 32.6331 96.8271 31.0908C95.5544 29.5335 94.918 27.4222 94.918 24.7568ZM112.19 33V16.4912H113.605V33H112.19ZM117.312 24.7568C117.312 22.1514 117.918 20.055 119.131 18.4678C120.359 16.8805 121.998 16.0869 124.05 16.0869C126.116 16.0869 127.748 16.888 128.946 18.4902C130.159 20.0775 130.766 22.1738 130.766 24.7793C130.766 27.3997 130.159 29.4961 128.946 31.0684C127.733 32.6257 126.101 33.4043 124.05 33.4043C121.983 33.4043 120.344 32.6182 119.131 31.0459C117.918 29.4736 117.312 27.3773 117.312 24.7568ZM118.771 24.7568C118.771 27.0029 119.243 28.7998 120.187 30.1475C121.13 31.4951 122.418 32.1689 124.05 32.1689C125.652 32.1689 126.925 31.5101 127.868 30.1924C128.826 28.8597 129.306 27.0553 129.306 24.7793C129.306 22.5033 128.841 20.6914 127.913 19.3438C126.985 17.9811 125.697 17.2998 124.05 17.2998C122.433 17.2998 121.145 17.9736 120.187 19.3213C119.243 20.6689 118.771 22.4808 118.771 24.7568ZM134.472 33V16.4912H136.134L142.805 27.6543L144.781 31.001H144.894C144.744 29.7581 144.669 28.2832 144.669 26.5762V16.4912H146.106V33H144.444L137.684 21.6797L135.797 18.5127H135.729C135.834 19.7855 135.887 21.3053 135.887 23.0723V33H134.472ZM152.328 26.8682H158.977L156.753 20.7139C156.648 20.3994 156.468 19.9053 156.214 19.2314C155.974 18.5426 155.81 18.0635 155.72 17.7939H155.607C155.533 17.9886 155.368 18.4453 155.113 19.1641C154.874 19.8678 154.701 20.3844 154.597 20.7139L152.328 26.8682ZM148.51 33L154.776 16.4912H156.551L162.795 33H161.223L159.426 28.0137H151.901L150.082 33H148.51ZM165.221 33V16.4912H166.636V31.7871H174.632V33H165.221Z" fill="white"/>
<path d="M133.322 42.8496C133.322 42.1465 133.49 41.5938 133.826 41.1914C134.162 40.7891 134.598 40.5879 135.133 40.5879C135.465 40.5879 135.744 40.6797 135.971 40.8633C136.201 41.043 136.371 41.2539 136.48 41.4961L136.164 41.6133C135.914 41.1406 135.568 40.9043 135.127 40.9043C134.693 40.9043 134.348 41.082 134.09 41.4375C133.832 41.793 133.703 42.2637 133.703 42.8496C133.703 43.4473 133.834 43.9199 134.096 44.2676C134.357 44.6113 134.701 44.7832 135.127 44.7832C135.396 44.7832 135.627 44.7109 135.818 44.5664C136.01 44.4219 136.156 44.2402 136.258 44.0215L136.592 44.1328C136.463 44.4102 136.277 44.6426 136.035 44.8301C135.797 45.0137 135.496 45.1055 135.133 45.1055C134.598 45.1055 134.162 44.9062 133.826 44.5078C133.49 44.1055 133.322 43.5527 133.322 42.8496ZM137.096 42.8496C137.096 42.1699 137.254 41.623 137.57 41.209C137.891 40.7949 138.318 40.5879 138.854 40.5879C139.393 40.5879 139.818 40.7969 140.131 41.2148C140.447 41.6289 140.605 42.1758 140.605 42.8555C140.605 43.5391 140.447 44.0859 140.131 44.4961C139.814 44.9023 139.389 45.1055 138.854 45.1055C138.314 45.1055 137.887 44.9004 137.57 44.4902C137.254 44.0801 137.096 43.5332 137.096 42.8496ZM137.477 42.8496C137.477 43.4355 137.6 43.9043 137.846 44.2559C138.092 44.6074 138.428 44.7832 138.854 44.7832C139.271 44.7832 139.604 44.6113 139.85 44.2676C140.1 43.9199 140.225 43.4492 140.225 42.8555C140.225 42.2617 140.104 41.7891 139.861 41.4375C139.619 41.082 139.283 40.9043 138.854 40.9043C138.432 40.9043 138.096 41.0801 137.846 41.4316C137.6 41.7832 137.477 42.2559 137.477 42.8496ZM141.572 45V40.6934H141.941V44.6836H144.027V45H141.572ZM144.725 45V40.6934H147.373V41.0098H145.094V42.6152H147.156V42.9258H145.094V44.6836H147.432V45H144.725ZM147.988 42.8496C147.988 42.1777 148.152 41.6328 148.48 41.2148C148.809 40.7969 149.262 40.5879 149.84 40.5879C150.195 40.5879 150.488 40.6777 150.719 40.8574C150.949 41.0332 151.121 41.2363 151.234 41.4668L150.918 41.5781C150.648 41.1289 150.289 40.9043 149.84 40.9043C149.375 40.9043 149.014 41.084 148.756 41.4434C148.498 41.7988 148.369 42.2676 148.369 42.8496C148.369 43.4512 148.5 43.9238 148.762 44.2676C149.027 44.6113 149.381 44.7832 149.822 44.7832C150.221 44.7832 150.523 44.6504 150.73 44.3848C150.941 44.1191 151.047 43.8047 151.047 43.4414V43.0254H149.77V42.709H151.41V45H151.135L151.105 44.2852C150.883 44.832 150.451 45.1055 149.811 45.1055C149.26 45.1055 148.818 44.9043 148.486 44.502C148.154 44.0957 147.988 43.5449 147.988 42.8496ZM152.494 45V40.6934H152.863V45H152.494ZM153.83 42.8496C153.83 42.1699 153.988 41.623 154.305 41.209C154.625 40.7949 155.053 40.5879 155.588 40.5879C156.127 40.5879 156.553 40.7969 156.865 41.2148C157.182 41.6289 157.34 42.1758 157.34 42.8555C157.34 43.5391 157.182 44.0859 156.865 44.4961C156.549 44.9023 156.123 45.1055 155.588 45.1055C155.049 45.1055 154.621 44.9004 154.305 44.4902C153.988 44.0801 153.83 43.5332 153.83 42.8496ZM154.211 42.8496C154.211 43.4355 154.334 43.9043 154.58 44.2559C154.826 44.6074 155.162 44.7832 155.588 44.7832C156.006 44.7832 156.338 44.6113 156.584 44.2676C156.834 43.9199 156.959 43.4492 156.959 42.8555C156.959 42.2617 156.838 41.7891 156.596 41.4375C156.354 41.082 156.018 40.9043 155.588 40.9043C155.166 40.9043 154.83 41.0801 154.58 41.4316C154.334 41.7832 154.211 42.2559 154.211 42.8496ZM159.771 45V40.6934H160.902C161.516 40.6934 161.998 40.875 162.35 41.2383C162.705 41.6016 162.883 42.1387 162.883 42.8496C162.883 43.5332 162.709 44.0625 162.361 44.4375C162.018 44.8125 161.529 45 160.896 45H159.771ZM160.141 44.6836H160.82C161.34 44.6836 161.75 44.5371 162.051 44.2441C162.352 43.9512 162.502 43.4863 162.502 42.8496C162.502 42.2051 162.354 41.7383 162.057 41.4492C161.76 41.1562 161.352 41.0098 160.832 41.0098H160.141V44.6836ZM163.803 45V40.6934H166.451V41.0098H164.172V42.6152H166.234V42.9258H164.172V44.6836H166.51V45H163.803ZM133.984 49.4004H135.719L135.139 47.7949C135.111 47.7129 135.064 47.584 134.998 47.4082C134.936 47.2285 134.893 47.1035 134.869 47.0332H134.84C134.82 47.084 134.777 47.2031 134.711 47.3906C134.648 47.5742 134.604 47.709 134.576 47.7949L133.984 49.4004ZM132.988 51L134.623 46.6934H135.086L136.715 51H136.305L135.836 49.6992H133.873L133.398 51H132.988ZM137.717 48.7793H138.965C139.27 48.7793 139.504 48.6992 139.668 48.5391C139.836 48.375 139.92 48.1582 139.92 47.8887C139.92 47.6309 139.832 47.4199 139.656 47.2559C139.484 47.0918 139.236 47.0098 138.912 47.0098H137.717V48.7793ZM137.348 51V46.6934H139.006C139.42 46.6934 139.738 46.8066 139.961 47.0332C140.188 47.2559 140.301 47.5332 140.301 47.8652C140.301 48.1816 140.219 48.4336 140.055 48.6211C139.895 48.8047 139.717 48.918 139.521 48.9609C139.686 49.0391 139.809 49.1445 139.891 49.2773C139.973 49.4102 140.039 49.5879 140.09 49.8105C140.094 49.834 140.107 49.8926 140.131 49.9863C140.154 50.0801 140.168 50.1367 140.172 50.1562C140.176 50.1758 140.188 50.2227 140.207 50.2969C140.227 50.3711 140.24 50.4199 140.248 50.4434C140.26 50.4668 140.275 50.5098 140.295 50.5723C140.314 50.6309 140.332 50.6777 140.348 50.7129C140.367 50.748 140.389 50.793 140.412 50.8477C140.439 50.8984 140.469 50.9492 140.5 51H140.084C140.021 50.8828 139.965 50.7578 139.914 50.625C139.867 50.4883 139.832 50.375 139.809 50.2852C139.785 50.1953 139.75 50.0449 139.703 49.834C139.652 49.6113 139.57 49.4336 139.457 49.3008C139.344 49.1641 139.166 49.0957 138.924 49.0957H137.717V51H137.348ZM140.922 48.8555C140.922 48.168 141.082 47.6191 141.402 47.209C141.723 46.7949 142.148 46.5879 142.68 46.5879C143.215 46.5879 143.641 46.7969 143.957 47.2148C144.273 47.6289 144.432 48.1758 144.432 48.8555C144.432 49.5312 144.273 50.0762 143.957 50.4902C143.645 50.9004 143.219 51.1055 142.68 51.1055C142.141 51.1055 141.713 50.9004 141.396 50.4902C141.08 50.0762 140.922 49.5312 140.922 48.8555ZM141.303 48.8555C141.303 49.4453 141.426 49.9141 141.672 50.2617C141.922 50.6094 142.258 50.7832 142.68 50.7832C143.098 50.7832 143.43 50.6094 143.676 50.2617C143.926 49.9141 144.051 49.4453 144.051 48.8555C144.051 48.2461 143.926 47.7695 143.676 47.4258C143.426 47.0781 143.094 46.9043 142.68 46.9043C142.262 46.9043 141.928 47.0801 141.678 47.4316C141.428 47.7793 141.303 48.2539 141.303 48.8555ZM142.621 49.6934L142.867 49.4707L144.426 51.082L144.18 51.2988L142.621 49.6934ZM145.387 49.4707V46.6934H145.756V49.4531C145.756 49.8945 145.859 50.2266 146.066 50.4492C146.273 50.6719 146.547 50.7832 146.887 50.7832C147.234 50.7832 147.51 50.6699 147.713 50.4434C147.92 50.2168 148.023 49.8867 148.023 49.4531V46.6934H148.393V49.4707C148.393 49.9863 148.264 50.3887 148.006 50.6777C147.748 50.9629 147.375 51.1055 146.887 51.1055C146.41 51.1055 146.041 50.9648 145.779 50.6836C145.518 50.3984 145.387 49.9941 145.387 49.4707ZM149.67 51V46.6934H150.039V51H149.67ZM150.771 47.0098V46.6934H153.812V47.0098H152.477V51H152.107V47.0098H150.771ZM154.533 51V46.6934H157.182V47.0098H154.902V48.6152H156.965V48.9258H154.902V50.6836H157.24V51H154.533ZM157.797 48.8496C157.797 48.1465 157.965 47.5938 158.301 47.1914C158.637 46.7891 159.072 46.5879 159.607 46.5879C159.939 46.5879 160.219 46.6797 160.445 46.8633C160.676 47.043 160.846 47.2539 160.955 47.4961L160.639 47.6133C160.389 47.1406 160.043 46.9043 159.602 46.9043C159.168 46.9043 158.822 47.082 158.564 47.4375C158.307 47.793 158.178 48.2637 158.178 48.8496C158.178 49.4473 158.309 49.9199 158.57 50.2676C158.832 50.6113 159.176 50.7832 159.602 50.7832C159.871 50.7832 160.102 50.7109 160.293 50.5664C160.484 50.4219 160.631 50.2402 160.732 50.0215L161.066 50.1328C160.938 50.4102 160.752 50.6426 160.51 50.8301C160.271 51.0137 159.971 51.1055 159.607 51.1055C159.072 51.1055 158.637 50.9062 158.301 50.5078C157.965 50.1055 157.797 49.5527 157.797 48.8496ZM161.336 47.0098V46.6934H164.377V47.0098H163.041V51H162.672V47.0098H161.336ZM164.693 48.8496C164.693 48.1699 164.852 47.623 165.168 47.209C165.488 46.7949 165.916 46.5879 166.451 46.5879C166.99 46.5879 167.416 46.7969 167.729 47.2148C168.045 47.6289 168.203 48.1758 168.203 48.8555C168.203 49.5391 168.045 50.0859 167.729 50.4961C167.412 50.9023 166.986 51.1055 166.451 51.1055C165.912 51.1055 165.484 50.9004 165.168 50.4902C164.852 50.0801 164.693 49.5332 164.693 48.8496ZM165.074 48.8496C165.074 49.4355 165.197 49.9043 165.443 50.2559C165.689 50.6074 166.025 50.7832 166.451 50.7832C166.869 50.7832 167.201 50.6113 167.447 50.2676C167.697 49.9199 167.822 49.4492 167.822 48.8555C167.822 48.2617 167.701 47.7891 167.459 47.4375C167.217 47.082 166.881 46.9043 166.451 46.9043C166.029 46.9043 165.693 47.0801 165.443 47.4316C165.197 47.7832 165.074 48.2559 165.074 48.8496ZM168.795 50.2383L169.141 50.1094C169.262 50.3164 169.428 50.4805 169.639 50.6016C169.85 50.7227 170.094 50.7832 170.371 50.7832C170.691 50.7832 170.951 50.7051 171.15 50.5488C171.354 50.3926 171.455 50.1777 171.455 49.9043C171.455 49.7949 171.432 49.6953 171.385 49.6055C171.342 49.5117 171.289 49.4355 171.227 49.377C171.168 49.3145 171.082 49.2539 170.969 49.1953C170.859 49.1367 170.76 49.0918 170.67 49.0605C170.584 49.0254 170.471 48.9844 170.33 48.9375C170.201 48.8945 170.104 48.8633 170.037 48.8438C169.971 48.8203 169.879 48.7852 169.762 48.7383C169.645 48.6875 169.553 48.6426 169.486 48.6035C169.424 48.5645 169.352 48.5137 169.27 48.4512C169.188 48.3848 169.125 48.3184 169.082 48.252C169.039 48.1816 169.002 48.0996 168.971 48.0059C168.939 47.9082 168.924 47.8047 168.924 47.6953C168.924 47.3594 169.051 47.0918 169.305 46.8926C169.562 46.6895 169.908 46.5879 170.342 46.5879C170.662 46.5879 170.943 46.6621 171.186 46.8105C171.432 46.9551 171.607 47.1367 171.713 47.3555L171.396 47.4668C171.158 47.0918 170.803 46.9043 170.33 46.9043C170.01 46.9043 169.758 46.9766 169.574 47.1211C169.395 47.2656 169.305 47.457 169.305 47.6953C169.305 47.8711 169.369 48.0234 169.498 48.1523C169.631 48.2812 169.758 48.373 169.879 48.4277C170 48.4785 170.199 48.5488 170.477 48.6387C170.504 48.6504 170.525 48.6582 170.541 48.6621C170.693 48.7129 170.822 48.7598 170.928 48.8027C171.033 48.8418 171.148 48.8965 171.273 48.9668C171.398 49.0371 171.498 49.1133 171.572 49.1953C171.646 49.2734 171.709 49.373 171.76 49.4941C171.811 49.6113 171.836 49.7422 171.836 49.8867C171.836 50.2695 171.703 50.5684 171.438 50.7832C171.172 50.998 170.812 51.1055 170.359 51.1055C169.988 51.1055 169.67 51.0273 169.404 50.8711C169.143 50.7148 168.939 50.5039 168.795 50.2383ZM133.645 57V52.6934H134.775C135.389 52.6934 135.871 52.875 136.223 53.2383C136.578 53.6016 136.756 54.1387 136.756 54.8496C136.756 55.5332 136.582 56.0625 136.234 56.4375C135.891 56.8125 135.402 57 134.77 57H133.645ZM134.014 56.6836H134.693C135.213 56.6836 135.623 56.5371 135.924 56.2441C136.225 55.9512 136.375 55.4863 136.375 54.8496C136.375 54.2051 136.227 53.7383 135.93 53.4492C135.633 53.1562 135.225 53.0098 134.705 53.0098H134.014V56.6836ZM137.676 57V52.6934H140.324V53.0098H138.045V54.6152H140.107V54.9258H138.045V56.6836H140.383V57H137.676ZM141.262 57V52.6934H141.631V56.6836H143.717V57H141.262ZM145.879 57V52.6934H147.49C147.896 52.6934 148.219 52.8066 148.457 53.0332C148.699 53.2598 148.82 53.5605 148.82 53.9355C148.82 54.3223 148.697 54.627 148.451 54.8496C148.205 55.0684 147.885 55.1777 147.49 55.1777H146.248V57H145.879ZM146.248 54.8672H147.42C147.736 54.8672 147.984 54.7891 148.164 54.6328C148.348 54.4766 148.439 54.2441 148.439 53.9355C148.439 53.6387 148.35 53.4102 148.17 53.25C147.99 53.0898 147.736 53.0098 147.408 53.0098H146.248V54.8672ZM149.717 57V52.6934H152.365V53.0098H150.086V54.6152H152.148V54.9258H150.086V56.6836H152.424V57H149.717ZM153.672 54.7793H154.92C155.225 54.7793 155.459 54.6992 155.623 54.5391C155.791 54.375 155.875 54.1582 155.875 53.8887C155.875 53.6309 155.787 53.4199 155.611 53.2559C155.439 53.0918 155.191 53.0098 154.867 53.0098H153.672V54.7793ZM153.303 57V52.6934H154.961C155.375 52.6934 155.693 52.8066 155.916 53.0332C156.143 53.2559 156.256 53.5332 156.256 53.8652C156.256 54.1816 156.174 54.4336 156.01 54.6211C155.85 54.8047 155.672 54.918 155.477 54.9609C155.641 55.0391 155.764 55.1445 155.846 55.2773C155.928 55.4102 155.994 55.5879 156.045 55.8105C156.049 55.834 156.062 55.8926 156.086 55.9863C156.109 56.0801 156.123 56.1367 156.127 56.1562C156.131 56.1758 156.143 56.2227 156.162 56.2969C156.182 56.3711 156.195 56.4199 156.203 56.4434C156.215 56.4668 156.23 56.5098 156.25 56.5723C156.27 56.6309 156.287 56.6777 156.303 56.7129C156.322 56.748 156.344 56.793 156.367 56.8477C156.395 56.8984 156.424 56.9492 156.455 57H156.039C155.977 56.8828 155.92 56.7578 155.869 56.625C155.822 56.4883 155.787 56.375 155.764 56.2852C155.74 56.1953 155.705 56.0449 155.658 55.834C155.607 55.6113 155.525 55.4336 155.412 55.3008C155.299 55.1641 155.121 55.0957 154.879 55.0957H153.672V57H153.303ZM157.193 55.4707V52.6934H157.562V55.4531C157.562 55.8945 157.666 56.2266 157.873 56.4492C158.08 56.6719 158.354 56.7832 158.693 56.7832C159.041 56.7832 159.316 56.6699 159.52 56.4434C159.727 56.2168 159.83 55.8867 159.83 55.4531V52.6934H160.199V55.4707C160.199 55.9863 160.07 56.3887 159.812 56.6777C159.555 56.9629 159.182 57.1055 158.693 57.1055C158.217 57.1055 157.848 56.9648 157.586 56.6836C157.324 56.3984 157.193 55.9941 157.193 55.4707ZM158.312 52.1953L158.969 51.1875H159.467L158.635 52.1953H158.312Z" fill="white"/>
<path d="M22.7995 57.2298L11.0054 50.4597L11.0027 36.8628L11 23.2659L22.5629 16.6265C28.9225 12.9748 34.3432 9.99289 34.6089 10C35.0122 10.0108 46.4934 16.527 55.6137 21.9213L58 23.3327V36.8628V50.3929L55.6137 51.8021C54.3013 52.5771 49.6839 55.2498 45.3528 57.7415C41.0217 60.2331 36.8291 62.6606 36.0358 63.1358L34.5935 64L22.7995 57.2298ZM48.8701 51.6657C49.1049 51.4316 48.6237 50.0966 47.7612 48.5898L46.2374 45.9274H30.2845H14.3315V47.1091C14.3315 48.5099 13.967 48.2561 25.5399 54.9127L34.5555 60.0984L41.5053 56.0889C45.3277 53.8836 48.6418 51.8932 48.8701 51.6657ZM53.9038 48.9091C54.9019 48.0927 54.9215 47.8224 54.7919 36.6479L54.6594 25.2216L47.5006 21.044C43.5633 18.7464 40.1965 16.8572 40.0189 16.8459C39.499 16.8127 36.6774 22.0129 36.8467 22.6923C37.095 23.6885 52.2425 49.7294 52.5782 49.7371C52.746 49.7409 53.3425 49.3683 53.9038 48.9091ZM28.86 28.8716L36.7846 15.1555L35.7618 14.317C34.7839 13.5155 34.6731 13.5182 33.2451 14.3787C32.4235 14.8737 28.6372 17.0557 24.8311 19.2276C21.025 21.3995 17.1056 23.6824 16.1212 24.3007L14.3315 25.4247V34.0063V42.5878H17.6335H20.9354L28.86 28.8716ZM43.9212 42.2857C43.9212 41.484 34.6226 25.9328 34.3303 26.2456C33.72 26.8985 25.3083 41.7479 25.3083 42.1724C25.3083 42.4008 29.4962 42.5878 34.6148 42.5878C39.7333 42.5878 43.9212 42.4519 43.9212 42.2857Z" fill="#C7A64F"/>
<path d="M67.999 58V40.2334H70.9639V55.4844H79.0049V58H67.999ZM81.2285 58V40.2334H84.1934V58H81.2285ZM88.1465 58V40.2334H91.7627L94.8848 48.499C95.1094 49.113 95.3939 49.9515 95.7383 51.0146C96.0827 52.0628 96.3073 52.7441 96.4121 53.0586H96.502C97.2507 50.8874 97.7822 49.3675 98.0967 48.499L101.151 40.2334H104.812V58H101.893V49.9365C101.893 48.5889 101.997 46.762 102.207 44.4561H102.117L100.837 48.2295L97.5801 56.9893H95.3789L92.167 48.2295L90.8418 44.4336H90.7295C90.9691 46.5898 91.0889 48.4242 91.0889 49.9365V58H88.1465ZM112.09 51.2168H117.391L115.886 46.6123C115.781 46.2829 115.661 45.916 115.526 45.5117C115.407 45.1074 115.272 44.6657 115.122 44.1865C114.987 43.6924 114.882 43.3255 114.808 43.0859H114.673C114.628 43.2357 114.269 44.4111 113.595 46.6123L112.09 51.2168ZM106.699 58L113.123 40.2334H116.38L122.781 58H119.637L118.177 53.5977H111.304L109.844 58H106.699Z" fill="white"/>
<line x1="128.15" y1="40" x2="128.15" y2="57" stroke="#C7A64F" stroke-width="0.3"/>
</svg>
