<svg width="169" height="54" viewBox="0 0 169 54" fill="none" xmlns="http://www.w3.org/2000/svg">
<path d="M57.8857 14.4873H62.6699C63.8379 14.4873 64.7363 14.1803 65.3652 13.5664C66.0091 12.9375 66.3311 12.1064 66.3311 11.0732C66.3311 10.085 65.9941 9.27637 65.3203 8.64746C64.6615 8.01855 63.7106 7.7041 62.4678 7.7041H57.8857V14.4873ZM56.4707 23V6.49121H62.8271C64.4144 6.49121 65.6348 6.92546 66.4883 7.79395C67.3568 8.64746 67.791 9.71061 67.791 10.9834C67.791 12.1963 67.4766 13.1621 66.8477 13.8809C66.2337 14.5846 65.5524 15.0189 64.8037 15.1836C65.4326 15.4831 65.9043 15.8874 66.2188 16.3965C66.5332 16.9056 66.7878 17.5869 66.9824 18.4404C66.9974 18.5303 67.0498 18.7549 67.1396 19.1143C67.2295 19.4736 67.2819 19.6908 67.2969 19.7656C67.3118 19.8405 67.3568 20.0202 67.4316 20.3047C67.5065 20.5892 67.5589 20.7764 67.5889 20.8662C67.6338 20.9561 67.6937 21.1208 67.7686 21.3604C67.8434 21.585 67.9108 21.7646 67.9707 21.8994C68.0456 22.0342 68.1279 22.2064 68.2178 22.416C68.3226 22.6107 68.4349 22.8053 68.5547 23H66.96C66.7204 22.5508 66.5033 22.0716 66.3086 21.5625C66.1289 21.0384 65.9941 20.6042 65.9043 20.2598C65.8145 19.9154 65.6797 19.3389 65.5 18.5303C65.3053 17.6768 64.9909 16.9954 64.5566 16.4863C64.1224 15.9622 63.4411 15.7002 62.5127 15.7002H57.8857V23H56.4707ZM71.4072 23V6.49121H81.5596V7.7041H72.8223V13.8584H80.7285V15.0488H72.8223V21.7871H81.7842V23H71.4072ZM83.918 14.7568C83.918 12.1813 84.5469 10.0924 85.8047 8.49023C87.0625 6.88802 88.7995 6.08691 91.0156 6.08691C92.3783 6.08691 93.5013 6.43132 94.3848 7.12012C95.2682 7.79395 95.9271 8.57259 96.3613 9.45605L95.1484 9.88281C94.1152 8.16081 92.7376 7.2998 91.0156 7.2998C89.2337 7.2998 87.8486 7.98861 86.8604 9.36621C85.8721 10.7288 85.3779 12.5257 85.3779 14.7568C85.3779 17.0628 85.8796 18.8747 86.8828 20.1924C87.901 21.5101 89.2562 22.1689 90.9482 22.1689C92.4756 22.1689 93.6361 21.6598 94.4297 20.6416C95.2383 19.6234 95.6426 18.418 95.6426 17.0254V15.4307H90.7461V14.2178H97.0352V23H95.9795L95.8672 20.2598C95.0137 22.3561 93.359 23.4043 90.9033 23.4043C88.792 23.4043 87.0999 22.6331 85.8271 21.0908C84.5544 19.5335 83.918 17.4222 83.918 14.7568ZM101.19 23V6.49121H102.605V23H101.19ZM106.312 14.7568C106.312 12.1514 106.918 10.055 108.131 8.46777C109.359 6.88053 110.998 6.08691 113.05 6.08691C115.116 6.08691 116.748 6.88802 117.946 8.49023C119.159 10.0775 119.766 12.1738 119.766 14.7793C119.766 17.3997 119.159 19.4961 117.946 21.0684C116.733 22.6257 115.101 23.4043 113.05 23.4043C110.983 23.4043 109.344 22.6182 108.131 21.0459C106.918 19.4736 106.312 17.3773 106.312 14.7568ZM107.771 14.7568C107.771 17.0029 108.243 18.7998 109.187 20.1475C110.13 21.4951 111.418 22.1689 113.05 22.1689C114.652 22.1689 115.925 21.5101 116.868 20.1924C117.826 18.8597 118.306 17.0553 118.306 14.7793C118.306 12.5033 117.841 10.6914 116.913 9.34375C115.985 7.98112 114.697 7.2998 113.05 7.2998C111.433 7.2998 110.145 7.97363 109.187 9.32129C108.243 10.6689 107.771 12.4808 107.771 14.7568ZM123.472 23V6.49121H125.134L131.805 17.6543L133.781 21.001H133.894C133.744 19.7581 133.669 18.2832 133.669 16.5762V6.49121H135.106V23H133.444L126.684 11.6797L124.797 8.5127H124.729C124.834 9.78548 124.887 11.3053 124.887 13.0723V23H123.472ZM141.328 16.8682H147.977L145.753 10.7139C145.648 10.3994 145.468 9.90527 145.214 9.23145C144.974 8.54264 144.81 8.06348 144.72 7.79395H144.607C144.533 7.98861 144.368 8.44531 144.113 9.16406C143.874 9.86784 143.701 10.3844 143.597 10.7139L141.328 16.8682ZM137.51 23L143.776 6.49121H145.551L151.795 23H150.223L148.426 18.0137H140.901L139.082 23H137.51ZM154.221 23V6.49121H155.636V21.7871H163.632V23H154.221Z" fill="white"/>
<path d="M122.322 32.8496C122.322 32.1465 122.49 31.5938 122.826 31.1914C123.162 30.7891 123.598 30.5879 124.133 30.5879C124.465 30.5879 124.744 30.6797 124.971 30.8633C125.201 31.043 125.371 31.2539 125.48 31.4961L125.164 31.6133C124.914 31.1406 124.568 30.9043 124.127 30.9043C123.693 30.9043 123.348 31.082 123.09 31.4375C122.832 31.793 122.703 32.2637 122.703 32.8496C122.703 33.4473 122.834 33.9199 123.096 34.2676C123.357 34.6113 123.701 34.7832 124.127 34.7832C124.396 34.7832 124.627 34.7109 124.818 34.5664C125.01 34.4219 125.156 34.2402 125.258 34.0215L125.592 34.1328C125.463 34.4102 125.277 34.6426 125.035 34.8301C124.797 35.0137 124.496 35.1055 124.133 35.1055C123.598 35.1055 123.162 34.9062 122.826 34.5078C122.49 34.1055 122.322 33.5527 122.322 32.8496ZM126.096 32.8496C126.096 32.1699 126.254 31.623 126.57 31.209C126.891 30.7949 127.318 30.5879 127.854 30.5879C128.393 30.5879 128.818 30.7969 129.131 31.2148C129.447 31.6289 129.605 32.1758 129.605 32.8555C129.605 33.5391 129.447 34.0859 129.131 34.4961C128.814 34.9023 128.389 35.1055 127.854 35.1055C127.314 35.1055 126.887 34.9004 126.57 34.4902C126.254 34.0801 126.096 33.5332 126.096 32.8496ZM126.477 32.8496C126.477 33.4355 126.6 33.9043 126.846 34.2559C127.092 34.6074 127.428 34.7832 127.854 34.7832C128.271 34.7832 128.604 34.6113 128.85 34.2676C129.1 33.9199 129.225 33.4492 129.225 32.8555C129.225 32.2617 129.104 31.7891 128.861 31.4375C128.619 31.082 128.283 30.9043 127.854 30.9043C127.432 30.9043 127.096 31.0801 126.846 31.4316C126.6 31.7832 126.477 32.2559 126.477 32.8496ZM130.572 35V30.6934H130.941V34.6836H133.027V35H130.572ZM133.725 35V30.6934H136.373V31.0098H134.094V32.6152H136.156V32.9258H134.094V34.6836H136.432V35H133.725ZM136.988 32.8496C136.988 32.1777 137.152 31.6328 137.48 31.2148C137.809 30.7969 138.262 30.5879 138.84 30.5879C139.195 30.5879 139.488 30.6777 139.719 30.8574C139.949 31.0332 140.121 31.2363 140.234 31.4668L139.918 31.5781C139.648 31.1289 139.289 30.9043 138.84 30.9043C138.375 30.9043 138.014 31.084 137.756 31.4434C137.498 31.7988 137.369 32.2676 137.369 32.8496C137.369 33.4512 137.5 33.9238 137.762 34.2676C138.027 34.6113 138.381 34.7832 138.822 34.7832C139.221 34.7832 139.523 34.6504 139.73 34.3848C139.941 34.1191 140.047 33.8047 140.047 33.4414V33.0254H138.77V32.709H140.41V35H140.135L140.105 34.2852C139.883 34.832 139.451 35.1055 138.811 35.1055C138.26 35.1055 137.818 34.9043 137.486 34.502C137.154 34.0957 136.988 33.5449 136.988 32.8496ZM141.494 35V30.6934H141.863V35H141.494ZM142.83 32.8496C142.83 32.1699 142.988 31.623 143.305 31.209C143.625 30.7949 144.053 30.5879 144.588 30.5879C145.127 30.5879 145.553 30.7969 145.865 31.2148C146.182 31.6289 146.34 32.1758 146.34 32.8555C146.34 33.5391 146.182 34.0859 145.865 34.4961C145.549 34.9023 145.123 35.1055 144.588 35.1055C144.049 35.1055 143.621 34.9004 143.305 34.4902C142.988 34.0801 142.83 33.5332 142.83 32.8496ZM143.211 32.8496C143.211 33.4355 143.334 33.9043 143.58 34.2559C143.826 34.6074 144.162 34.7832 144.588 34.7832C145.006 34.7832 145.338 34.6113 145.584 34.2676C145.834 33.9199 145.959 33.4492 145.959 32.8555C145.959 32.2617 145.838 31.7891 145.596 31.4375C145.354 31.082 145.018 30.9043 144.588 30.9043C144.166 30.9043 143.83 31.0801 143.58 31.4316C143.334 31.7832 143.211 32.2559 143.211 32.8496ZM148.771 35V30.6934H149.902C150.516 30.6934 150.998 30.875 151.35 31.2383C151.705 31.6016 151.883 32.1387 151.883 32.8496C151.883 33.5332 151.709 34.0625 151.361 34.4375C151.018 34.8125 150.529 35 149.896 35H148.771ZM149.141 34.6836H149.82C150.34 34.6836 150.75 34.5371 151.051 34.2441C151.352 33.9512 151.502 33.4863 151.502 32.8496C151.502 32.2051 151.354 31.7383 151.057 31.4492C150.76 31.1562 150.352 31.0098 149.832 31.0098H149.141V34.6836ZM152.803 35V30.6934H155.451V31.0098H153.172V32.6152H155.234V32.9258H153.172V34.6836H155.51V35H152.803ZM122.984 39.4004H124.719L124.139 37.7949C124.111 37.7129 124.064 37.584 123.998 37.4082C123.936 37.2285 123.893 37.1035 123.869 37.0332H123.84C123.82 37.084 123.777 37.2031 123.711 37.3906C123.648 37.5742 123.604 37.709 123.576 37.7949L122.984 39.4004ZM121.988 41L123.623 36.6934H124.086L125.715 41H125.305L124.836 39.6992H122.873L122.398 41H121.988ZM126.717 38.7793H127.965C128.27 38.7793 128.504 38.6992 128.668 38.5391C128.836 38.375 128.92 38.1582 128.92 37.8887C128.92 37.6309 128.832 37.4199 128.656 37.2559C128.484 37.0918 128.236 37.0098 127.912 37.0098H126.717V38.7793ZM126.348 41V36.6934H128.006C128.42 36.6934 128.738 36.8066 128.961 37.0332C129.188 37.2559 129.301 37.5332 129.301 37.8652C129.301 38.1816 129.219 38.4336 129.055 38.6211C128.895 38.8047 128.717 38.918 128.521 38.9609C128.686 39.0391 128.809 39.1445 128.891 39.2773C128.973 39.4102 129.039 39.5879 129.09 39.8105C129.094 39.834 129.107 39.8926 129.131 39.9863C129.154 40.0801 129.168 40.1367 129.172 40.1562C129.176 40.1758 129.188 40.2227 129.207 40.2969C129.227 40.3711 129.24 40.4199 129.248 40.4434C129.26 40.4668 129.275 40.5098 129.295 40.5723C129.314 40.6309 129.332 40.6777 129.348 40.7129C129.367 40.748 129.389 40.793 129.412 40.8477C129.439 40.8984 129.469 40.9492 129.5 41H129.084C129.021 40.8828 128.965 40.7578 128.914 40.625C128.867 40.4883 128.832 40.375 128.809 40.2852C128.785 40.1953 128.75 40.0449 128.703 39.834C128.652 39.6113 128.57 39.4336 128.457 39.3008C128.344 39.1641 128.166 39.0957 127.924 39.0957H126.717V41H126.348ZM129.922 38.8555C129.922 38.168 130.082 37.6191 130.402 37.209C130.723 36.7949 131.148 36.5879 131.68 36.5879C132.215 36.5879 132.641 36.7969 132.957 37.2148C133.273 37.6289 133.432 38.1758 133.432 38.8555C133.432 39.5312 133.273 40.0762 132.957 40.4902C132.645 40.9004 132.219 41.1055 131.68 41.1055C131.141 41.1055 130.713 40.9004 130.396 40.4902C130.08 40.0762 129.922 39.5312 129.922 38.8555ZM130.303 38.8555C130.303 39.4453 130.426 39.9141 130.672 40.2617C130.922 40.6094 131.258 40.7832 131.68 40.7832C132.098 40.7832 132.43 40.6094 132.676 40.2617C132.926 39.9141 133.051 39.4453 133.051 38.8555C133.051 38.2461 132.926 37.7695 132.676 37.4258C132.426 37.0781 132.094 36.9043 131.68 36.9043C131.262 36.9043 130.928 37.0801 130.678 37.4316C130.428 37.7793 130.303 38.2539 130.303 38.8555ZM131.621 39.6934L131.867 39.4707L133.426 41.082L133.18 41.2988L131.621 39.6934ZM134.387 39.4707V36.6934H134.756V39.4531C134.756 39.8945 134.859 40.2266 135.066 40.4492C135.273 40.6719 135.547 40.7832 135.887 40.7832C136.234 40.7832 136.51 40.6699 136.713 40.4434C136.92 40.2168 137.023 39.8867 137.023 39.4531V36.6934H137.393V39.4707C137.393 39.9863 137.264 40.3887 137.006 40.6777C136.748 40.9629 136.375 41.1055 135.887 41.1055C135.41 41.1055 135.041 40.9648 134.779 40.6836C134.518 40.3984 134.387 39.9941 134.387 39.4707ZM138.67 41V36.6934H139.039V41H138.67ZM139.771 37.0098V36.6934H142.812V37.0098H141.477V41H141.107V37.0098H139.771ZM143.533 41V36.6934H146.182V37.0098H143.902V38.6152H145.965V38.9258H143.902V40.6836H146.24V41H143.533ZM146.797 38.8496C146.797 38.1465 146.965 37.5938 147.301 37.1914C147.637 36.7891 148.072 36.5879 148.607 36.5879C148.939 36.5879 149.219 36.6797 149.445 36.8633C149.676 37.043 149.846 37.2539 149.955 37.4961L149.639 37.6133C149.389 37.1406 149.043 36.9043 148.602 36.9043C148.168 36.9043 147.822 37.082 147.564 37.4375C147.307 37.793 147.178 38.2637 147.178 38.8496C147.178 39.4473 147.309 39.9199 147.57 40.2676C147.832 40.6113 148.176 40.7832 148.602 40.7832C148.871 40.7832 149.102 40.7109 149.293 40.5664C149.484 40.4219 149.631 40.2402 149.732 40.0215L150.066 40.1328C149.938 40.4102 149.752 40.6426 149.51 40.8301C149.271 41.0137 148.971 41.1055 148.607 41.1055C148.072 41.1055 147.637 40.9062 147.301 40.5078C146.965 40.1055 146.797 39.5527 146.797 38.8496ZM150.336 37.0098V36.6934H153.377V37.0098H152.041V41H151.672V37.0098H150.336ZM153.693 38.8496C153.693 38.1699 153.852 37.623 154.168 37.209C154.488 36.7949 154.916 36.5879 155.451 36.5879C155.99 36.5879 156.416 36.7969 156.729 37.2148C157.045 37.6289 157.203 38.1758 157.203 38.8555C157.203 39.5391 157.045 40.0859 156.729 40.4961C156.412 40.9023 155.986 41.1055 155.451 41.1055C154.912 41.1055 154.484 40.9004 154.168 40.4902C153.852 40.0801 153.693 39.5332 153.693 38.8496ZM154.074 38.8496C154.074 39.4355 154.197 39.9043 154.443 40.2559C154.689 40.6074 155.025 40.7832 155.451 40.7832C155.869 40.7832 156.201 40.6113 156.447 40.2676C156.697 39.9199 156.822 39.4492 156.822 38.8555C156.822 38.2617 156.701 37.7891 156.459 37.4375C156.217 37.082 155.881 36.9043 155.451 36.9043C155.029 36.9043 154.693 37.0801 154.443 37.4316C154.197 37.7832 154.074 38.2559 154.074 38.8496ZM157.795 40.2383L158.141 40.1094C158.262 40.3164 158.428 40.4805 158.639 40.6016C158.85 40.7227 159.094 40.7832 159.371 40.7832C159.691 40.7832 159.951 40.7051 160.15 40.5488C160.354 40.3926 160.455 40.1777 160.455 39.9043C160.455 39.7949 160.432 39.6953 160.385 39.6055C160.342 39.5117 160.289 39.4355 160.227 39.377C160.168 39.3145 160.082 39.2539 159.969 39.1953C159.859 39.1367 159.76 39.0918 159.67 39.0605C159.584 39.0254 159.471 38.9844 159.33 38.9375C159.201 38.8945 159.104 38.8633 159.037 38.8438C158.971 38.8203 158.879 38.7852 158.762 38.7383C158.645 38.6875 158.553 38.6426 158.486 38.6035C158.424 38.5645 158.352 38.5137 158.27 38.4512C158.188 38.3848 158.125 38.3184 158.082 38.252C158.039 38.1816 158.002 38.0996 157.971 38.0059C157.939 37.9082 157.924 37.8047 157.924 37.6953C157.924 37.3594 158.051 37.0918 158.305 36.8926C158.562 36.6895 158.908 36.5879 159.342 36.5879C159.662 36.5879 159.943 36.6621 160.186 36.8105C160.432 36.9551 160.607 37.1367 160.713 37.3555L160.396 37.4668C160.158 37.0918 159.803 36.9043 159.33 36.9043C159.01 36.9043 158.758 36.9766 158.574 37.1211C158.395 37.2656 158.305 37.457 158.305 37.6953C158.305 37.8711 158.369 38.0234 158.498 38.1523C158.631 38.2812 158.758 38.373 158.879 38.4277C159 38.4785 159.199 38.5488 159.477 38.6387C159.504 38.6504 159.525 38.6582 159.541 38.6621C159.693 38.7129 159.822 38.7598 159.928 38.8027C160.033 38.8418 160.148 38.8965 160.273 38.9668C160.398 39.0371 160.498 39.1133 160.572 39.1953C160.646 39.2734 160.709 39.373 160.76 39.4941C160.811 39.6113 160.836 39.7422 160.836 39.8867C160.836 40.2695 160.703 40.5684 160.438 40.7832C160.172 40.998 159.812 41.1055 159.359 41.1055C158.988 41.1055 158.67 41.0273 158.404 40.8711C158.143 40.7148 157.939 40.5039 157.795 40.2383ZM122.645 47V42.6934H123.775C124.389 42.6934 124.871 42.875 125.223 43.2383C125.578 43.6016 125.756 44.1387 125.756 44.8496C125.756 45.5332 125.582 46.0625 125.234 46.4375C124.891 46.8125 124.402 47 123.77 47H122.645ZM123.014 46.6836H123.693C124.213 46.6836 124.623 46.5371 124.924 46.2441C125.225 45.9512 125.375 45.4863 125.375 44.8496C125.375 44.2051 125.227 43.7383 124.93 43.4492C124.633 43.1562 124.225 43.0098 123.705 43.0098H123.014V46.6836ZM126.676 47V42.6934H129.324V43.0098H127.045V44.6152H129.107V44.9258H127.045V46.6836H129.383V47H126.676ZM130.262 47V42.6934H130.631V46.6836H132.717V47H130.262ZM134.879 47V42.6934H136.49C136.896 42.6934 137.219 42.8066 137.457 43.0332C137.699 43.2598 137.82 43.5605 137.82 43.9355C137.82 44.3223 137.697 44.627 137.451 44.8496C137.205 45.0684 136.885 45.1777 136.49 45.1777H135.248V47H134.879ZM135.248 44.8672H136.42C136.736 44.8672 136.984 44.7891 137.164 44.6328C137.348 44.4766 137.439 44.2441 137.439 43.9355C137.439 43.6387 137.35 43.4102 137.17 43.25C136.99 43.0898 136.736 43.0098 136.408 43.0098H135.248V44.8672ZM138.717 47V42.6934H141.365V43.0098H139.086V44.6152H141.148V44.9258H139.086V46.6836H141.424V47H138.717ZM142.672 44.7793H143.92C144.225 44.7793 144.459 44.6992 144.623 44.5391C144.791 44.375 144.875 44.1582 144.875 43.8887C144.875 43.6309 144.787 43.4199 144.611 43.2559C144.439 43.0918 144.191 43.0098 143.867 43.0098H142.672V44.7793ZM142.303 47V42.6934H143.961C144.375 42.6934 144.693 42.8066 144.916 43.0332C145.143 43.2559 145.256 43.5332 145.256 43.8652C145.256 44.1816 145.174 44.4336 145.01 44.6211C144.85 44.8047 144.672 44.918 144.477 44.9609C144.641 45.0391 144.764 45.1445 144.846 45.2773C144.928 45.4102 144.994 45.5879 145.045 45.8105C145.049 45.834 145.062 45.8926 145.086 45.9863C145.109 46.0801 145.123 46.1367 145.127 46.1562C145.131 46.1758 145.143 46.2227 145.162 46.2969C145.182 46.3711 145.195 46.4199 145.203 46.4434C145.215 46.4668 145.23 46.5098 145.25 46.5723C145.27 46.6309 145.287 46.6777 145.303 46.7129C145.322 46.748 145.344 46.793 145.367 46.8477C145.395 46.8984 145.424 46.9492 145.455 47H145.039C144.977 46.8828 144.92 46.7578 144.869 46.625C144.822 46.4883 144.787 46.375 144.764 46.2852C144.74 46.1953 144.705 46.0449 144.658 45.834C144.607 45.6113 144.525 45.4336 144.412 45.3008C144.299 45.1641 144.121 45.0957 143.879 45.0957H142.672V47H142.303ZM146.193 45.4707V42.6934H146.562V45.4531C146.562 45.8945 146.666 46.2266 146.873 46.4492C147.08 46.6719 147.354 46.7832 147.693 46.7832C148.041 46.7832 148.316 46.6699 148.52 46.4434C148.727 46.2168 148.83 45.8867 148.83 45.4531V42.6934H149.199V45.4707C149.199 45.9863 149.07 46.3887 148.812 46.6777C148.555 46.9629 148.182 47.1055 147.693 47.1055C147.217 47.1055 146.848 46.9648 146.586 46.6836C146.324 46.3984 146.193 45.9941 146.193 45.4707ZM147.312 42.1953L147.969 41.1875H148.467L147.635 42.1953H147.312Z" fill="white"/>
<path d="M11.7995 47.2298L0.0054084 40.4597L0.00269732 26.8628L0 13.2659L11.5629 6.62648C17.9225 2.9748 23.3432 -0.00711331 23.6089 1.27457e-05C24.0122 0.0108317 35.4934 6.52699 44.6137 11.9213L47 13.3327V26.8628V40.3929L44.6137 41.8021C43.3013 42.5771 38.6839 45.2498 34.3528 47.7415C30.0217 50.2331 25.8291 52.6606 25.0358 53.1358L23.5935 54L11.7995 47.2298ZM37.8701 41.6657C38.1049 41.4316 37.6237 40.0966 36.7612 38.5898L35.2374 35.9274H19.2845H3.33152V37.1091C3.33152 38.5099 2.96699 38.2561 14.5399 44.9127L23.5555 50.0984L30.5053 46.0889C34.3277 43.8836 37.6418 41.8932 37.8701 41.6657ZM42.9038 38.9091C43.9019 38.0927 43.9215 37.8224 43.7919 26.6479L43.6594 15.2216L36.5006 11.044C32.5633 8.74638 29.1965 6.85721 29.0189 6.84587C28.499 6.81269 25.6774 12.0129 25.8467 12.6923C26.095 13.6885 41.2425 39.7294 41.5782 39.7371C41.746 39.7409 42.3425 39.3683 42.9038 38.9091ZM17.86 18.8716L25.7846 5.15547L24.7618 4.31703C23.7839 3.5155 23.6731 3.51822 22.2451 4.37866C21.4235 4.87369 17.6372 7.05574 13.8311 9.22764C10.025 11.3995 6.10555 13.6824 5.12122 14.3007L3.33152 15.4247V24.0063V32.5878H6.63346H9.93542L17.86 18.8716ZM32.9212 32.2857C32.9212 31.484 23.6226 15.9328 23.3303 16.2456C22.72 16.8985 14.3083 31.7479 14.3083 32.1724C14.3083 32.4008 18.4962 32.5878 23.6148 32.5878C28.7333 32.5878 32.9212 32.4519 32.9212 32.2857Z" fill="#C7A64F"/>
<path d="M56.999 48V30.2334H59.9639V45.4844H68.0049V48H56.999ZM70.2285 48V30.2334H73.1934V48H70.2285ZM77.1465 48V30.2334H80.7627L83.8848 38.499C84.1094 39.113 84.3939 39.9515 84.7383 41.0146C85.0827 42.0628 85.3073 42.7441 85.4121 43.0586H85.502C86.2507 40.8874 86.7822 39.3675 87.0967 38.499L90.1514 30.2334H93.8125V48H90.8926V39.9365C90.8926 38.5889 90.9974 36.762 91.207 34.4561H91.1172L89.8369 38.2295L86.5801 46.9893H84.3789L81.167 38.2295L79.8418 34.4336H79.7295C79.9691 36.5898 80.0889 38.4242 80.0889 39.9365V48H77.1465ZM101.09 41.2168H106.391L104.886 36.6123C104.781 36.2829 104.661 35.916 104.526 35.5117C104.407 35.1074 104.272 34.6657 104.122 34.1865C103.987 33.6924 103.882 33.3255 103.808 33.0859H103.673C103.628 33.2357 103.269 34.4111 102.595 36.6123L101.09 41.2168ZM95.6992 48L102.123 30.2334H105.38L111.781 48H108.637L107.177 43.5977H100.304L98.8438 48H95.6992Z" fill="white"/>
<line x1="117.15" y1="30" x2="117.15" y2="47" stroke="#C7A64F" stroke-width="0.3"/>
</svg>
