<svg width="889" height="479" viewBox="0 0 889 479" fill="none" xmlns="http://www.w3.org/2000/svg">
<path d="M653 248H651C651 153.159 573.841 76 479 76C384.159 76 307 153.159 307 248H305C305 152.056 383.056 74 479 74C574.944 74 653 152.056 653 248Z" fill="#3F3D56"/>
<path d="M263.5 105C285.315 105 303 87.3152 303 65.5C303 43.6848 285.315 26 263.5 26C241.685 26 224 43.6848 224 65.5C224 87.3152 241.685 105 263.5 105Z" fill="#FF6584"/>
<path d="M153.891 311.384L221.752 230.567H355.171L436.705 309.983L435.058 311.042H435.646V476.227H153.984V311.042L153.891 311.384Z" fill="#3F3D56"/>
<path d="M194.719 276.249H210.102V223H194.719V276.249Z" fill="#3F3D56"/>
<path d="M220.694 229.508L304.345 327.581V476.227H153.984V308.924L220.694 229.508Z" fill="#F9A826"/>
<path d="M285.014 347.044H254.306V378.442H285.014V347.044Z" fill="#3F3D56"/>
<path d="M285.014 389.767H254.306V421.165H285.014V389.767Z" fill="#3F3D56"/>
<path d="M285.014 347.044H254.306V378.442H285.014V347.044Z" fill="white"/>
<path d="M285.014 389.767H254.306V421.165H285.014V389.767Z" fill="white"/>
<path d="M242.545 347.044H211.838V378.442H242.545V347.044Z" fill="#3F3D56"/>
<path d="M242.545 389.767H211.838V421.165H242.545V389.767Z" fill="#3F3D56"/>
<path d="M242.545 347.044H211.838V378.442H242.545V347.044Z" fill="white"/>
<path d="M242.545 389.767H211.838V421.165H242.545V389.767Z" fill="white"/>
<path d="M200.077 347.044H169.369V378.442H200.077V347.044Z" fill="#3F3D56"/>
<path d="M200.077 389.767H169.369V421.165H200.077V389.767Z" fill="#3F3D56"/>
<path d="M200.077 347.044H169.369V378.442H200.077V347.044Z" fill="white"/>
<path d="M200.077 389.767H169.369V421.165H200.077V389.767Z" fill="white"/>
<path d="M499 40H485V75H499V40Z" fill="#F9A826"/>
<path d="M498 72H379V477H498V72Z" fill="#F9A826"/>
<path d="M546 72H498V477H546V72Z" fill="#3F3D56"/>
<path d="M418.5 107H400.5V125H418.5V107Z" fill="white"/>
<path d="M447.5 107H429.5V125H447.5V107Z" fill="white"/>
<path d="M476.5 107H458.5V125H476.5V107Z" fill="white"/>
<path d="M419 148H401V166H419V148Z" fill="white"/>
<path d="M448 148H430V166H448V148Z" fill="white"/>
<path d="M477 148H459V166H477V148Z" fill="white"/>
<path d="M419.5 189H401.5V207H419.5V189Z" fill="white"/>
<path d="M448.5 189H430.5V207H448.5V189Z" fill="white"/>
<path d="M477.5 189H459.5V207H477.5V189Z" fill="white"/>
<path d="M420 230H402V248H420V230Z" fill="white"/>
<path d="M449 230H431V248H449V230Z" fill="white"/>
<path d="M478 230H460V248H478V230Z" fill="white"/>
<path d="M420.5 271H402.5V289H420.5V271Z" fill="white"/>
<path d="M449.5 271H431.5V289H449.5V271Z" fill="white"/>
<path d="M478.5 271H460.5V289H478.5V271Z" fill="white"/>
<path d="M421 312H403V330H421V312Z" fill="white"/>
<path d="M450 312H432V330H450V312Z" fill="white"/>
<path d="M479 312H461V330H479V312Z" fill="white"/>
<path d="M421.5 353H403.5V371H421.5V353Z" fill="white"/>
<path d="M450.5 353H432.5V371H450.5V353Z" fill="white"/>
<path d="M479.5 353H461.5V371H479.5V353Z" fill="white"/>
<path d="M422 394H404V412H422V394Z" fill="white"/>
<path d="M451 394H433V412H451V394Z" fill="white"/>
<path d="M451 442H433V476H451V442Z" fill="white"/>
<path d="M480 394H462V412H480V394Z" fill="white"/>
<path d="M506 40H498V74H506V40Z" fill="#3F3D56"/>
<path d="M649 218H635V238.744H649V218Z" fill="#F9A826"/>
<path d="M648 236.966H529V477H648V236.966Z" fill="#F9A826"/>
<path d="M696 236.966H648V477H696V236.966Z" fill="#3F3D56"/>
<path d="M570.5 271H552.5V289H570.5V271Z" fill="white"/>
<path d="M599.5 271H581.5V289H599.5V271Z" fill="white"/>
<path d="M628.5 271H610.5V289H628.5V271Z" fill="white"/>
<path d="M571 312H553V330H571V312Z" fill="white"/>
<path d="M600 312H582V330H600V312Z" fill="white"/>
<path d="M629 312H611V330H629V312Z" fill="white"/>
<path d="M571.5 353H553.5V371H571.5V353Z" fill="white"/>
<path d="M600.5 353H582.5V371H600.5V353Z" fill="white"/>
<path d="M629.5 353H611.5V371H629.5V353Z" fill="white"/>
<path d="M572 394H554V412H572V394Z" fill="white"/>
<path d="M601 394H583V412H601V394Z" fill="white"/>
<path d="M601 442H583V476H601V442Z" fill="white"/>
<path d="M630 394H612V412H630V394Z" fill="white"/>
<path d="M656 218H648V238.151H656V218Z" fill="#3F3D56"/>
<path d="M262.413 100.336L271.619 92.973C264.468 92.184 261.529 96.0842 260.327 99.1713C254.74 96.8513 248.657 99.8918 248.657 99.8918L267.076 106.579C266.147 104.097 264.53 101.931 262.413 100.336V100.336Z" fill="#3F3D56"/>
<path d="M338.413 80.3358L347.619 72.973C340.468 72.184 337.529 76.0842 336.327 79.1713C330.74 76.8513 324.657 79.8918 324.657 79.8918L343.076 86.5785C342.147 84.0966 340.53 81.9311 338.413 80.3358V80.3358Z" fill="#3F3D56"/>
<path d="M237.413 134.336L246.619 126.973C239.468 126.184 236.529 130.084 235.327 133.171C229.74 130.851 223.657 133.892 223.657 133.892L242.076 140.579C241.147 138.097 239.53 135.931 237.413 134.336V134.336Z" fill="#3F3D56"/>
<path d="M595.413 176.336L604.619 168.973C597.468 168.184 594.529 172.084 593.327 175.171C587.74 172.851 581.657 175.892 581.657 175.892L600.076 182.579C599.147 180.097 597.53 177.931 595.413 176.336Z" fill="#3F3D56"/>
<path d="M169 464C166.553 464 164.149 464.645 162.031 465.87C159.879 463.924 157.209 462.645 154.345 462.188C151.481 461.73 148.545 462.114 145.895 463.292C143.244 464.471 140.993 466.394 139.414 468.827C137.835 471.26 136.997 474.099 137 477H182.95C182.699 473.471 181.121 470.168 178.533 467.756C175.944 465.343 172.538 464.001 169 464V464Z" fill="#3F3D56"/>
<path d="M406 464C403.553 464 401.149 464.645 399.03 465.87C396.879 463.924 394.209 462.645 391.345 462.188C388.481 461.73 385.545 462.114 382.895 463.292C380.244 464.471 377.993 466.394 376.414 468.827C374.835 471.26 373.997 474.099 374 477H419.95C419.699 473.471 418.121 470.168 415.533 467.756C412.944 465.343 409.538 464.001 406 464V464Z" fill="#3F3D56"/>
<path d="M561 464C558.553 464 556.149 464.645 554.031 465.87C551.879 463.924 549.209 462.645 546.345 462.188C543.481 461.73 540.545 462.114 537.895 463.292C535.244 464.471 532.993 466.394 531.414 468.827C529.835 471.26 528.997 474.099 529 477H574.95C574.699 473.471 573.121 470.168 570.533 467.756C567.944 465.343 564.538 464.001 561 464V464Z" fill="#3F3D56"/>
</svg>
