<svg width="417" height="442" viewBox="0 0 417 442" fill="none" xmlns="http://www.w3.org/2000/svg">
<path d="M120 348.517C120.033 352.627 121.696 356.556 124.622 359.441C127.549 362.326 131.501 363.932 135.611 363.906L401.604 362C405.714 361.968 409.642 360.306 412.526 357.379C415.411 354.451 417.014 350.498 416.985 346.389C416.955 342.279 415.295 338.35 412.369 335.464C409.443 332.579 405.491 330.973 401.382 331L135.389 332.907C131.279 332.94 127.351 334.602 124.465 337.529C121.58 340.456 119.974 344.408 120 348.517V348.517Z" fill="#DBFF00"/>
<path d="M235.789 338.71C235.788 338.449 235.891 338.198 236.075 338.013C236.258 337.828 236.508 337.724 236.769 337.722L305.472 337.477C305.601 337.476 305.729 337.501 305.848 337.55C305.968 337.599 306.077 337.671 306.168 337.762C306.26 337.853 306.333 337.962 306.383 338.081C306.432 338.2 306.458 338.328 306.459 338.457C306.459 338.586 306.434 338.714 306.385 338.834C306.336 338.953 306.264 339.062 306.173 339.154C306.082 339.245 305.974 339.318 305.855 339.368C305.736 339.418 305.608 339.444 305.479 339.444V339.444L236.776 339.69C236.515 339.69 236.265 339.587 236.079 339.404C235.894 339.22 235.79 338.97 235.789 338.71V338.71Z" fill="#CCCCCC"/>
<path d="M235.868 347.727C235.867 347.466 235.97 347.216 236.154 347.031C236.338 346.846 236.587 346.741 236.848 346.74L413.738 345.69C413.867 345.69 413.995 345.714 414.115 345.763C414.234 345.812 414.343 345.884 414.435 345.974C414.527 346.065 414.6 346.173 414.65 346.292C414.7 346.411 414.726 346.539 414.727 346.668C414.728 346.798 414.703 346.926 414.654 347.045C414.606 347.165 414.534 347.274 414.443 347.366C414.352 347.457 414.244 347.53 414.125 347.581C414.006 347.631 413.878 347.657 413.749 347.658H413.745L236.855 348.707C236.594 348.708 236.344 348.605 236.159 348.421C235.974 348.237 235.869 347.988 235.868 347.727V347.727Z" fill="#CCCCCC"/>
<path d="M120 298.517C120.033 302.627 121.696 306.556 124.622 309.441C127.549 312.326 131.501 313.932 135.611 313.906L401.604 312C405.714 311.968 409.642 310.306 412.526 307.379C415.411 304.451 417.014 300.498 416.985 296.389C416.955 292.279 415.295 288.35 412.369 285.464C409.443 282.579 405.491 280.973 401.382 281L135.389 282.907C131.279 282.94 127.351 284.602 124.465 287.529C121.58 290.456 119.974 294.408 120 298.517Z" fill="#FAFF00"/>
<path d="M232.868 288.727C232.867 288.466 232.97 288.216 233.154 288.031C233.338 287.846 233.587 287.741 233.848 287.74L410.738 286.69C410.867 286.69 410.995 286.715 411.114 286.764C411.234 286.813 411.343 286.885 411.434 286.976C411.526 287.067 411.599 287.175 411.649 287.294C411.699 287.413 411.724 287.541 411.725 287.67C411.725 287.8 411.7 287.928 411.651 288.047C411.602 288.167 411.53 288.275 411.439 288.367C411.348 288.459 411.24 288.532 411.121 288.581C411.002 288.631 410.874 288.657 410.745 288.658V288.658L233.855 289.707C233.594 289.708 233.344 289.605 233.159 289.421C232.974 289.237 232.869 288.988 232.868 288.727V288.727Z" fill="#CCCCCC"/>
<path d="M171 302.037C170.999 301.776 171.102 301.525 171.286 301.34C171.47 301.155 171.719 301.051 171.98 301.049L348.87 300C348.999 300 349.127 300.025 349.246 300.074C349.366 300.123 349.475 300.195 349.566 300.286C349.658 300.377 349.731 300.485 349.781 300.604C349.831 300.723 349.856 300.851 349.857 300.98C349.857 301.109 349.832 301.237 349.783 301.357C349.734 301.476 349.662 301.585 349.571 301.677C349.48 301.768 349.372 301.841 349.253 301.891C349.134 301.941 349.006 301.967 348.877 301.967V301.967L171.987 303.017C171.726 303.017 171.476 302.914 171.291 302.731C171.106 302.547 171.001 302.297 171 302.037Z" fill="#CCCCCC"/>
<path d="M281.73 410.806L15.7366 408.899C11.6272 408.872 7.67515 410.478 4.74927 413.363C1.82339 416.249 0.163211 420.178 0.13376 424.288C0.10431 428.397 1.70798 432.35 4.5922 435.277C7.47641 438.205 11.4051 439.867 15.5145 439.898L281.508 441.805C285.617 441.832 289.569 440.227 292.495 437.341C295.421 434.455 297.081 430.526 297.111 426.416C297.14 422.307 295.536 418.354 292.652 415.427C289.768 412.499 285.839 410.837 281.73 410.806Z" fill="#FAFF00"/>
<path d="M99.2243 423.69L30.5212 423.444C30.392 423.444 30.2642 423.418 30.1451 423.368C30.0259 423.318 29.9177 423.245 29.8267 423.154C29.7357 423.062 29.6636 422.953 29.6146 422.834C29.5656 422.714 29.5406 422.586 29.5411 422.457C29.5415 422.328 29.5674 422.2 29.6173 422.081C29.6671 421.962 29.74 421.853 29.8316 421.762C29.9233 421.671 30.032 421.599 30.1515 421.55C30.271 421.501 30.399 421.476 30.5282 421.477L99.2313 421.722C99.3607 421.723 99.4888 421.748 99.6083 421.798C99.7278 421.848 99.8363 421.92 99.9276 422.012C100.019 422.104 100.091 422.213 100.14 422.332C100.19 422.452 100.215 422.58 100.214 422.71C100.214 422.839 100.188 422.967 100.138 423.086C100.088 423.206 100.015 423.314 99.9226 423.405C99.8307 423.496 99.7217 423.568 99.6018 423.617C99.482 423.666 99.3537 423.691 99.2243 423.69V423.69Z" fill="#CCCCCC"/>
<path d="M208.145 432.707L31.2551 431.658C31.126 431.657 30.9981 431.631 30.879 431.581C30.7598 431.532 30.6516 431.459 30.5606 431.367C30.4696 431.275 30.3975 431.167 30.3485 431.047C30.2995 430.928 30.2745 430.8 30.275 430.67C30.2755 430.541 30.3013 430.413 30.3512 430.294C30.4011 430.175 30.4739 430.067 30.5656 429.976C30.6572 429.885 30.7659 429.813 30.8854 429.764C31.005 429.715 31.1329 429.69 31.2621 429.69V429.69L208.152 430.74C208.281 430.74 208.409 430.766 208.528 430.816C208.647 430.866 208.755 430.939 208.846 431.03C208.937 431.122 209.009 431.231 209.058 431.35C209.107 431.47 209.132 431.598 209.132 431.727C209.132 431.856 209.106 431.984 209.056 432.103C209.006 432.222 208.933 432.33 208.841 432.421C208.75 432.512 208.641 432.584 208.522 432.633C208.402 432.682 208.274 432.707 208.145 432.707V432.707Z" fill="#CCCCCC"/>
<path d="M209.728 385.481L17.2817 414.309C15.7135 414.545 14.1141 414.47 12.575 414.088C11.0359 413.705 9.58728 413.024 8.31181 412.081C7.03635 411.139 5.95907 409.954 5.14159 408.595C4.3241 407.236 3.78241 405.73 3.54747 404.161C3.31253 402.593 3.38895 400.994 3.77235 399.455C4.15576 397.916 4.83864 396.468 5.78197 395.193C6.72529 393.918 7.91056 392.842 9.27007 392.025C10.6296 391.209 12.1367 390.668 13.7052 390.434L206.151 361.606C207.719 361.37 209.319 361.445 210.858 361.827C212.397 362.21 213.845 362.892 215.121 363.834C216.396 364.776 217.474 365.961 218.291 367.32C219.109 368.679 219.65 370.185 219.885 371.754C220.12 373.322 220.044 374.921 219.66 376.46C219.277 377.999 218.594 379.447 217.651 380.722C216.707 381.997 215.522 383.073 214.163 383.89C212.803 384.706 211.296 385.247 209.727 385.481L209.728 385.481Z" fill="#FB8525"/>
<path d="M75.8286 392.366L26.1499 399.99C25.9613 400.019 25.7689 399.972 25.615 399.859C25.4612 399.746 25.3584 399.577 25.3295 399.388C25.3005 399.2 25.3477 399.007 25.4606 398.853C25.5736 398.699 25.743 398.597 25.9316 398.568L75.6102 390.943C75.7989 390.914 75.9913 390.962 76.1451 391.075C76.299 391.187 76.4017 391.357 76.4307 391.545C76.4596 391.734 76.4124 391.927 76.2995 392.08C76.1866 392.234 76.0172 392.337 75.8286 392.366Z" fill="white"/>
<path d="M155.568 386.513L27.613 405.843C27.4244 405.872 27.2319 405.824 27.0781 405.711C26.9242 405.599 26.8215 405.429 26.7926 405.24C26.7636 405.052 26.8108 404.859 26.9237 404.706C27.0366 404.552 27.206 404.449 27.3947 404.42V404.42L155.35 385.091C155.443 385.076 155.539 385.08 155.63 385.103C155.722 385.125 155.809 385.165 155.885 385.221C155.962 385.277 156.026 385.348 156.076 385.428C156.125 385.509 156.157 385.599 156.172 385.693C156.186 385.786 156.182 385.882 156.159 385.974C156.137 386.066 156.096 386.152 156.04 386.228C155.984 386.305 155.913 386.369 155.832 386.418C155.751 386.467 155.661 386.499 155.568 386.513V386.513Z" fill="white"/>
<path d="M165.022 370.971C164.276 370.927 163.548 370.723 162.889 370.37C162.229 370.018 161.654 369.527 161.203 368.93C160.753 368.334 160.437 367.647 160.278 366.916C160.119 366.186 160.12 365.429 160.282 364.7L139.365 349.719L142.086 342.915L166.799 360.889C168.008 361.253 169.04 362.047 169.702 363.122C170.364 364.196 170.608 365.476 170.389 366.719C170.17 367.962 169.503 369.081 168.514 369.865C167.524 370.648 166.282 371.042 165.022 370.971V370.971Z" fill="#A0616A"/>
<path d="M108.829 287.214L96.2598 291.814C95.7075 292.016 95.2004 292.325 94.7674 292.723C94.3345 293.121 93.9843 293.6 93.7366 294.134C93.489 294.667 93.3489 295.244 93.3242 295.832C93.2996 296.42 93.391 297.006 93.5931 297.559C93.6424 297.694 93.6982 297.826 93.7603 297.956L110.897 333.705L152.188 363.464L158.517 353.381L127.239 324.899L108.829 287.214Z" fill="#3F3D56"/>
<path d="M103.66 361.146C89.3367 359.815 75.3055 356.508 60.9597 355.396L66.717 340.743L96.1401 345.125L103.66 361.146Z" fill="#A0616A"/>
<path d="M55.0634 364.592L54.9391 365.689L53.9149 374.504L52.7151 374.577L52.6493 385.617C53.0265 386.709 53.0245 387.897 52.6436 388.988C52.2626 390.079 51.5249 391.01 50.5497 391.63C50.388 391.734 50.2194 391.827 50.045 391.908C49.3154 386.178 49.5354 380.367 50.6961 374.709C51.162 372.604 51.8485 370.554 52.7444 368.593C53.1957 367.623 53.7089 366.682 54.2807 365.777C54.5221 365.374 54.7854 364.979 55.0634 364.592Z" fill="#2F2E41"/>
<path d="M55.2902 362.69L55.0634 364.584V364.592L54.9391 365.689C54.6172 365.733 54.3904 365.762 54.2806 365.777C54.254 365.781 54.2271 365.783 54.2002 365.784L55.2902 362.69Z" fill="#FB8525"/>
<path d="M107.377 326.361L104.904 340.743C104.904 340.743 110.91 354.277 106.777 357.649C106.271 358.103 105.882 358.671 105.643 359.306C105.404 359.942 105.321 360.626 105.402 361.3C104.816 361.249 104.238 361.197 103.66 361.146C89.3367 359.815 75.3055 356.508 60.9597 355.396C59.9428 355.316 58.9333 355.243 57.9165 355.191L62.335 342.623L59.3503 331.453L56.2559 319.865L55.5902 300.786C55.5743 300.425 55.5767 300.064 55.5974 299.703C55.5974 299.513 55.6048 299.33 55.6194 299.14C55.7803 296.73 56.4788 294.388 57.6638 292.284C58.8487 290.18 60.4899 288.368 62.4668 286.981C62.4723 286.981 62.4775 286.978 62.4814 286.974C63.1556 286.501 63.8648 286.081 64.6029 285.716C65.3958 285.323 66.2205 284.997 67.0682 284.743L67.9168 284.487L72.511 277.054L77.8367 276.498L79.8119 276.293L92.6799 274.955L95.4525 278.554L95.9572 279.212L97.9105 281.743L103.997 284.984C105.327 285.69 106.543 286.592 107.604 287.662C110.092 290.15 111.636 293.427 111.971 296.931C112.052 297.738 112.066 298.55 112.015 299.359L107.377 326.361Z" fill="#3F3D56"/>
<path d="M44.7396 261.588C44.6074 267.274 46.7322 272.779 49.7848 277.615C50.8045 274.807 52.2324 272.165 54.0226 269.774C53.1655 275.072 54.0785 280.505 56.6204 285.232C56.71 285.296 56.8028 285.356 56.8984 285.411C58.1189 286.202 59.5036 286.706 60.9476 286.883C62.3916 287.06 63.857 286.906 65.2326 286.432C62.5152 283.357 60.8857 279.473 60.5953 275.379C60.305 271.285 61.37 267.21 63.6261 263.781C64.9461 261.873 66.6534 260.186 67.471 258.015C68.7619 254.55 67.521 250.736 66.7381 247.124C66.0061 243.762 65.878 239.762 68.1333 237.298C67.8924 236.954 67.5643 236.68 67.1826 236.504C66.8009 236.328 66.3794 236.257 65.9612 236.298C65.2813 236.471 64.6515 236.8 64.1222 237.26C63.5929 237.721 63.179 238.299 62.9138 238.948C62.3937 240.249 61.7338 241.489 60.9456 242.648C59.2819 244.66 56.4486 245.136 54.0609 246.197C48.2785 248.772 44.8782 255.262 44.7396 261.588Z" fill="#2F2E41"/>
<path d="M93.4132 258.338C93.0827 257.181 95.3603 264.251 94.2613 264.378C89.2557 264.953 82.3843 267.942 78.8979 269.337C78.7409 269.318 78.5839 269.3 78.4315 269.277C78.0575 269.236 77.6927 269.177 77.3326 269.109C69.2146 267.573 66.0929 255.103 66.0929 254.989C66.0929 254.428 67.4383 239.031 69.5579 238.803C70.1146 238.743 70.6741 238.712 71.2341 238.712H76.4937C77.582 238.478 78.6851 238.318 79.7953 238.234H79.8045C90.3929 237.427 98.7417 243.881 97.9613 251.733C97.9567 251.743 97.9475 251.752 97.9428 251.761C97.7166 252.098 97.518 252.417 97.3425 252.723C97.1717 253.01 97.0285 253.283 96.9038 253.543C95.9387 255.548 98.4195 258.072 96.7745 258.543C94.5867 259.169 102.529 279.759 93.869 279.759C98.0812 280.957 94.3247 261.528 93.4132 258.338Z" fill="#2F2E41"/>
<path d="M83.9611 270.419C90.8385 270.419 96.4137 264.844 96.4137 257.966C96.4137 251.089 90.8385 245.514 83.9611 245.514C77.0837 245.514 71.5084 251.089 71.5084 257.966C71.5084 264.844 77.0837 270.419 83.9611 270.419Z" fill="#A0616A"/>
<path d="M97.9613 252.413C97.7535 252.522 97.5503 252.622 97.3425 252.723C97.1255 252.827 96.9085 252.932 96.6914 253.028C92.5216 254.919 89.1276 255.129 87.0681 252.413C87.013 250.983 86.692 249.577 86.1215 248.265C86.2222 249.731 85.8359 251.189 85.0225 252.413H80.8758C76.6045 255.247 74.411 255.544 77.3756 264.851C78.2022 267.444 81.4888 282.535 80.1958 284.772C79.8218 284.731 75.8425 268.202 75.4824 268.134C67.3645 266.598 62.2065 253.224 62.8668 252.467C62.8636 250.316 63.3583 248.193 64.3122 246.264C65.5189 243.821 67.4002 241.774 69.7333 240.367C71.1241 239.692 72.574 239.148 74.0647 238.74C74.1017 238.73 74.134 238.721 74.1709 238.712C74.6281 238.589 75.0945 238.475 75.5609 238.379C76.5243 238.176 77.4987 238.028 78.4792 237.937C78.5485 237.933 78.6178 237.928 78.6824 237.928C79.0739 237.929 79.4581 238.035 79.7953 238.234C79.7999 238.234 79.7999 238.238 79.8045 238.238C80.0454 238.379 80.2558 238.566 80.4233 238.79C80.7182 239.165 80.8777 239.629 80.8758 240.107H85.4935C85.6643 240.107 85.8352 240.111 86.0061 240.12C89.088 240.226 92.0197 241.477 94.2275 243.63C96.4352 245.783 97.7601 248.683 97.9429 251.761C97.9567 251.98 97.9613 252.194 97.9613 252.413Z" fill="#2F2E41"/>
<path d="M70.7342 248.432C75.2651 248.432 78.9381 244.759 78.9381 240.228C78.9381 235.697 75.2651 232.024 70.7342 232.024C66.2034 232.024 62.5304 235.697 62.5304 240.228C62.5304 244.759 66.2034 248.432 70.7342 248.432Z" fill="#2F2E41"/>
<path d="M50.5497 391.63C50.388 391.734 50.2194 391.827 50.045 391.908C49.4382 392.207 48.7784 392.383 48.1033 392.427C47.4283 392.471 46.7512 392.382 46.1106 392.164C45.4701 391.947 44.8788 391.605 44.3703 391.159C43.8618 390.713 43.4462 390.171 43.1472 389.564C42.8482 388.957 42.6717 388.297 42.6277 387.622C42.5837 386.947 42.673 386.27 42.8907 385.63C43.1084 384.989 43.4501 384.398 43.8963 383.889C44.3425 383.381 44.8845 382.965 45.4913 382.666C45.579 382.623 45.668 382.582 45.7581 382.544L45.7434 375.016L45.7288 366.157L45.7142 356.815L52.8249 355.059L52.7444 368.593L52.7151 374.577L52.6493 385.616C53.0265 386.709 53.0245 387.897 52.6436 388.988C52.2626 390.079 51.5249 391.01 50.5497 391.63Z" fill="#A0616A"/>
<path d="M78.656 295.548L77.9171 296.93L59.3503 331.452L58.7943 332.484L56.168 355.111L55.2902 362.69L55.0634 364.584V364.592L54.939 365.689L53.9148 374.504L52.7151 374.577L50.696 374.709L45.7434 375.016L42.0344 375.25L42.0417 369.317L42.1075 324.356L55.5974 299.703L55.9266 299.096L61.1353 289.578C61.7073 288.534 62.6704 287.761 63.8129 287.427C64.9554 287.094 66.1835 287.228 67.2272 287.8C67.3507 287.867 67.4708 287.941 67.5876 288.02L78.656 295.548Z" fill="#3F3D56"/>
<path d="M391.038 212.451C391.038 212.451 388.5 239.321 387.095 259.212V259.227C386.986 260.829 386.883 262.377 386.788 263.872L386.042 263.938C385.53 263.989 385.025 264.048 384.513 264.099C376.334 264.969 368.236 266.411 360.108 267.662C359.326 267.779 358.543 267.896 357.76 268.013C349.653 269.337 341.453 270.002 333.238 270.003H333.085C333.151 268.978 333.253 267.64 333.37 266.103C334.058 257.405 335.448 242.328 335.448 242.328L336.743 233.6L340.978 205.011L341.007 204.792L341.044 204.543L341.249 204.492L350.145 202.18L354.929 200.944L357.709 197.111L361.41 192.004L376.802 193.899L377.929 198.098L380.014 205.838L380.08 206.087L388.156 210.776L391.038 212.451Z" fill="#E6E6E6"/>
<path d="M369.067 190.351C378.076 190.351 385.379 183.048 385.379 174.039C385.379 165.03 378.076 157.727 369.067 157.727C360.059 157.727 352.755 165.03 352.755 174.039C352.755 183.048 360.059 190.351 369.067 190.351Z" fill="#FFB6B6"/>
<path d="M351.975 164.167C353.408 165.324 353.08 170.953 354.676 170.036C356.272 169.118 356.604 167.475 358.441 167.458C359.94 167.541 361.353 168.18 362.404 169.251C362.6 169.428 362.786 169.614 362.966 169.797C363.132 169.739 363.295 169.686 363.467 169.643C364.756 169.328 366.116 169.52 367.268 170.178C366.204 170.254 365.191 170.663 364.373 171.346C364.723 171.739 365.079 172.134 365.454 172.5C368.578 175.561 374.983 172.301 379.29 171.565C375.703 175.482 376.41 177.668 377.302 182.904L377.306 183.19C377.489 181.982 381.356 182.043 380.719 183.644C379.918 185.227 378.916 186.7 377.738 188.025C383.007 184.376 387.26 179.345 388.2 173.267C388.545 172.021 388.615 170.715 388.405 169.44C388.251 168.81 387.892 168.249 387.385 167.845C386.877 167.44 386.251 167.215 385.602 167.205C386.189 165.341 386.26 163.352 385.807 161.451C385.354 159.55 384.394 157.807 383.03 156.408C381.665 155.008 379.947 154.005 378.058 153.504C376.169 153.003 374.18 153.023 372.301 153.562C370.588 154.171 368.916 154.893 367.298 155.722C365.664 156.554 363.815 156.868 361.999 156.62C360.867 156.386 359.721 155.8 358.611 156.132C357.326 156.517 356.774 157.874 356.258 159.185C357.225 159.538 358.065 160.172 358.67 161.004C357.671 160.635 356.58 160.591 355.554 160.878C355.535 160.881 355.517 160.886 355.499 160.893C354.335 162.978 354.268 163.489 351.975 164.167Z" fill="#2F2E41"/>
<path d="M360.108 267.662C359.326 267.779 358.543 267.896 357.76 268.013C349.653 269.337 341.453 270.002 333.238 270.002C333.297 268.708 333.333 267.405 333.37 266.103C333.421 264.282 333.458 262.453 333.494 260.624C333.663 252.335 333.831 244.049 333.999 235.766C334.006 235.371 334.014 234.968 334.021 234.573C334.189 226.197 334.416 217.543 337.891 209.913C338.685 208.175 339.674 206.533 340.839 205.019C340.898 204.938 340.949 204.865 341.007 204.792C341.088 204.689 341.168 204.587 341.249 204.492C342.182 203.328 343.22 202.253 344.35 201.28C346.097 199.671 348.147 198.427 350.38 197.619C352.614 196.811 354.986 196.457 357.358 196.576L357.709 197.11L358.177 197.835C357.87 200.124 357.555 202.422 357.262 204.719C355.997 214.675 355.09 224.69 356.107 234.654C356.97 243.03 359.186 251.231 359.889 259.614C359.918 259.892 359.94 260.178 359.962 260.456C360.135 262.854 360.184 265.259 360.108 267.662V267.662Z" fill="#3F3D56"/>
<path d="M386.04 263.933C386.4 262.373 386.74 260.803 387.1 259.223V259.213C388.49 252.973 389.884 246.733 391.28 240.493C393.11 232.313 394.94 223.853 393.37 215.623C393.211 214.776 393.007 213.939 392.76 213.113C392.68 212.843 392.59 212.573 392.5 212.303C391.87 210.407 391.014 208.594 389.95 206.903C387.17 202.463 383.01 199.013 377.93 198.103C377.836 198.075 377.739 198.054 377.64 198.043L376.53 199.073C376.3 201.203 376.08 203.353 375.84 205.493C374.7 215.623 373.21 225.743 369.8 235.323C366.88 243.523 362.6 251.193 359.93 259.473C359.92 259.523 359.9 259.573 359.89 259.613C359.009 262.367 358.298 265.172 357.76 268.013C358.54 267.893 359.33 267.783 360.11 267.663C368.24 266.413 376.33 264.973 384.51 264.103L386.04 263.933Z" fill="#3F3D56"/>
<path d="M294.549 130.37C295.659 130.911 296.514 131.864 296.932 133.026C297.35 134.188 297.299 135.467 296.788 136.591C296.681 136.818 296.555 137.036 296.411 137.242L317.46 166.381L309.634 175.208L289.736 138.121C288.928 137.461 288.36 136.551 288.123 135.535C287.886 134.518 287.991 133.451 288.424 132.501C288.932 131.414 289.85 130.573 290.978 130.163C292.106 129.753 293.35 129.808 294.437 130.316C294.475 130.333 294.512 130.351 294.549 130.37Z" fill="#FFB6B6"/>
<path d="M353.553 215.809C353.553 215.809 350.739 225.873 337.607 218.479C324.475 211.084 310.272 183.472 310.13 181.58C309.989 179.688 311.753 181.26 308.862 177.923C306.511 175.208 308.833 174.172 307.663 174.046C304.577 173.715 309.935 169.803 306.124 170.252C302.314 170.701 314.739 161.869 314.739 161.869C314.739 161.869 317.003 161.923 318.731 166.75C319.702 169.461 318.785 171.316 321.098 171.306C323.412 171.295 322.421 176.788 322.911 177.513C323.4 178.239 339.187 190.659 339.187 190.659L353.553 215.809Z" fill="#3F3D56"/>
<path d="M336.082 152.163C378.1 152.163 412.163 118.1 412.163 76.0815C412.163 34.0629 378.1 0 336.082 0C294.063 0 260 34.0629 260 76.0815C260 118.1 294.063 152.163 336.082 152.163Z" fill="#FB8525"/>
<path d="M297.422 59.1507C298.214 60.6575 298.818 62.2552 299.222 63.9084C300.254 68.2551 299.53 72.2 297.157 74.0502C296.919 74.2423 296.663 74.4103 296.392 74.5516C293.424 76.1041 289.328 74.4656 286.045 70.7994C284.918 69.5244 283.951 68.1165 283.164 66.6071C282.378 65.1171 281.778 63.5355 281.379 61.8983C280.223 57.0976 281.208 52.7678 284.186 51.2107C288.129 49.1485 294.053 52.7084 297.422 59.1507Z" fill="white"/>
<path d="M296.162 66.5808C297.367 68.8744 297.72 71.5212 297.157 74.0502C296.919 74.2424 296.663 74.4104 296.392 74.5517C293.424 76.1041 289.328 74.4656 286.045 70.7994C284.918 69.5244 283.951 68.1166 283.164 66.6071C282.378 65.1171 281.778 63.5355 281.379 61.8984C283.962 60.5662 286.967 60.3109 289.737 61.1884C292.507 62.0658 294.817 64.0046 296.162 66.5808V66.5808Z" fill="#3F3D56"/>
<path d="M326.957 43.7049C330.192 49.8902 329.896 56.4886 326.383 58.8337C326.236 58.9332 326.084 59.024 325.927 59.1059C321.993 61.1635 316.068 57.6035 312.699 51.1613C311.914 49.6742 311.316 48.0956 310.919 46.4615C309.758 41.6519 310.743 37.3221 313.721 35.765C317.664 33.7028 323.588 37.2627 326.957 43.7049Z" fill="white"/>
<path d="M325.405 51.2879C326.623 53.6053 326.97 56.2824 326.383 58.8337C326.236 58.9332 326.084 59.024 325.927 59.1059C321.993 61.1635 316.069 57.6035 312.699 51.1613C311.914 49.6742 311.316 48.0956 310.919 46.4614C313.488 45.2322 316.434 45.0484 319.137 45.9487C321.839 46.849 324.086 48.7632 325.405 51.2879V51.2879Z" fill="#3F3D56"/>
<path d="M293.691 102.856C302.649 119.985 320.028 128.58 332.508 122.054C344.987 115.527 347.843 96.3507 338.885 79.2217C329.044 93.5689 314.141 101.647 293.691 102.856Z" fill="white"/>
<path opacity="0.2" d="M403.592 40.937C396.352 27.094 385.028 15.8142 371.157 8.6287C357.286 1.44324 341.539 -1.2997 326.056 0.772253C344.338 3.17806 361.125 12.1413 373.294 25.9954C385.464 39.8495 392.188 57.6516 392.217 76.0916C392.246 94.5316 385.577 112.355 373.451 126.247C361.324 140.139 344.566 149.154 326.291 151.617C340.099 153.431 354.141 151.419 366.884 145.801C379.627 140.183 390.584 131.173 398.558 119.756C406.533 108.338 411.219 94.9495 412.107 81.0509C412.995 67.1522 410.049 53.2767 403.592 40.937V40.937Z" fill="black"/>
</svg>
