<svg width="722" height="583" viewBox="0 0 722 583" fill="none" xmlns="http://www.w3.org/2000/svg">
<path d="M125.318 395.716H123.025C122.721 395.716 122.429 395.595 122.214 395.38C121.999 395.165 121.878 394.873 121.878 394.569V392.275C121.878 391.971 121.999 391.68 122.214 391.465C122.429 391.25 122.721 391.129 123.025 391.129H125.318C125.622 391.129 125.914 391.25 126.129 391.465C126.344 391.68 126.465 391.971 126.465 392.275V394.569C126.465 394.873 126.344 395.165 126.129 395.38C125.914 395.595 125.622 395.716 125.318 395.716V395.716Z" fill="#CCCCCC"/>
<path d="M662.325 191.351C662.245 191.351 662.167 191.319 662.11 191.262C662.053 191.205 662.021 191.127 662.021 191.047V128.848C662.021 128.767 662.054 128.69 662.111 128.634C662.168 128.577 662.245 128.545 662.325 128.545C662.406 128.545 662.483 128.577 662.54 128.634C662.597 128.69 662.63 128.767 662.63 128.848V191.047C662.63 191.087 662.622 191.126 662.607 191.163C662.592 191.2 662.569 191.234 662.541 191.262C662.513 191.29 662.479 191.313 662.442 191.328C662.405 191.343 662.365 191.351 662.325 191.351V191.351Z" fill="#CCCCCC"/>
<path d="M662.326 140.469C662.282 140.469 662.239 140.46 662.199 140.441C662.159 140.423 662.124 140.397 662.095 140.364L646.772 122.692C646.719 122.631 646.693 122.551 646.698 122.471C646.704 122.391 646.742 122.316 646.803 122.263C646.864 122.21 646.943 122.183 647.024 122.189C647.104 122.195 647.179 122.232 647.232 122.293L662.556 139.965C662.594 140.009 662.619 140.063 662.627 140.121C662.635 140.178 662.627 140.237 662.603 140.291C662.578 140.344 662.539 140.389 662.49 140.42C662.441 140.452 662.384 140.469 662.326 140.469V140.469Z" fill="#CCCCCC"/>
<path d="M662.325 150.667C662.265 150.667 662.206 150.65 662.156 150.616C662.106 150.583 662.067 150.535 662.044 150.479C662.021 150.424 662.015 150.362 662.027 150.303C662.038 150.244 662.067 150.19 662.11 150.147L670.817 141.44C670.845 141.412 670.879 141.389 670.916 141.374C670.953 141.359 670.993 141.351 671.033 141.351C671.073 141.351 671.112 141.359 671.149 141.374C671.186 141.389 671.22 141.412 671.248 141.44C671.276 141.468 671.299 141.502 671.314 141.539C671.329 141.576 671.337 141.615 671.337 141.655C671.337 141.695 671.329 141.735 671.314 141.772C671.299 141.809 671.276 141.843 671.248 141.871L662.541 150.578C662.513 150.607 662.479 150.629 662.442 150.644C662.405 150.66 662.365 150.668 662.325 150.667V150.667Z" fill="#CCCCCC"/>
<path d="M633.467 190.948C633.467 187.997 634.639 185.168 636.725 183.082C638.811 180.996 641.64 179.824 644.59 179.824C647.541 179.824 650.37 180.996 652.456 183.082C654.542 185.168 655.714 187.997 655.714 190.948" fill="#F2F2F2"/>
<path d="M644.59 190.948C644.511 190.948 644.434 190.916 644.378 190.859C644.321 190.803 644.29 190.727 644.29 190.647V184.785C644.29 184.705 644.321 184.628 644.378 184.572C644.434 184.516 644.511 184.484 644.59 184.484C644.67 184.484 644.747 184.516 644.803 184.572C644.859 184.628 644.891 184.705 644.891 184.785V190.647C644.891 190.727 644.859 190.803 644.803 190.859C644.747 190.916 644.67 190.948 644.59 190.948V190.948Z" fill="#CCCCCC"/>
<path d="M644.59 188.933C644.519 188.933 644.449 188.907 644.395 188.861L640.787 185.764C640.757 185.739 640.733 185.707 640.715 185.672C640.697 185.637 640.686 185.598 640.683 185.559C640.68 185.52 640.685 185.48 640.697 185.443C640.71 185.405 640.729 185.37 640.755 185.34C640.781 185.31 640.812 185.286 640.847 185.268C640.882 185.25 640.921 185.239 640.96 185.236C640.999 185.233 641.039 185.238 641.077 185.251C641.114 185.263 641.149 185.282 641.179 185.308L644.786 188.404C644.833 188.444 644.866 188.498 644.882 188.557C644.897 188.617 644.894 188.679 644.872 188.737C644.851 188.795 644.813 188.844 644.762 188.879C644.712 188.914 644.652 188.933 644.59 188.933H644.59Z" fill="#CCCCCC"/>
<path d="M667.739 190.948C667.739 187.997 668.911 185.168 670.997 183.082C673.083 180.996 675.912 179.824 678.862 179.824C681.812 179.824 684.642 180.996 686.728 183.082C688.814 185.168 689.985 187.997 689.985 190.948" fill="#F2F2F2"/>
<path d="M678.862 190.948C678.782 190.948 678.706 190.916 678.65 190.859C678.593 190.803 678.562 190.727 678.562 190.647V184.785C678.562 184.705 678.593 184.628 678.65 184.572C678.706 184.516 678.782 184.484 678.862 184.484C678.942 184.484 679.018 184.516 679.075 184.572C679.131 184.628 679.163 184.705 679.163 184.785V190.647C679.163 190.727 679.131 190.803 679.075 190.859C679.018 190.916 678.942 190.948 678.862 190.948V190.948Z" fill="#CCCCCC"/>
<path d="M678.862 188.933C678.79 188.933 678.721 188.907 678.666 188.861L675.059 185.764C674.999 185.712 674.962 185.639 674.956 185.559C674.95 185.48 674.976 185.402 675.028 185.341C675.079 185.281 675.153 185.244 675.232 185.238C675.311 185.231 675.39 185.257 675.45 185.308L679.058 188.404C679.105 188.444 679.138 188.498 679.153 188.557C679.169 188.617 679.165 188.679 679.144 188.737C679.123 188.795 679.084 188.844 679.034 188.879C678.983 188.914 678.924 188.933 678.862 188.933V188.933Z" fill="#CCCCCC"/>
<path d="M338.513 90.2327C345.82 79.7724 354.675 49.0224 344.208 41.7098C333.741 34.3972 307.914 53.291 300.607 63.7514C297.098 68.7781 295.728 74.9927 296.801 81.0286C297.873 87.0646 301.298 92.4276 306.323 95.9385C311.349 99.4493 317.563 100.821 323.599 99.7505C329.636 98.6806 335 95.257 338.513 90.2327V90.2327Z" fill="#F2F2F2"/>
<path d="M290.239 118.962C290.182 118.921 290.143 118.86 290.131 118.791C290.118 118.722 290.134 118.651 290.174 118.593L321.083 74.3492C321.124 74.2918 321.185 74.2526 321.254 74.2403C321.323 74.2281 321.394 74.2438 321.452 74.2839C321.509 74.3241 321.548 74.3854 321.56 74.4545C321.573 74.5235 321.557 74.5946 321.517 74.6521L290.608 118.896C290.567 118.954 290.506 118.993 290.437 119.005C290.368 119.017 290.297 119.002 290.239 118.962V118.962Z" fill="#CCCCCC"/>
<path d="M315.525 82.7671C315.494 82.7454 315.468 82.7173 315.449 82.6847C315.43 82.652 315.418 82.6156 315.414 82.5779L313.295 62.3923C313.288 62.3226 313.309 62.2528 313.353 62.1983C313.397 62.1438 313.461 62.1091 313.531 62.1017C313.6 62.0944 313.67 62.1151 313.725 62.1592C313.779 62.2034 313.814 62.2674 313.821 62.3371L315.94 82.5227C315.945 82.5731 315.936 82.6239 315.913 82.6692C315.89 82.7144 315.855 82.7522 315.811 82.7779C315.767 82.8037 315.717 82.8163 315.667 82.8144C315.616 82.8125 315.567 82.7961 315.525 82.7671L315.525 82.7671Z" fill="#CCCCCC"/>
<path d="M310.457 90.0217C310.414 89.9917 310.381 89.9497 310.362 89.901C310.343 89.8523 310.339 89.7991 310.35 89.748C310.362 89.697 310.388 89.6504 310.425 89.6142C310.463 89.578 310.511 89.5538 310.562 89.5447L321.083 87.6778C321.117 87.6715 321.152 87.6721 321.187 87.6794C321.221 87.6868 321.253 87.7008 321.281 87.7207C321.31 87.7406 321.335 87.7659 321.353 87.7952C321.372 87.8246 321.385 87.8573 321.391 87.8916C321.397 87.926 321.396 87.9611 321.389 87.9951C321.381 88.0291 321.367 88.0613 321.347 88.0898C321.327 88.1183 321.301 88.1426 321.272 88.1612C321.243 88.1799 321.21 88.1925 321.175 88.1984L310.655 90.0652C310.62 90.0714 310.585 90.0707 310.551 90.0632C310.518 90.0557 310.485 90.0416 310.457 90.0217Z" fill="#CCCCCC"/>
<path d="M269.912 104.333C271.381 102.241 273.619 100.817 276.137 100.374C278.654 99.9299 281.244 100.503 283.34 101.967C285.435 103.431 286.864 105.666 287.314 108.182C287.763 110.698 287.196 113.29 285.737 115.389" fill="#F2F2F2"/>
<path d="M277.825 109.861C277.768 109.821 277.729 109.761 277.717 109.693C277.705 109.625 277.72 109.554 277.76 109.498L280.673 105.328C280.713 105.271 280.774 105.233 280.841 105.221C280.909 105.21 280.979 105.225 281.036 105.265C281.092 105.304 281.131 105.364 281.143 105.432C281.155 105.5 281.14 105.57 281.101 105.627L278.188 109.797C278.148 109.853 278.088 109.892 278.02 109.904C277.951 109.916 277.881 109.901 277.825 109.861V109.861Z" fill="#CCCCCC"/>
<path d="M278.825 108.428C278.774 108.392 278.738 108.34 278.722 108.279L277.695 104.284C277.686 104.251 277.684 104.216 277.689 104.182C277.694 104.148 277.705 104.115 277.722 104.086C277.74 104.056 277.763 104.03 277.79 104.01C277.818 103.989 277.849 103.974 277.882 103.965C277.916 103.957 277.95 103.955 277.984 103.96C278.018 103.965 278.051 103.976 278.08 103.994C278.11 104.011 278.136 104.034 278.156 104.062C278.177 104.089 278.192 104.121 278.2 104.154L279.228 108.149C279.241 108.201 279.238 108.255 279.219 108.305C279.201 108.355 279.167 108.398 279.124 108.429C279.08 108.459 279.028 108.475 278.974 108.475C278.921 108.475 278.869 108.459 278.825 108.428V108.428Z" fill="#CCCCCC"/>
<path d="M294.291 121.365C295.015 120.322 295.939 119.433 297.007 118.748C298.076 118.063 299.269 117.596 300.519 117.372C301.768 117.149 303.05 117.175 304.289 117.447C305.529 117.72 306.703 118.235 307.744 118.962C308.784 119.689 309.671 120.614 310.354 121.684C311.036 122.754 311.501 123.949 311.721 125.199C311.942 126.449 311.913 127.73 311.638 128.969C311.362 130.208 310.845 131.381 310.116 132.42" fill="#F2F2F2"/>
<path d="M302.203 126.892C302.147 126.852 302.108 126.792 302.096 126.724C302.084 126.656 302.099 126.586 302.139 126.529L305.052 122.359C305.092 122.302 305.152 122.263 305.22 122.251C305.288 122.239 305.359 122.255 305.415 122.294C305.472 122.334 305.511 122.395 305.523 122.463C305.535 122.531 305.519 122.601 305.48 122.658L302.567 126.828C302.527 126.884 302.466 126.923 302.398 126.935C302.33 126.947 302.26 126.932 302.203 126.892V126.892Z" fill="#CCCCCC"/>
<path d="M303.204 125.459C303.153 125.424 303.116 125.371 303.101 125.31L302.074 121.315C302.057 121.248 302.067 121.177 302.102 121.118C302.138 121.059 302.195 121.016 302.262 120.999C302.328 120.982 302.399 120.992 302.459 121.027C302.518 121.061 302.561 121.118 302.579 121.185L303.606 125.18C303.62 125.232 303.617 125.286 303.598 125.336C303.58 125.386 303.546 125.429 303.502 125.46C303.459 125.49 303.406 125.506 303.353 125.506C303.3 125.506 303.248 125.49 303.204 125.459Z" fill="#CCCCCC"/>
<path d="M488.444 318.405C494.323 323.804 500.163 329.242 505.965 334.719C504.476 334.801 502.93 334.867 501.343 334.917C499.102 334.991 496.77 335.025 494.323 335.025C467.475 335.025 453.849 330.617 440.686 326.351C428.184 322.308 416.377 318.488 392.134 318.488C367.882 318.488 356.075 322.308 343.581 326.351C330.41 330.617 316.783 335.025 289.936 335.025C263.08 335.025 249.462 330.617 236.291 326.351C224.078 322.399 212.527 318.661 189.392 318.496C188.847 318.488 188.301 318.488 187.739 318.488V301.951C188.293 301.951 188.847 301.951 189.392 301.959C215.157 302.133 228.486 306.449 241.384 310.616C253.886 314.668 265.693 318.488 289.936 318.488C314.179 318.488 325.987 314.668 338.488 310.616C351.66 306.358 365.278 301.951 392.134 301.951C418.981 301.951 432.599 306.358 445.77 310.616C456.214 313.998 466.177 317.223 483.309 318.19C484.955 318.289 486.658 318.355 488.444 318.405Z" fill="#F50057"/>
<path d="M656.122 321.537V338.074C629.267 338.074 615.648 333.667 602.477 329.4C589.975 325.357 578.168 321.537 553.925 321.537C529.674 321.537 517.866 325.357 505.365 329.4C504.687 329.623 504 329.838 503.314 330.062C502.14 330.442 500.949 330.822 499.742 331.194C495.178 326.721 490.597 322.287 486 317.89C487.281 317.576 488.522 317.245 489.746 316.907C493.392 315.898 496.807 314.79 500.28 313.665C513.451 309.407 527.069 305 553.925 305C580.781 305 594.399 309.407 607.57 313.665C620.072 317.717 631.88 321.537 656.122 321.537Z" fill="#F50057"/>
<path d="M333.32 191.311C287.034 157.601 238.333 125.636 188.582 96.3075L186.085 94.8357V194.305H337.43L333.32 191.311ZM189.392 190.997V100.632C236.721 128.629 283.065 159.007 327.26 190.997H189.392ZM567.572 395.731C547.555 374.92 527.019 354.582 505.965 334.719C500.16 329.237 494.32 323.799 488.444 318.405C452.584 285.464 415.544 254.135 377.325 224.418L376.878 224.071H186.085V398.534H570.268L567.572 395.731ZM189.392 395.227V227.378H375.745C412.598 256.045 448.453 286.315 483.309 318.19C489.362 323.722 495.373 329.297 501.343 334.917C522.212 354.53 542.594 374.633 562.487 395.227H189.392ZM567.572 395.731C547.555 374.92 527.019 354.582 505.965 334.719C500.16 329.237 494.32 323.799 488.444 318.405C452.584 285.464 415.544 254.135 377.325 224.418L376.878 224.071H186.085V398.534H570.268L567.572 395.731ZM189.392 395.227V227.378H375.745C412.598 256.045 448.453 286.315 483.309 318.19C489.362 323.722 495.373 329.297 501.343 334.917C522.212 354.53 542.594 374.633 562.487 395.227H189.392ZM333.32 191.311C287.034 157.601 238.333 125.636 188.582 96.3075L186.085 94.8357V194.305H337.43L333.32 191.311ZM189.392 190.997V100.632C236.721 128.629 283.065 159.007 327.26 190.997H189.392ZM333.32 191.311C287.034 157.601 238.333 125.636 188.582 96.3075L186.085 94.8357V194.305H337.43L333.32 191.311ZM189.392 190.997V100.632C236.721 128.629 283.065 159.007 327.26 190.997H189.392ZM567.572 395.731C547.555 374.92 527.019 354.582 505.965 334.719C500.16 329.237 494.32 323.799 488.444 318.405C452.584 285.464 415.544 254.135 377.325 224.418L376.878 224.071H186.085V398.534H570.268L567.572 395.731ZM189.392 395.227V227.378H375.745C412.598 256.045 448.453 286.315 483.309 318.19C489.362 323.722 495.373 329.297 501.343 334.917C522.212 354.53 542.594 374.633 562.487 395.227H189.392ZM655.5 431.608L186.085 428.3V482.872H698.726H655.5L189.392 479.564V431.608H655.5ZM389.86 190.997C326.409 142.052 259.402 97.9005 189.392 58.9095V25.4225L186.085 25.7285V59.4747L188.632 62.2748C258.356 101.16 325.092 145.175 388.288 193.957L388.735 194.305L655.5 190.997H389.86ZM153.011 190.997H90H109L156.319 194.305V28.4901L153.011 28.796V190.997ZM655.5 227.378L426.208 224.071L429.771 226.998C463.324 254.606 496.268 283.887 528.603 314.841C533.201 319.24 537.782 323.675 542.346 328.145C565.067 350.346 587.345 373.271 609.179 396.922L611.906 398.534H655.316L612.114 395.227C590.517 371.811 568.452 349.073 545.917 327.012C541.411 322.597 536.889 318.212 532.349 313.857C500.714 283.504 468.404 254.678 435.418 227.378H655.5ZM333.32 191.311C287.034 157.601 238.333 125.636 188.582 96.3075L186.085 94.8357V194.305H337.43L333.32 191.311ZM189.392 190.997V100.632C236.721 128.629 283.065 159.007 327.26 190.997H189.392ZM567.572 395.731C547.555 374.92 527.019 354.582 505.965 334.719C500.16 329.237 494.32 323.799 488.444 318.405C452.584 285.464 415.544 254.135 377.325 224.418L376.878 224.071H186.085V398.534H570.268L567.572 395.731ZM189.392 395.227V227.378H375.745C412.598 256.045 448.453 286.315 483.309 318.19C489.362 323.722 495.373 329.297 501.343 334.917C522.212 354.53 542.594 374.633 562.487 395.227H189.392ZM333.32 191.311C287.034 157.601 238.333 125.636 188.582 96.3075L186.085 94.8357V194.305H337.43L333.32 191.311ZM189.392 190.997V100.632C236.721 128.629 283.065 159.007 327.26 190.997H189.392ZM567.572 395.731C547.555 374.92 527.019 354.582 505.965 334.719C500.16 329.237 494.32 323.799 488.444 318.405C452.584 285.464 415.544 254.135 377.325 224.418L376.878 224.071H186.085V398.534H570.268L567.572 395.731ZM189.392 395.227V227.378H375.745C412.598 256.045 448.453 286.315 483.309 318.19C489.362 323.722 495.373 329.297 501.343 334.917C522.212 354.53 542.594 374.633 562.487 395.227H189.392Z" fill="#3F3D56"/>
<path d="M419.823 303.781C419.823 289.219 431.628 254.664 446.19 254.664C460.752 254.664 472.557 289.219 472.557 303.781C472.557 310.774 469.779 317.48 464.834 322.425C459.889 327.37 453.183 330.148 446.19 330.148C439.197 330.148 432.49 327.37 427.546 322.425C422.601 317.48 419.823 310.774 419.823 303.781V303.781Z" fill="#F2F2F2"/>
<path d="M446.19 367.928C446.161 367.928 446.133 367.923 446.107 367.912C446.08 367.901 446.057 367.885 446.036 367.865C446.016 367.845 446 367.821 445.989 367.795C445.979 367.768 445.973 367.74 445.973 367.712V276.807C445.973 276.75 445.996 276.695 446.036 276.654C446.077 276.613 446.132 276.591 446.19 276.591C446.247 276.591 446.302 276.613 446.343 276.654C446.384 276.695 446.407 276.75 446.407 276.807V367.712C446.407 367.74 446.401 367.768 446.39 367.795C446.379 367.821 446.363 367.845 446.343 367.865C446.323 367.885 446.299 367.901 446.273 367.912C446.246 367.923 446.218 367.928 446.19 367.928V367.928Z" fill="#3F3D56"/>
<path d="M446.19 294.357C446.161 294.357 446.133 294.352 446.107 294.341C446.08 294.33 446.057 294.314 446.036 294.294L435.6 283.858C435.58 283.838 435.564 283.814 435.553 283.787C435.543 283.761 435.537 283.733 435.537 283.704C435.537 283.676 435.543 283.648 435.553 283.621C435.564 283.595 435.58 283.571 435.6 283.551C435.621 283.531 435.644 283.515 435.671 283.504C435.697 283.493 435.725 283.488 435.754 283.488C435.782 283.488 435.81 283.493 435.837 283.504C435.863 283.515 435.887 283.531 435.907 283.551L446.343 293.987C446.373 294.017 446.394 294.056 446.402 294.098C446.411 294.14 446.406 294.184 446.39 294.223C446.374 294.263 446.346 294.297 446.31 294.321C446.275 294.344 446.233 294.357 446.19 294.357V294.357Z" fill="#3F3D56"/>
<path d="M446.19 312.424C446.147 312.424 446.105 312.411 446.069 312.387C446.034 312.363 446.006 312.33 445.989 312.29C445.973 312.25 445.969 312.207 445.977 312.165C445.985 312.123 446.006 312.084 446.036 312.054L463.513 294.577C463.533 294.556 463.557 294.541 463.584 294.53C463.61 294.519 463.638 294.513 463.667 294.513C463.695 294.513 463.723 294.519 463.75 294.53C463.776 294.541 463.8 294.556 463.82 294.577C463.84 294.597 463.856 294.621 463.867 294.647C463.878 294.673 463.883 294.701 463.883 294.73C463.883 294.758 463.878 294.787 463.867 294.813C463.856 294.839 463.84 294.863 463.82 294.883L446.343 312.36C446.323 312.38 446.299 312.396 446.273 312.407C446.246 312.418 446.218 312.424 446.19 312.424V312.424Z" fill="#3F3D56"/>
<path d="M567.663 229.365C567.663 214.803 579.468 180.248 594.03 180.248C608.592 180.248 620.396 214.803 620.396 229.365C620.392 236.355 617.612 243.058 612.668 247.999C607.724 252.94 601.02 255.716 594.03 255.716C587.04 255.716 580.335 252.94 575.391 247.999C570.447 243.058 567.667 236.355 567.663 229.365V229.365Z" fill="#F50057"/>
<path d="M594.03 293.513C594.001 293.513 593.973 293.507 593.947 293.496C593.92 293.485 593.896 293.469 593.876 293.449C593.856 293.429 593.84 293.405 593.829 293.379C593.818 293.353 593.813 293.324 593.813 293.296V202.392C593.813 202.334 593.836 202.279 593.876 202.238C593.917 202.198 593.972 202.175 594.03 202.175C594.087 202.175 594.142 202.198 594.183 202.238C594.224 202.279 594.246 202.334 594.246 202.392V293.296C594.246 293.324 594.241 293.353 594.23 293.379C594.219 293.405 594.203 293.429 594.183 293.449C594.163 293.469 594.139 293.485 594.113 293.496C594.086 293.507 594.058 293.513 594.03 293.513V293.513Z" fill="#3F3D56"/>
<path d="M594.03 219.941C594.001 219.942 593.973 219.936 593.947 219.925C593.92 219.914 593.896 219.898 593.876 219.878L583.44 209.442C583.4 209.401 583.377 209.346 583.377 209.289C583.377 209.231 583.4 209.176 583.44 209.135C583.481 209.095 583.536 209.072 583.594 209.072C583.651 209.072 583.706 209.095 583.747 209.135L594.183 219.571C594.213 219.602 594.234 219.64 594.242 219.682C594.251 219.724 594.246 219.768 594.23 219.808C594.214 219.847 594.186 219.881 594.15 219.905C594.114 219.929 594.072 219.941 594.03 219.941H594.03Z" fill="#3F3D56"/>
<path d="M594.03 238.008C593.987 238.008 593.945 237.995 593.909 237.972C593.874 237.948 593.846 237.914 593.829 237.874C593.813 237.835 593.809 237.791 593.817 237.749C593.825 237.707 593.846 237.668 593.876 237.638L611.353 220.161C611.394 220.121 611.449 220.098 611.506 220.098C611.564 220.099 611.618 220.121 611.659 220.162C611.699 220.202 611.722 220.257 611.722 220.315C611.723 220.372 611.7 220.427 611.66 220.468L594.183 237.945C594.163 237.965 594.139 237.981 594.113 237.992C594.086 238.003 594.058 238.008 594.03 238.008V238.008Z" fill="#3F3D56"/>
<path d="M243.948 236.807C243.948 222.245 255.753 187.69 270.315 187.69C284.877 187.69 296.682 222.245 296.682 236.807C296.682 243.8 293.904 250.506 288.959 255.451C284.015 260.396 277.308 263.174 270.315 263.174C263.322 263.174 256.616 260.396 251.671 255.451C246.726 250.506 243.948 243.8 243.948 236.807V236.807Z" fill="#F50057"/>
<path d="M270.315 300.954C270.287 300.954 270.259 300.949 270.232 300.938C270.206 300.927 270.182 300.911 270.162 300.891C270.142 300.871 270.126 300.847 270.115 300.821C270.104 300.794 270.098 300.766 270.098 300.738V209.833C270.098 209.776 270.121 209.721 270.162 209.68C270.203 209.639 270.258 209.617 270.315 209.617C270.373 209.617 270.428 209.639 270.469 209.68C270.509 209.721 270.532 209.776 270.532 209.833V300.738C270.532 300.766 270.526 300.794 270.516 300.821C270.505 300.847 270.489 300.871 270.469 300.891C270.448 300.911 270.425 300.927 270.398 300.938C270.372 300.949 270.344 300.954 270.315 300.954V300.954Z" fill="#3F3D56"/>
<path d="M270.315 227.383C270.287 227.383 270.259 227.377 270.232 227.367C270.206 227.356 270.182 227.34 270.162 227.32L259.726 216.884C259.706 216.863 259.69 216.84 259.679 216.813C259.668 216.787 259.662 216.759 259.662 216.73C259.662 216.702 259.668 216.674 259.679 216.647C259.69 216.621 259.706 216.597 259.726 216.577C259.746 216.557 259.77 216.541 259.796 216.53C259.823 216.519 259.851 216.514 259.879 216.514C259.908 216.514 259.936 216.519 259.962 216.53C259.989 216.541 260.012 216.557 260.033 216.577L270.469 227.013C270.499 227.043 270.52 227.082 270.528 227.124C270.536 227.166 270.532 227.21 270.516 227.249C270.499 227.289 270.471 227.323 270.436 227.346C270.4 227.37 270.358 227.383 270.315 227.383V227.383Z" fill="#3F3D56"/>
<path d="M270.315 245.45C270.272 245.45 270.23 245.437 270.195 245.413C270.159 245.389 270.131 245.355 270.115 245.316C270.099 245.276 270.094 245.233 270.103 245.191C270.111 245.149 270.132 245.11 270.162 245.08L287.639 227.603C287.68 227.562 287.735 227.539 287.792 227.539C287.849 227.539 287.905 227.562 287.945 227.603C287.986 227.643 288.009 227.699 288.009 227.756C288.009 227.813 287.986 227.868 287.946 227.909L270.469 245.386C270.448 245.406 270.425 245.422 270.398 245.433C270.372 245.444 270.344 245.45 270.315 245.45V245.45Z" fill="#3F3D56"/>
<path d="M487.211 164.161C472.236 164.161 457.597 159.721 445.145 151.401C432.693 143.081 422.988 131.255 417.257 117.42C411.527 103.584 410.027 88.3597 412.949 73.6719C415.87 58.9841 423.082 45.4925 433.671 34.9032C444.26 24.3139 457.752 17.1024 472.44 14.1808C487.127 11.2593 502.352 12.7587 516.187 18.4896C530.023 24.2205 541.849 33.9255 550.168 46.3772C558.488 58.8289 562.929 73.4681 562.929 88.4437C562.907 108.518 554.922 127.764 540.727 141.959C526.532 156.154 507.286 164.139 487.211 164.161V164.161ZM487.211 13.7423C472.437 13.7423 457.994 18.1235 445.71 26.3318C433.425 34.5401 423.85 46.2068 418.196 59.8567C412.542 73.5066 411.063 88.5265 413.945 103.017C416.828 117.508 423.942 130.818 434.39 141.266C444.837 151.713 458.147 158.827 472.638 161.71C487.129 164.592 502.149 163.113 515.798 157.459C529.448 151.805 541.115 142.23 549.323 129.946C557.532 117.661 561.913 103.218 561.913 88.4437C561.89 68.6385 554.013 49.6509 540.009 35.6466C526.004 21.6422 507.017 13.7647 487.211 13.7423V13.7423Z" fill="#CCCCCC"/>
<path d="M487.211 82.8538C487.077 82.8538 486.947 82.8002 486.852 82.7049C486.757 82.6096 486.703 82.4804 486.703 82.3456V13.2341C486.703 13.0994 486.757 12.9701 486.852 12.8748C486.947 12.7795 487.077 12.726 487.211 12.726C487.346 12.726 487.476 12.7795 487.571 12.8748C487.666 12.9701 487.72 13.0994 487.72 13.2341V82.3456C487.72 82.4804 487.666 82.6096 487.571 82.7049C487.476 82.8002 487.346 82.8538 487.211 82.8538V82.8538Z" fill="#CCCCCC"/>
<path d="M562.421 88.9518H493.31C493.175 88.9518 493.046 88.8983 492.95 88.803C492.855 88.7077 492.801 88.5784 492.801 88.4437C492.801 88.3089 492.855 88.1796 492.95 88.0843C493.046 87.989 493.175 87.9355 493.31 87.9355H562.421C562.556 87.9355 562.685 87.989 562.78 88.0843C562.876 88.1796 562.929 88.3089 562.929 88.4437C562.929 88.5784 562.876 88.7077 562.78 88.803C562.685 88.8983 562.556 88.9518 562.421 88.9518Z" fill="#CCCCCC"/>
<path d="M481.113 88.9518H412.035C411.9 88.9518 411.771 88.8983 411.675 88.803C411.58 88.7077 411.527 88.5784 411.527 88.4437C411.527 88.3089 411.58 88.1796 411.675 88.0843C411.771 87.989 411.9 87.9355 412.035 87.9355H481.113C481.248 87.9355 481.377 87.989 481.473 88.0843C481.568 88.1796 481.622 88.3089 481.622 88.4437C481.622 88.5784 481.568 88.7077 481.473 88.803C481.377 88.8983 481.248 88.9518 481.113 88.9518V88.9518Z" fill="#CCCCCC"/>
<path d="M487.211 164.161C487.077 164.161 486.947 164.108 486.852 164.013C486.757 163.917 486.703 163.788 486.703 163.653V94.5417C486.703 94.407 486.757 94.2777 486.852 94.1824C486.947 94.0871 487.077 94.0336 487.211 94.0336C487.346 94.0336 487.476 94.0871 487.571 94.1824C487.666 94.2777 487.72 94.407 487.72 94.5417V163.653C487.72 163.788 487.666 163.917 487.571 164.013C487.476 164.108 487.346 164.161 487.211 164.161V164.161Z" fill="#CCCCCC"/>
<path d="M491.692 84.8224C491.592 84.8224 491.493 84.7926 491.41 84.7368C491.326 84.6809 491.261 84.6016 491.223 84.5087C491.184 84.4159 491.174 84.3137 491.194 84.2152C491.213 84.1166 491.262 84.0261 491.333 83.955L539.987 35.3007C540.082 35.206 540.211 35.153 540.346 35.1532C540.48 35.1535 540.609 35.207 540.704 35.302C540.799 35.3971 540.853 35.526 540.853 35.6604C540.853 35.7948 540.8 35.9239 540.706 36.0193L492.051 84.6736C492.004 84.7208 491.948 84.7583 491.887 84.7839C491.825 84.8094 491.759 84.8225 491.692 84.8224V84.8224Z" fill="#CCCCCC"/>
<path d="M482.731 84.8224C482.664 84.8225 482.598 84.8094 482.537 84.7839C482.475 84.7583 482.419 84.7208 482.372 84.6736L433.718 36.0193C433.623 35.9239 433.57 35.7948 433.57 35.6604C433.57 35.526 433.624 35.3971 433.719 35.302C433.814 35.207 433.943 35.1535 434.077 35.1532C434.212 35.153 434.341 35.206 434.436 35.3007L483.09 83.955C483.161 84.0261 483.21 84.1166 483.229 84.2152C483.249 84.3137 483.239 84.4159 483.201 84.5087C483.162 84.6016 483.097 84.6809 483.013 84.7368C482.93 84.7926 482.832 84.8224 482.731 84.8224Z" fill="#CCCCCC"/>
<path d="M540.346 141.736C540.279 141.736 540.213 141.723 540.152 141.697C540.09 141.671 540.034 141.634 539.987 141.587L491.333 92.9323C491.238 92.8369 491.185 92.7079 491.185 92.5734C491.185 92.439 491.239 92.3102 491.334 92.2151C491.429 92.1201 491.558 92.0665 491.692 92.0663C491.827 92.066 491.956 92.1191 492.051 92.2138L540.706 140.868C540.777 140.939 540.825 141.03 540.845 141.128C540.864 141.227 540.854 141.329 540.816 141.422C540.777 141.515 540.712 141.594 540.628 141.65C540.545 141.706 540.447 141.735 540.346 141.735V141.736Z" fill="#CCCCCC"/>
<path d="M434.077 141.736C433.976 141.736 433.878 141.706 433.795 141.65C433.711 141.594 433.646 141.515 433.607 141.422C433.569 141.329 433.559 141.227 433.578 141.128C433.598 141.03 433.646 140.939 433.718 140.868L482.372 92.2138C482.467 92.1185 482.596 92.0649 482.731 92.0649C482.866 92.0649 482.995 92.1185 483.09 92.2138C483.186 92.3091 483.239 92.4383 483.239 92.5731C483.239 92.7078 483.186 92.8371 483.09 92.9324L434.436 141.587C434.389 141.634 434.333 141.671 434.271 141.697C434.21 141.723 434.144 141.736 434.077 141.736V141.736Z" fill="#CCCCCC"/>
<path d="M487.212 140.531C476.91 140.531 466.839 137.476 458.273 131.753C449.707 126.029 443.031 117.895 439.089 108.377C435.146 98.859 434.115 88.3859 436.125 78.2819C438.135 68.1778 443.095 58.8967 450.38 51.6121C457.665 44.3275 466.946 39.3666 477.05 37.3568C487.154 35.347 497.627 36.3785 507.145 40.3209C516.662 44.2633 524.797 50.9395 530.521 59.5053C536.244 68.0711 539.299 78.1417 539.299 88.4437C539.284 102.253 533.791 115.493 524.026 125.258C514.261 135.023 501.021 140.516 487.212 140.531V140.531ZM487.212 37.3723C477.111 37.3723 467.236 40.3676 458.838 45.9794C450.439 51.5912 443.893 59.5675 440.028 68.8995C436.162 78.2316 435.151 88.5003 437.121 98.4072C439.092 108.314 443.956 117.414 451.099 124.557C458.241 131.699 467.341 136.563 477.248 138.534C487.155 140.504 497.424 139.493 506.756 135.627C516.088 131.762 524.064 125.216 529.676 116.817C535.288 108.419 538.283 98.5446 538.283 88.4437C538.268 74.9034 532.882 61.9221 523.308 52.3477C513.733 42.7733 500.752 37.3876 487.212 37.3723V37.3723Z" fill="#CCCCCC"/>
<path d="M487.212 94.5417C490.579 94.5417 493.31 91.8115 493.31 88.4437C493.31 85.0758 490.579 82.3456 487.212 82.3456C483.844 82.3456 481.113 85.0758 481.113 88.4437C481.113 91.8115 483.844 94.5417 487.212 94.5417Z" fill="#3F3D56"/>
<path d="M463.603 191.448L458.246 191.603L484.395 86.058L489.255 87.541L463.603 191.448Z" fill="#3F3D56"/>
<path d="M510.82 191.448L516.177 191.603L490.028 86.058L485.168 87.541L510.82 191.448Z" fill="#3F3D56"/>
<path d="M495.342 28.4793H478.573V37.6264H495.342V28.4793Z" fill="#CCCCCC"/>
<path d="M486.195 30.512H479.589V37.6264H486.195V30.512Z" fill="white"/>
<path d="M494.326 30.512H487.72V37.6264H494.326V30.512Z" fill="white"/>
<path d="M486.957 47.5358C484.398 47.5329 481.943 46.5147 480.133 44.7046C478.323 42.8945 477.305 40.4404 477.302 37.8805V37.6264C477.303 37.0201 477.544 36.4389 477.973 36.0102C478.401 35.5815 478.983 35.3403 479.589 35.3396H494.326C494.932 35.3403 495.513 35.5815 495.942 36.0102C496.371 36.4389 496.612 37.0201 496.613 37.6264V37.8805C496.61 40.4404 495.592 42.8945 493.782 44.7046C491.971 46.5147 489.517 47.5329 486.957 47.5358V47.5358Z" fill="#CCCCCC"/>
<path d="M494.714 30.7661H479.201C478.984 30.7661 478.771 30.7107 478.582 30.6053C478.393 30.4998 478.234 30.3478 478.12 30.1636C478.006 29.9793 477.941 29.7691 477.932 29.5527C477.922 29.3364 477.968 29.1211 478.064 28.9274L481.113 22.8294C481.218 22.6178 481.38 22.4399 481.581 22.3158C481.782 22.1917 482.014 22.1263 482.25 22.1271H491.665C491.901 22.1263 492.133 22.1917 492.334 22.3158C492.535 22.4399 492.697 22.6178 492.801 22.8294L495.85 28.9274C495.947 29.1211 495.993 29.3364 495.983 29.5527C495.974 29.7691 495.909 29.9793 495.795 30.1636C495.681 30.3478 495.522 30.4998 495.333 30.6053C495.144 30.7107 494.931 30.7661 494.714 30.7661H494.714Z" fill="#F50057"/>
<path d="M540.57 48.8062H523.8V57.9533H540.57V48.8062Z" fill="#CCCCCC"/>
<path d="M531.423 50.8389H524.816V57.9533H531.423V50.8389Z" fill="white"/>
<path d="M539.553 50.8389H532.947V57.9533H539.553V50.8389Z" fill="white"/>
<path d="M532.185 67.8627C529.625 67.8598 527.171 66.8416 525.361 65.0315C523.551 63.2214 522.532 60.7672 522.53 58.2074V57.9533C522.53 57.3471 522.771 56.7658 523.2 56.3371C523.629 55.9084 524.21 55.6672 524.816 55.6666H539.553C540.16 55.6672 540.741 55.9084 541.17 56.3371C541.598 56.7658 541.839 57.3471 541.84 57.9533V58.2074C541.837 60.7673 540.819 63.2214 539.009 65.0315C537.199 66.8416 534.745 67.8598 532.185 67.8627V67.8627Z" fill="#CCCCCC"/>
<path d="M527.477 42.9622C527.335 42.9618 527.197 43.001 527.076 43.0755C526.956 43.1499 526.858 43.2567 526.795 43.3836L523.746 49.4816C523.688 49.5978 523.661 49.727 523.667 49.8568C523.672 49.9866 523.711 50.1128 523.78 50.2233C523.848 50.3339 523.943 50.4251 524.057 50.4884C524.17 50.5516 524.298 50.5848 524.428 50.5848H539.941C540.071 50.5848 540.199 50.5516 540.313 50.4884C540.426 50.4251 540.522 50.3339 540.59 50.2233C540.658 50.1128 540.697 49.9866 540.703 49.8568C540.709 49.727 540.681 49.5978 540.623 49.4816L537.574 43.3836C537.511 43.2567 537.414 43.1499 537.294 43.0755C537.173 43.001 537.034 42.9618 536.892 42.9622H527.477Z" fill="#F50057"/>
<path d="M558.356 94.5417H541.586V103.689H558.356V94.5417Z" fill="#CCCCCC"/>
<path d="M549.209 96.5744H542.602V103.689H549.209V96.5744Z" fill="white"/>
<path d="M557.339 96.5744H550.733V103.689H557.339V96.5744Z" fill="white"/>
<path d="M549.971 113.598C547.411 113.595 544.957 112.577 543.147 110.767C541.337 108.957 540.319 106.503 540.316 103.943V103.689C540.316 103.083 540.557 102.501 540.986 102.073C541.415 101.644 541.996 101.403 542.602 101.402H557.339C557.946 101.403 558.527 101.644 558.956 102.073C559.384 102.501 559.625 103.083 559.626 103.689V103.943C559.623 106.503 558.605 108.957 556.795 110.767C554.985 112.577 552.531 113.595 549.971 113.598V113.598Z" fill="#CCCCCC"/>
<path d="M557.728 96.8285H542.214C541.998 96.8285 541.785 96.7732 541.595 96.6677C541.406 96.5623 541.247 96.4102 541.133 96.226C541.02 96.0418 540.955 95.8315 540.945 95.6151C540.935 95.3988 540.981 95.1835 541.078 94.9899L544.127 88.8918C544.232 88.6802 544.394 88.5023 544.595 88.3782C544.795 88.2541 545.027 88.1887 545.263 88.1896H554.679C554.915 88.1887 555.146 88.2541 555.347 88.3782C555.548 88.5023 555.71 88.6802 555.815 88.8918L558.864 94.9899C558.961 95.1835 559.006 95.3988 558.997 95.6151C558.987 95.8315 558.922 96.0418 558.808 96.226C558.694 96.4102 558.535 96.5623 558.346 96.6677C558.157 96.7732 557.944 96.8285 557.727 96.8285H557.728Z" fill="#F50057"/>
<path d="M539.553 137.228H522.784V146.375H539.553V137.228Z" fill="#CCCCCC"/>
<path d="M530.406 139.261H523.8V146.375H530.406V139.261Z" fill="white"/>
<path d="M538.537 139.261H531.931V146.375H538.537V139.261Z" fill="white"/>
<path d="M531.168 156.285C528.609 156.282 526.154 155.264 524.344 153.454C522.534 151.643 521.516 149.189 521.513 146.629V146.375C521.514 145.769 521.755 145.188 522.184 144.759C522.612 144.33 523.194 144.089 523.8 144.089H538.537C539.143 144.089 539.724 144.33 540.153 144.759C540.582 145.188 540.823 145.769 540.824 146.375V146.629C540.821 149.189 539.803 151.643 537.993 153.454C536.183 155.264 533.728 156.282 531.168 156.285V156.285Z" fill="#CCCCCC"/>
<path d="M538.925 139.515H523.412C523.195 139.515 522.982 139.46 522.793 139.354C522.604 139.249 522.445 139.097 522.331 138.913C522.217 138.728 522.152 138.518 522.143 138.302C522.133 138.085 522.179 137.87 522.275 137.676L525.324 131.578C525.429 131.367 525.591 131.189 525.792 131.065C525.993 130.941 526.225 130.875 526.461 130.876H535.876C536.112 130.875 536.344 130.941 536.545 131.065C536.746 131.189 536.908 131.367 537.012 131.578L540.061 137.676C540.158 137.87 540.204 138.085 540.194 138.302C540.185 138.518 540.12 138.728 540.006 138.913C539.892 139.097 539.733 139.249 539.544 139.354C539.355 139.46 539.142 139.515 538.925 139.515H538.925Z" fill="#F50057"/>
<path d="M433.853 57.9533H450.623V48.8062H433.853V57.9533Z" fill="#CCCCCC"/>
<path d="M443.001 57.9533H449.607V50.8389H443.001V57.9533Z" fill="white"/>
<path d="M434.87 57.9533H441.476V50.8389H434.87V57.9533Z" fill="white"/>
<path d="M442.238 67.8627C439.678 67.8598 437.224 66.8416 435.414 65.0315C433.604 63.2214 432.586 60.7672 432.583 58.2074V57.9533C432.584 57.3471 432.825 56.7658 433.254 56.3371C433.682 55.9084 434.263 55.6672 434.87 55.6666H449.607C450.213 55.6672 450.794 55.9084 451.223 56.3371C451.652 56.7658 451.893 57.3471 451.894 57.9533V58.2074C451.891 60.7673 450.872 63.2214 449.062 65.0315C447.252 66.8416 444.798 67.8598 442.238 67.8627V67.8627Z" fill="#CCCCCC"/>
<path d="M449.995 51.093H434.482C434.265 51.093 434.052 51.0377 433.863 50.9322C433.674 50.8267 433.515 50.6747 433.401 50.4905C433.287 50.3062 433.222 50.096 433.212 49.8796C433.203 49.6633 433.248 49.448 433.345 49.2543L436.394 43.1563C436.499 42.9447 436.661 42.7668 436.862 42.6427C437.063 42.5186 437.294 42.4532 437.531 42.454H446.946C447.182 42.4532 447.414 42.5186 447.614 42.6427C447.815 42.7668 447.977 42.9447 448.082 43.1563L451.131 49.2543C451.228 49.448 451.274 49.6633 451.264 49.8796C451.254 50.096 451.19 50.3062 451.076 50.4905C450.962 50.6747 450.803 50.8267 450.614 50.9322C450.424 51.0377 450.211 51.093 449.995 51.093H449.995Z" fill="#F50057"/>
<path d="M416.067 103.689H432.837V94.5417H416.067V103.689Z" fill="#CCCCCC"/>
<path d="M425.214 103.689H431.821V96.5744H425.214V103.689Z" fill="white"/>
<path d="M417.084 103.689H423.69V96.5744H417.084V103.689Z" fill="white"/>
<path d="M424.452 113.598C421.892 113.595 419.438 112.577 417.628 110.767C415.818 108.957 414.8 106.503 414.797 103.943V103.689C414.798 103.083 415.039 102.501 415.467 102.073C415.896 101.644 416.477 101.403 417.084 101.402H431.821C432.427 101.403 433.008 101.644 433.437 102.073C433.866 102.501 434.107 103.083 434.107 103.689V103.943C434.105 106.503 433.086 108.957 431.276 110.767C429.466 112.577 427.012 113.595 424.452 113.598Z" fill="#CCCCCC"/>
<path d="M432.209 96.8285H416.696C416.479 96.8285 416.266 96.7732 416.077 96.6677C415.888 96.5623 415.729 96.4102 415.615 96.226C415.501 96.0418 415.436 95.8315 415.426 95.6151C415.417 95.3988 415.462 95.1835 415.559 94.9899L418.608 88.8918C418.713 88.6802 418.875 88.5023 419.076 88.3782C419.277 88.2541 419.508 88.1887 419.745 88.1896H429.16C429.396 88.1887 429.628 88.2541 429.828 88.3782C430.029 88.5023 430.191 88.6802 430.296 88.8918L433.345 94.9899C433.442 95.1835 433.488 95.3988 433.478 95.6151C433.468 95.8315 433.403 96.0418 433.29 96.226C433.176 96.4102 433.017 96.5623 432.828 96.6677C432.638 96.7732 432.425 96.8285 432.209 96.8285H432.209Z" fill="#F50057"/>
<path d="M434.87 146.375H451.639V137.228H434.87V146.375Z" fill="#CCCCCC"/>
<path d="M444.017 146.375H450.623V139.261H444.017V146.375Z" fill="white"/>
<path d="M435.886 146.375H442.492V139.261H435.886V146.375Z" fill="white"/>
<path d="M443.255 156.285C440.695 156.282 438.241 155.264 436.431 153.454C434.62 151.643 433.602 149.189 433.599 146.629V146.375C433.6 145.769 433.841 145.188 434.27 144.759C434.699 144.33 435.28 144.089 435.886 144.089H450.623C451.229 144.089 451.811 144.33 452.239 144.759C452.668 145.188 452.909 145.769 452.91 146.375V146.629C452.907 149.189 451.889 151.643 450.079 153.454C448.269 155.264 445.814 156.282 443.255 156.285V156.285Z" fill="#CCCCCC"/>
<path d="M451.011 139.515H435.498C435.281 139.515 435.068 139.46 434.879 139.354C434.69 139.249 434.531 139.097 434.417 138.913C434.303 138.728 434.238 138.518 434.229 138.302C434.219 138.085 434.265 137.87 434.362 137.676L437.411 131.578C437.515 131.367 437.678 131.189 437.878 131.065C438.079 130.941 438.311 130.875 438.547 130.876H447.962C448.198 130.875 448.43 130.941 448.631 131.065C448.832 131.189 448.994 131.367 449.099 131.578L452.148 137.676C452.244 137.87 452.29 138.085 452.28 138.302C452.271 138.518 452.206 138.728 452.092 138.913C451.978 139.097 451.819 139.249 451.63 139.354C451.441 139.46 451.228 139.515 451.011 139.515H451.011Z" fill="#F50057"/>
<path d="M495.342 156.539H478.573V165.686H495.342V156.539Z" fill="#CCCCCC"/>
<path d="M486.195 158.571H479.589V165.686H486.195V158.571Z" fill="white"/>
<path d="M494.326 158.571H487.72V165.686H494.326V158.571Z" fill="white"/>
<path d="M479.589 163.907C479.117 163.908 478.665 164.095 478.332 164.429C477.998 164.762 477.811 165.214 477.81 165.686V165.94C477.809 167.142 478.045 168.333 478.504 169.443C478.963 170.554 479.637 171.564 480.486 172.414C481.336 173.265 482.344 173.939 483.455 174.4C484.565 174.86 485.755 175.097 486.957 175.097C488.159 175.097 489.35 174.86 490.46 174.4C491.571 173.939 492.579 173.265 493.429 172.414C494.278 171.564 494.952 170.554 495.411 169.443C495.87 168.333 496.106 167.142 496.105 165.94V165.686C496.104 165.214 495.916 164.762 495.583 164.429C495.25 164.095 494.798 163.908 494.326 163.907H479.589Z" fill="#CCCCCC"/>
<path d="M482.25 150.695C482.108 150.694 481.969 150.734 481.849 150.808C481.728 150.883 481.631 150.989 481.568 151.116L478.519 157.214C478.461 157.33 478.433 157.46 478.439 157.589C478.445 157.719 478.484 157.845 478.552 157.956C478.621 158.066 478.716 158.158 478.83 158.221C478.943 158.284 479.071 158.317 479.201 158.317H494.714C494.844 158.317 494.972 158.284 495.085 158.221C495.199 158.158 495.294 158.066 495.363 157.956C495.431 157.845 495.47 157.719 495.476 157.589C495.482 157.46 495.454 157.33 495.396 157.214L492.347 151.116C492.284 150.989 492.187 150.883 492.066 150.808C491.946 150.734 491.807 150.694 491.665 150.695H482.25Z" fill="#F50057"/>
<path d="M263.235 283.357C263.387 283.357 263.532 283.297 263.64 283.189C263.748 283.082 263.808 282.936 263.808 282.784C263.808 282.632 263.748 282.486 263.64 282.378C263.532 282.271 263.387 282.21 263.235 282.21H257.787V279.917H263.235C263.387 279.917 263.532 279.856 263.64 279.749C263.748 279.641 263.808 279.496 263.808 279.343C263.808 279.191 263.748 279.046 263.64 278.938C263.532 278.83 263.387 278.77 263.235 278.77H216.789C216.637 278.77 216.491 278.83 216.384 278.938C216.276 279.046 216.216 279.191 216.216 279.343C216.216 279.496 216.276 279.641 216.384 279.749C216.491 279.856 216.637 279.917 216.789 279.917H222.236V282.21H216.789C216.637 282.21 216.491 282.271 216.384 282.378C216.276 282.486 216.216 282.632 216.216 282.784C216.216 282.936 216.276 283.082 216.384 283.189C216.491 283.297 216.637 283.357 216.789 283.357H222.236V285.651H216.789C216.637 285.651 216.491 285.711 216.384 285.819C216.276 285.926 216.216 286.072 216.216 286.224C216.216 286.376 216.276 286.522 216.384 286.63C216.491 286.737 216.637 286.798 216.789 286.798H222.236V289.091H217.363C217.058 289.091 216.767 289.212 216.552 289.427C216.337 289.642 216.216 289.934 216.216 290.238C216.216 290.542 216.337 290.834 216.552 291.049C216.767 291.264 217.058 291.385 217.363 291.385H222.002C221.969 291.477 221.951 291.574 221.95 291.672V299.699C221.95 299.927 222.04 300.146 222.202 300.307C222.363 300.469 222.582 300.559 222.81 300.559C223.038 300.559 223.257 300.469 223.418 300.307C223.579 300.146 223.67 299.927 223.67 299.699V291.672C223.669 291.574 223.651 291.477 223.617 291.385H256.406C256.372 291.477 256.355 291.574 256.354 291.672V299.699C256.354 299.927 256.444 300.146 256.606 300.307C256.767 300.469 256.986 300.559 257.214 300.559C257.442 300.559 257.661 300.469 257.822 300.307C257.983 300.146 258.074 299.927 258.074 299.699V291.672C258.073 291.574 258.055 291.477 258.021 291.385H262.661C262.965 291.385 263.257 291.264 263.472 291.049C263.687 290.834 263.808 290.542 263.808 290.238C263.808 289.934 263.687 289.642 263.472 289.427C263.257 289.212 262.965 289.091 262.661 289.091H257.787V286.798H263.235C263.387 286.798 263.532 286.737 263.64 286.63C263.748 286.522 263.808 286.376 263.808 286.224C263.808 286.072 263.748 285.926 263.64 285.819C263.532 285.711 263.387 285.651 263.235 285.651H257.787V283.357H263.235ZM223.383 279.917H256.64V282.21H223.383V279.917ZM256.64 289.091H223.383V286.798H256.64V289.091ZM256.64 285.651H223.383V283.357H256.64V285.651Z" fill="#3F3D56"/>
<path d="M442.416 351.985C442.568 351.985 442.714 351.925 442.822 351.817C442.929 351.709 442.99 351.564 442.99 351.412C442.99 351.259 442.929 351.114 442.822 351.006C442.714 350.899 442.568 350.838 442.416 350.838H436.969V348.545H442.416C442.568 348.545 442.714 348.484 442.822 348.377C442.929 348.269 442.99 348.123 442.99 347.971C442.99 347.819 442.929 347.673 442.822 347.566C442.714 347.458 442.568 347.398 442.416 347.398H395.971C395.819 347.398 395.673 347.458 395.566 347.566C395.458 347.673 395.398 347.819 395.398 347.971C395.398 348.123 395.458 348.269 395.566 348.377C395.673 348.484 395.819 348.545 395.971 348.545H401.418V350.838H395.971C395.819 350.838 395.673 350.899 395.566 351.006C395.458 351.114 395.398 351.259 395.398 351.412C395.398 351.564 395.458 351.709 395.566 351.817C395.673 351.925 395.819 351.985 395.971 351.985H401.418V354.279H395.971C395.819 354.279 395.673 354.339 395.566 354.447C395.458 354.554 395.398 354.7 395.398 354.852C395.398 355.004 395.458 355.15 395.566 355.257C395.673 355.365 395.819 355.425 395.971 355.425H401.418V357.719H396.544C396.24 357.719 395.949 357.84 395.734 358.055C395.518 358.27 395.398 358.562 395.398 358.866C395.398 359.17 395.518 359.462 395.734 359.677C395.949 359.892 396.24 360.013 396.544 360.013H401.184C401.15 360.104 401.133 360.201 401.132 360.299V368.327C401.131 368.44 401.153 368.552 401.196 368.657C401.239 368.762 401.303 368.857 401.383 368.937C401.462 369.017 401.557 369.081 401.662 369.124C401.766 369.168 401.879 369.19 401.992 369.19C402.105 369.19 402.217 369.168 402.322 369.124C402.426 369.081 402.521 369.017 402.601 368.937C402.681 368.857 402.744 368.762 402.787 368.657C402.83 368.552 402.852 368.44 402.852 368.327V360.299C402.851 360.201 402.833 360.104 402.799 360.013H435.588C435.554 360.104 435.537 360.201 435.536 360.299V368.327C435.536 368.555 435.626 368.774 435.787 368.935C435.949 369.096 436.168 369.187 436.396 369.187C436.624 369.187 436.843 369.096 437.004 368.935C437.165 368.774 437.256 368.555 437.256 368.327V360.299C437.255 360.201 437.237 360.104 437.203 360.013H441.843C442.147 360.013 442.439 359.892 442.654 359.677C442.869 359.462 442.99 359.17 442.99 358.866C442.99 358.562 442.869 358.27 442.654 358.055C442.439 357.84 442.147 357.719 441.843 357.719H436.969V355.425H442.416C442.568 355.425 442.714 355.365 442.822 355.257C442.929 355.15 442.99 355.004 442.99 354.852C442.99 354.7 442.929 354.554 442.822 354.446C442.714 354.339 442.568 354.279 442.416 354.279H436.969V351.985L442.416 351.985ZM402.565 348.545H435.822V350.838H402.565V348.545ZM435.822 357.719H402.565V355.425H435.822V357.719ZM435.822 354.279H402.565V351.985H435.822V354.279Z" fill="#3F3D56"/>
<path d="M586.949 276.743C587.101 276.743 587.247 276.682 587.354 276.575C587.462 276.467 587.522 276.321 587.522 276.169C587.522 276.017 587.462 275.871 587.354 275.764C587.247 275.656 587.101 275.596 586.949 275.596H581.502V273.302H586.949C587.101 273.302 587.247 273.242 587.354 273.134C587.462 273.027 587.522 272.881 587.522 272.729C587.522 272.577 587.462 272.431 587.354 272.323C587.247 272.216 587.101 272.155 586.949 272.155H540.504C540.352 272.155 540.206 272.216 540.098 272.323C539.991 272.431 539.93 272.577 539.93 272.729C539.93 272.881 539.991 273.027 540.098 273.134C540.206 273.242 540.352 273.302 540.504 273.302H545.951V275.596H540.504C540.352 275.596 540.206 275.656 540.098 275.764C539.991 275.871 539.93 276.017 539.93 276.169C539.93 276.321 539.991 276.467 540.098 276.575C540.206 276.682 540.352 276.743 540.504 276.743H545.951V279.036H540.504C540.352 279.036 540.206 279.097 540.098 279.204C539.991 279.312 539.93 279.457 539.93 279.61C539.93 279.762 539.991 279.907 540.098 280.015C540.206 280.123 540.352 280.183 540.504 280.183H545.951V282.477H541.077C540.773 282.477 540.483 282.599 540.268 282.814C540.054 283.029 539.934 283.32 539.934 283.623C539.934 283.927 540.054 284.218 540.268 284.433C540.483 284.648 540.773 284.769 541.077 284.77H545.717C545.683 284.862 545.665 284.959 545.664 285.057V293.084C545.664 293.313 545.755 293.531 545.916 293.693C546.077 293.854 546.296 293.945 546.524 293.945C546.752 293.945 546.971 293.854 547.132 293.693C547.294 293.531 547.384 293.313 547.384 293.084V285.057C547.383 284.959 547.366 284.862 547.332 284.77H580.121C580.087 284.862 580.069 284.959 580.068 285.057V293.084C580.068 293.313 580.159 293.531 580.32 293.693C580.481 293.854 580.7 293.945 580.928 293.945C581.156 293.945 581.375 293.854 581.536 293.693C581.698 293.531 581.788 293.313 581.788 293.084V285.057C581.787 284.959 581.769 284.862 581.736 284.77H586.375C586.526 284.771 586.676 284.741 586.815 284.684C586.955 284.626 587.082 284.542 587.189 284.435C587.295 284.329 587.38 284.202 587.438 284.063C587.496 283.924 587.526 283.774 587.526 283.623C587.526 283.472 587.496 283.323 587.438 283.184C587.38 283.044 587.295 282.918 587.189 282.811C587.082 282.705 586.955 282.62 586.815 282.563C586.676 282.505 586.526 282.476 586.375 282.477H581.502V280.183H586.949C587.101 280.183 587.247 280.123 587.354 280.015C587.462 279.907 587.522 279.762 587.522 279.61C587.522 279.457 587.462 279.312 587.354 279.204C587.247 279.097 587.101 279.036 586.949 279.036H581.502V276.743H586.949ZM547.098 273.302H580.355V275.596H547.098V273.302ZM580.355 282.477H547.098V280.183H580.355V282.477ZM580.355 279.036H547.098V276.743H580.355V279.036Z" fill="#3F3D56"/>
<path d="M369.273 420.918C369.273 406.212 357.344 371.318 342.628 371.318C327.913 371.318 315.984 406.212 315.984 420.918C315.989 427.981 318.798 434.754 323.794 439.747C328.79 444.74 335.565 447.545 342.628 447.545C349.692 447.545 356.467 444.74 361.463 439.747C366.459 434.754 369.268 427.981 369.273 420.918V420.918Z" fill="#F2F2F2"/>
<path d="M342.628 479.918C342.548 479.918 342.47 479.886 342.413 479.829C342.356 479.772 342.324 479.695 342.324 479.614V417.415C342.324 417.375 342.331 417.335 342.346 417.298C342.362 417.261 342.384 417.227 342.412 417.199C342.441 417.17 342.474 417.148 342.511 417.132C342.548 417.117 342.588 417.109 342.628 417.109C342.669 417.109 342.708 417.117 342.745 417.132C342.782 417.148 342.816 417.17 342.844 417.199C342.873 417.227 342.895 417.261 342.91 417.298C342.926 417.335 342.933 417.375 342.933 417.415V479.614C342.933 479.695 342.901 479.772 342.844 479.829C342.787 479.886 342.709 479.918 342.628 479.918V479.918Z" fill="#CCCCCC"/>
<path d="M342.629 429.036C342.585 429.036 342.542 429.027 342.502 429.009C342.462 428.99 342.427 428.964 342.398 428.931L327.074 411.259C327.022 411.198 326.996 411.119 327.002 411.038C327.008 410.958 327.045 410.883 327.106 410.831C327.167 410.778 327.246 410.751 327.327 410.757C327.407 410.762 327.482 410.799 327.535 410.86L342.859 428.532C342.897 428.576 342.922 428.63 342.93 428.688C342.938 428.746 342.93 428.805 342.906 428.858C342.881 428.911 342.842 428.956 342.793 428.988C342.744 429.019 342.687 429.036 342.629 429.036V429.036Z" fill="#CCCCCC"/>
<path d="M342.628 439.235C342.568 439.235 342.509 439.217 342.459 439.183C342.409 439.15 342.37 439.102 342.347 439.047C342.324 438.991 342.318 438.93 342.33 438.871C342.341 438.811 342.37 438.757 342.413 438.715L351.12 430.007C351.177 429.95 351.255 429.918 351.336 429.918C351.416 429.918 351.494 429.95 351.551 430.007C351.608 430.064 351.64 430.142 351.64 430.223C351.64 430.303 351.608 430.381 351.551 430.438L342.844 439.145C342.816 439.174 342.782 439.196 342.745 439.212C342.708 439.227 342.668 439.235 342.628 439.235V439.235Z" fill="#CCCCCC"/>
<path d="M88.4984 191.351C88.4176 191.351 88.3401 191.319 88.283 191.262C88.2258 191.205 88.1938 191.127 88.1937 191.047V128.848C88.1942 128.767 88.2265 128.69 88.2836 128.634C88.3407 128.577 88.4179 128.545 88.4984 128.545C88.5789 128.545 88.6562 128.577 88.7133 128.634C88.7704 128.69 88.8027 128.767 88.8031 128.848V191.047C88.8031 191.087 88.7952 191.126 88.7799 191.163C88.7646 191.2 88.7422 191.234 88.7139 191.262C88.6856 191.29 88.652 191.313 88.615 191.328C88.5781 191.343 88.5385 191.351 88.4984 191.351Z" fill="#CCCCCC"/>
<path d="M88.4986 140.469C88.4549 140.469 88.4117 140.46 88.3719 140.441C88.3322 140.423 88.2968 140.397 88.2682 140.364L72.9445 122.692C72.8919 122.631 72.8656 122.551 72.8714 122.471C72.8772 122.391 72.9148 122.316 72.9757 122.263C73.0366 122.21 73.1161 122.183 73.1965 122.189C73.277 122.195 73.352 122.232 73.405 122.293L88.7287 139.965C88.7669 140.009 88.7917 140.063 88.8 140.121C88.8083 140.178 88.7998 140.237 88.7756 140.291C88.7514 140.344 88.7124 140.389 88.6633 140.42C88.6142 140.452 88.557 140.469 88.4986 140.469V140.469Z" fill="#CCCCCC"/>
<path d="M88.4984 150.667C88.4382 150.667 88.3793 150.65 88.3292 150.616C88.2791 150.583 88.24 150.535 88.217 150.479C88.1939 150.424 88.1879 150.362 88.1996 150.303C88.2114 150.244 88.2404 150.19 88.283 150.147L96.9902 141.44C97.0185 141.412 97.0521 141.389 97.089 141.374C97.126 141.359 97.1656 141.351 97.2056 141.351C97.2456 141.351 97.2852 141.359 97.3222 141.374C97.3591 141.389 97.3927 141.412 97.421 141.44C97.4493 141.468 97.4718 141.502 97.4871 141.539C97.5024 141.576 97.5103 141.615 97.5103 141.655C97.5103 141.695 97.5024 141.735 97.4871 141.772C97.4718 141.809 97.4493 141.843 97.421 141.871L88.7138 150.578C88.6856 150.607 88.652 150.629 88.6151 150.644C88.5781 150.66 88.5384 150.668 88.4984 150.667Z" fill="#CCCCCC"/>
<path d="M59.6402 190.948C59.6402 187.997 60.8121 185.168 62.8981 183.082C64.9841 180.996 67.8134 179.824 70.7634 179.824C73.7135 179.824 76.5428 180.996 78.6288 183.082C80.7148 185.168 81.8867 187.997 81.8867 190.948" fill="#F2F2F2"/>
<path d="M70.7635 190.948C70.6837 190.948 70.6073 190.916 70.5509 190.859C70.4945 190.803 70.4628 190.727 70.4628 190.647V184.785C70.4628 184.705 70.4945 184.628 70.5509 184.572C70.6072 184.516 70.6837 184.484 70.7635 184.484C70.8432 184.484 70.9197 184.516 70.976 184.572C71.0324 184.628 71.0641 184.705 71.0641 184.785V190.647C71.0641 190.727 71.0324 190.803 70.976 190.859C70.9197 190.916 70.8432 190.948 70.7635 190.948Z" fill="#CCCCCC"/>
<path d="M70.7633 188.933C70.6915 188.933 70.622 188.907 70.5676 188.861L66.9601 185.764C66.9302 185.739 66.9055 185.707 66.8877 185.672C66.8699 185.637 66.8591 185.598 66.8561 185.559C66.8531 185.52 66.8579 185.48 66.8702 185.443C66.8825 185.405 66.9021 185.37 66.9278 185.34C66.9535 185.31 66.9849 185.286 67.0201 185.268C67.0553 185.25 67.0937 185.239 67.1331 185.236C67.1724 185.233 67.212 185.238 67.2495 185.251C67.287 185.263 67.3217 185.282 67.3517 185.308L70.9593 188.404C71.0059 188.444 71.0391 188.498 71.0545 188.557C71.0699 188.617 71.0667 188.679 71.0453 188.737C71.024 188.795 70.9855 188.844 70.9351 188.879C70.8846 188.914 70.8247 188.933 70.7633 188.933H70.7633Z" fill="#CCCCCC"/>
<path d="M93.9119 190.948C93.9119 187.997 95.0838 185.168 97.1698 183.082C99.2558 180.996 102.085 179.824 105.035 179.824C107.985 179.824 110.814 180.996 112.901 183.082C114.987 185.168 116.158 187.997 116.158 190.948" fill="#F2F2F2"/>
<path d="M105.035 190.948C104.955 190.948 104.879 190.916 104.823 190.859C104.766 190.803 104.735 190.727 104.735 190.647V184.785C104.735 184.705 104.766 184.628 104.823 184.572C104.879 184.516 104.955 184.484 105.035 184.484C105.115 184.484 105.191 184.516 105.248 184.572C105.304 184.628 105.336 184.705 105.336 184.785V190.647C105.336 190.727 105.304 190.803 105.248 190.859C105.191 190.916 105.115 190.948 105.035 190.948V190.948Z" fill="#CCCCCC"/>
<path d="M105.035 188.933C104.963 188.933 104.894 188.907 104.839 188.861L101.232 185.764C101.172 185.712 101.135 185.639 101.129 185.559C101.123 185.48 101.149 185.402 101.201 185.341C101.252 185.281 101.326 185.244 101.405 185.238C101.484 185.231 101.563 185.257 101.623 185.308L105.231 188.404C105.278 188.444 105.311 188.498 105.326 188.557C105.342 188.617 105.338 188.679 105.317 188.737C105.296 188.795 105.257 188.844 105.207 188.879C105.156 188.914 105.096 188.933 105.035 188.933V188.933Z" fill="#CCCCCC"/>
<path d="M648.269 479.092C648.188 479.092 648.111 479.06 648.054 479.002C647.997 478.945 647.964 478.868 647.964 478.787V416.588C647.964 416.548 647.972 416.508 647.987 416.471C648.002 416.434 648.025 416.4 648.053 416.372C648.081 416.343 648.115 416.321 648.152 416.305C648.189 416.29 648.229 416.282 648.269 416.282C648.309 416.282 648.349 416.29 648.386 416.305C648.423 416.321 648.457 416.343 648.485 416.372C648.514 416.4 648.536 416.434 648.551 416.471C648.566 416.508 648.574 416.548 648.574 416.588V478.787C648.574 478.868 648.542 478.945 648.485 479.002C648.427 479.06 648.35 479.092 648.269 479.092V479.092Z" fill="#CCCCCC"/>
<path d="M648.269 428.209C648.226 428.209 648.182 428.2 648.143 428.182C648.103 428.164 648.068 428.137 648.039 428.104L632.715 410.432C632.663 410.371 632.637 410.292 632.643 410.212C632.649 410.131 632.686 410.057 632.747 410.004C632.808 409.951 632.887 409.924 632.967 409.93C633.048 409.935 633.123 409.973 633.176 410.033L648.499 427.705C648.538 427.749 648.562 427.803 648.571 427.861C648.579 427.919 648.571 427.978 648.546 428.031C648.522 428.084 648.483 428.129 648.434 428.161C648.385 428.192 648.328 428.209 648.269 428.209V428.209Z" fill="#CCCCCC"/>
<path d="M648.269 438.408C648.209 438.408 648.15 438.39 648.1 438.356C648.05 438.323 648.011 438.275 647.988 438.22C647.965 438.164 647.959 438.103 647.97 438.044C647.982 437.985 648.011 437.93 648.054 437.888L656.761 429.18C656.789 429.152 656.823 429.13 656.86 429.114C656.897 429.099 656.936 429.091 656.976 429.091C657.016 429.091 657.056 429.099 657.093 429.114C657.13 429.13 657.163 429.152 657.192 429.18C657.22 429.209 657.242 429.242 657.258 429.279C657.273 429.316 657.281 429.356 657.281 429.396C657.281 429.436 657.273 429.475 657.258 429.512C657.242 429.549 657.22 429.583 657.192 429.611L648.485 438.319C648.456 438.347 648.423 438.369 648.386 438.385C648.349 438.4 648.309 438.408 648.269 438.408V438.408Z" fill="#CCCCCC"/>
<path d="M256.671 424.753H251.507C251.122 424.752 250.753 424.599 250.481 424.327C250.209 424.055 250.056 423.685 250.055 423.3V416.523C250.056 416.138 250.209 415.769 250.481 415.497C250.753 415.224 251.122 415.071 251.507 415.071H256.671C257.056 415.071 257.425 415.224 257.697 415.497C257.97 415.769 258.123 416.138 258.123 416.523V423.3C258.123 423.685 257.97 424.055 257.697 424.327C257.425 424.599 257.056 424.752 256.671 424.753V424.753Z" fill="#3F3D56"/>
<path d="M300.239 479.939H273.775C273.048 479.938 272.351 479.649 271.837 479.134C271.322 478.62 271.033 477.923 271.032 477.196V425.882C271.033 425.155 271.322 424.458 271.837 423.943C272.351 423.429 273.048 423.14 273.775 423.139H300.239C300.966 423.14 301.664 423.429 302.178 423.943C302.692 424.458 302.981 425.155 302.982 425.882V477.196C302.981 477.923 302.692 478.62 302.178 479.134C301.664 479.649 300.966 479.938 300.239 479.939Z" fill="#3F3D56"/>
<path d="M284.425 479.939H238.598C237.871 479.938 237.174 479.649 236.66 479.134C236.145 478.62 235.856 477.923 235.855 477.196V425.882C235.856 425.155 236.145 424.458 236.66 423.943C237.174 423.429 237.871 423.14 238.598 423.139H284.425C285.153 423.14 285.85 423.429 286.364 423.943C286.878 424.458 287.168 425.155 287.169 425.882V477.196C287.168 477.923 286.878 478.62 286.364 479.134C285.85 479.649 285.153 479.938 284.425 479.939Z" fill="#F50057"/>
<path d="M251.83 424.753H246.666C246.281 424.752 245.912 424.599 245.64 424.327C245.368 424.055 245.215 423.685 245.214 423.3V416.523C245.215 416.138 245.368 415.769 245.64 415.497C245.912 415.224 246.281 415.071 246.666 415.071H251.83C252.215 415.071 252.584 415.224 252.857 415.497C253.129 415.769 253.282 416.138 253.282 416.523V423.3C253.282 423.685 253.129 424.055 252.857 424.327C252.584 424.599 252.215 424.752 251.83 424.753V424.753Z" fill="#F50057"/>
<path d="M258.607 448.473H252.476C252.262 448.473 252.057 448.388 251.905 448.236C251.754 448.085 251.669 447.88 251.669 447.666V438.307C251.669 438.093 251.754 437.888 251.905 437.737C252.057 437.586 252.262 437.501 252.476 437.5H258.607C258.821 437.501 259.026 437.586 259.178 437.737C259.329 437.888 259.414 438.093 259.414 438.307V447.666C259.414 447.88 259.329 448.085 259.178 448.236C259.026 448.388 258.821 448.473 258.607 448.473V448.473Z" fill="white"/>
<path d="M270.548 448.473H264.416C264.203 448.473 263.997 448.388 263.846 448.236C263.695 448.085 263.61 447.88 263.61 447.666V438.307C263.61 438.093 263.695 437.888 263.846 437.737C263.997 437.586 264.203 437.501 264.416 437.5H270.548C270.762 437.501 270.967 437.586 271.118 437.737C271.27 437.888 271.355 438.093 271.355 438.307V447.666C271.355 447.88 271.27 448.085 271.118 448.236C270.967 448.388 270.762 448.473 270.548 448.473V448.473Z" fill="white"/>
<path d="M258.607 465.577H252.476C252.262 465.577 252.057 465.492 251.905 465.341C251.754 465.19 251.669 464.985 251.669 464.771V455.412C251.669 455.198 251.754 454.993 251.905 454.841C252.057 454.69 252.262 454.605 252.476 454.605H258.607C258.821 454.605 259.026 454.69 259.178 454.841C259.329 454.993 259.414 455.198 259.414 455.412V464.771C259.414 464.985 259.329 465.19 259.178 465.341C259.026 465.492 258.821 465.577 258.607 465.577V465.577Z" fill="white"/>
<path d="M270.548 465.577H264.416C264.203 465.577 263.997 465.492 263.846 465.341C263.695 465.19 263.61 464.985 263.61 464.771V455.412C263.61 455.198 263.695 454.993 263.846 454.841C263.997 454.69 264.203 454.605 264.416 454.605H270.548C270.762 454.605 270.967 454.69 271.118 454.841C271.27 454.993 271.355 455.198 271.355 455.412V464.771C271.355 464.985 271.27 465.19 271.118 465.341C270.967 465.492 270.762 465.577 270.548 465.577V465.577Z" fill="white"/>
<path d="M228.119 56.5096H222.029C221.575 56.509 221.139 56.3284 220.818 56.0073C220.497 55.6862 220.316 55.2508 220.316 54.7967V40.7129C220.316 40.2588 220.497 39.8234 220.818 39.5023C221.139 39.1811 221.575 39.0005 222.029 39H228.119C228.573 39.0005 229.009 39.1811 229.33 39.5023C229.651 39.8234 229.832 40.2588 229.832 40.7129V54.7967C229.832 55.2508 229.651 55.6862 229.33 56.0073C229.009 56.3284 228.573 56.509 228.119 56.5096V56.5096Z" fill="#3F3D56"/>
<path d="M252.1 187.831H220.887C220.029 187.83 219.207 187.489 218.6 186.883C217.994 186.276 217.652 185.454 217.651 184.596V58.6031C217.652 57.7453 217.994 56.9229 218.6 56.3163C219.207 55.7098 220.029 55.3686 220.887 55.3676H252.1C252.957 55.3686 253.78 55.7098 254.386 56.3163C254.993 56.9229 255.334 57.7453 255.335 58.6031V184.596C255.334 185.454 254.993 186.276 254.386 186.883C253.78 187.489 252.957 187.83 252.1 187.831V187.831Z" fill="#3F3D56"/>
<path d="M233.448 187.831H202.235C201.378 187.83 200.555 187.489 199.949 186.883C199.342 186.276 199.001 185.454 199 184.596V58.6031C199.001 57.7453 199.342 56.9229 199.949 56.3163C200.555 55.7098 201.378 55.3686 202.235 55.3676H233.448C234.306 55.3686 235.128 55.7098 235.735 56.3163C236.341 56.9229 236.683 57.7453 236.684 58.6031V184.596C236.683 185.454 236.341 186.276 235.735 186.883C235.128 187.489 234.306 187.83 233.448 187.831V187.831Z" fill="#F50057"/>
<path d="M222.41 56.5096H216.319C215.865 56.509 215.43 56.3284 215.109 56.0073C214.787 55.6862 214.607 55.2508 214.606 54.7967V40.7129C214.607 40.2588 214.787 39.8234 215.109 39.5023C215.43 39.1811 215.865 39.0005 216.319 39H222.41C222.864 39.0005 223.299 39.1811 223.62 39.5023C223.941 39.8234 224.122 40.2588 224.122 40.7129V54.7967C224.122 55.2508 223.941 55.6862 223.62 56.0073C223.299 56.3284 222.864 56.509 222.41 56.5096Z" fill="#F50057"/>
<path d="M214.416 83.9158H207.184C206.932 83.9155 206.69 83.8152 206.511 83.6368C206.333 83.4584 206.232 83.2165 206.232 82.9642V71.9256C206.232 71.6733 206.333 71.4314 206.511 71.253C206.69 71.0746 206.932 70.9743 207.184 70.974H214.416C214.668 70.9743 214.91 71.0746 215.089 71.253C215.267 71.4314 215.367 71.6733 215.368 71.9256V82.9642C215.367 83.2165 215.267 83.4584 215.089 83.6368C214.91 83.8152 214.668 83.9155 214.416 83.9158V83.9158Z" fill="white"/>
<path d="M228.5 83.9158H221.268C221.015 83.9155 220.773 83.8152 220.595 83.6368C220.417 83.4584 220.316 83.2165 220.316 82.9642V71.9256C220.316 71.6733 220.417 71.4314 220.595 71.253C220.773 71.0746 221.015 70.9743 221.268 70.974H228.5C228.752 70.9743 228.994 71.0746 229.172 71.253C229.351 71.4314 229.451 71.6733 229.451 71.9256V82.9642C229.451 83.2165 229.351 83.4584 229.172 83.6368C228.994 83.8152 228.752 83.9155 228.5 83.9158V83.9158Z" fill="white"/>
<path d="M214.416 104.09H207.184C206.932 104.09 206.69 103.989 206.511 103.811C206.333 103.632 206.232 103.391 206.232 103.138V92.0996C206.232 91.8473 206.333 91.6055 206.511 91.4271C206.69 91.2487 206.932 91.1483 207.184 91.148H214.416C214.668 91.1483 214.91 91.2487 215.089 91.4271C215.267 91.6055 215.367 91.8473 215.368 92.0996V103.138C215.367 103.391 215.267 103.632 215.089 103.811C214.91 103.989 214.668 104.09 214.416 104.09V104.09Z" fill="white"/>
<path d="M228.5 104.09H221.268C221.015 104.09 220.773 103.989 220.595 103.811C220.417 103.632 220.316 103.391 220.316 103.138V92.0996C220.316 91.8473 220.417 91.6055 220.595 91.4271C220.773 91.2487 221.015 91.1483 221.268 91.148H228.5C228.752 91.1483 228.994 91.2487 229.172 91.4271C229.351 91.6055 229.451 91.8473 229.451 92.0996V103.138C229.451 103.391 229.351 103.632 229.172 103.811C228.994 103.989 228.752 104.09 228.5 104.09V104.09Z" fill="white"/>
<path d="M214.416 124.264H207.184C206.932 124.264 206.69 124.163 206.511 123.985C206.333 123.806 206.232 123.565 206.232 123.312V112.274C206.232 112.021 206.333 111.78 206.511 111.601C206.69 111.423 206.932 111.322 207.184 111.322H214.416C214.668 111.322 214.91 111.423 215.089 111.601C215.267 111.78 215.367 112.021 215.368 112.274V123.312C215.367 123.565 215.267 123.806 215.089 123.985C214.91 124.163 214.668 124.264 214.416 124.264V124.264Z" fill="white"/>
<path d="M228.5 124.264H221.268C221.015 124.264 220.773 124.163 220.595 123.985C220.417 123.806 220.316 123.565 220.316 123.312V112.274C220.316 112.021 220.417 111.78 220.595 111.601C220.773 111.423 221.015 111.322 221.268 111.322H228.5C228.752 111.322 228.994 111.423 229.172 111.601C229.351 111.78 229.451 112.021 229.451 112.274V123.312C229.451 123.565 229.351 123.806 229.172 123.985C228.994 124.163 228.752 124.264 228.5 124.264Z" fill="white"/>
<path d="M214.416 144.438H207.184C206.932 144.438 206.69 144.337 206.511 144.159C206.333 143.981 206.232 143.739 206.232 143.486V132.448C206.232 132.195 206.333 131.954 206.511 131.775C206.69 131.597 206.932 131.496 207.184 131.496H214.416C214.668 131.496 214.91 131.597 215.089 131.775C215.267 131.954 215.367 132.195 215.368 132.448V143.486C215.367 143.739 215.267 143.981 215.089 144.159C214.91 144.337 214.668 144.438 214.416 144.438V144.438Z" fill="white"/>
<path d="M228.5 144.438H221.268C221.015 144.438 220.773 144.337 220.595 144.159C220.417 143.981 220.316 143.739 220.316 143.486V132.448C220.316 132.195 220.417 131.954 220.595 131.775C220.773 131.597 221.015 131.496 221.268 131.496H228.5C228.752 131.496 228.994 131.597 229.172 131.775C229.351 131.954 229.451 132.195 229.451 132.448V143.486C229.451 143.739 229.351 143.981 229.172 144.159C228.994 144.337 228.752 144.438 228.5 144.438Z" fill="white"/>
<path d="M214.416 164.612H207.184C206.932 164.612 206.69 164.511 206.511 164.333C206.333 164.155 206.232 163.913 206.232 163.66V152.622C206.232 152.37 206.333 152.128 206.511 151.949C206.69 151.771 206.932 151.671 207.184 151.67H214.416C214.668 151.671 214.91 151.771 215.089 151.949C215.267 152.128 215.367 152.37 215.368 152.622V163.66C215.367 163.913 215.267 164.155 215.089 164.333C214.91 164.511 214.668 164.612 214.416 164.612Z" fill="white"/>
<path d="M228.5 164.612H221.268C221.015 164.612 220.773 164.511 220.595 164.333C220.417 164.155 220.316 163.913 220.316 163.66V152.622C220.316 152.37 220.417 152.128 220.595 151.949C220.773 151.771 221.015 151.671 221.268 151.67H228.5C228.752 151.671 228.994 151.771 229.172 151.949C229.351 152.128 229.451 152.37 229.451 152.622V163.66C229.451 163.913 229.351 164.155 229.172 164.333C228.994 164.511 228.752 164.612 228.5 164.612Z" fill="white"/>
<path d="M557.39 424.926H552.226C551.841 424.925 551.472 424.772 551.2 424.5C550.927 424.228 550.774 423.859 550.774 423.474V416.696C550.774 416.311 550.927 415.942 551.2 415.67C551.472 415.398 551.841 415.245 552.226 415.244H557.39C557.775 415.245 558.144 415.398 558.416 415.67C558.688 415.942 558.842 416.311 558.842 416.696V423.474C558.842 423.859 558.688 424.228 558.416 424.5C558.144 424.772 557.775 424.925 557.39 424.926V424.926Z" fill="#3F3D56"/>
<path d="M600.958 480.112H574.494C573.767 480.111 573.07 479.822 572.555 479.308C572.041 478.793 571.752 478.096 571.751 477.369V426.055C571.752 425.328 572.041 424.631 572.555 424.117C573.07 423.602 573.767 423.313 574.494 423.312H600.958C601.685 423.313 602.382 423.602 602.896 424.117C603.411 424.631 603.7 425.328 603.701 426.055V477.369C603.7 478.096 603.411 478.793 602.896 479.308C602.382 479.822 601.685 480.111 600.958 480.112V480.112Z" fill="#3F3D56"/>
<path d="M585.144 480.112H539.317C538.59 480.111 537.893 479.822 537.378 479.308C536.864 478.793 536.575 478.096 536.574 477.369V426.055C536.575 425.328 536.864 424.631 537.378 424.117C537.893 423.602 538.59 423.313 539.317 423.312H585.144C585.871 423.313 586.569 423.602 587.083 424.117C587.597 424.631 587.886 425.328 587.887 426.055V477.369C587.886 478.096 587.597 478.793 587.083 479.308C586.569 479.822 585.871 480.111 585.144 480.112V480.112Z" fill="#F50057"/>
<path d="M552.549 424.926H547.385C547 424.925 546.631 424.772 546.359 424.5C546.087 424.228 545.933 423.859 545.933 423.474V416.696C545.933 416.311 546.087 415.942 546.359 415.67C546.631 415.398 547 415.245 547.385 415.244H552.549C552.934 415.245 553.303 415.398 553.575 415.67C553.848 415.942 554.001 416.311 554.001 416.696V423.474C554.001 423.859 553.848 424.228 553.575 424.5C553.303 424.772 552.934 424.925 552.549 424.926V424.926Z" fill="#F50057"/>
<path d="M559.326 448.646H553.194C552.98 448.646 552.775 448.561 552.624 448.41C552.473 448.258 552.388 448.053 552.387 447.839V438.48C552.388 438.266 552.473 438.061 552.624 437.91C552.775 437.759 552.98 437.674 553.194 437.674H559.326C559.54 437.674 559.745 437.759 559.896 437.91C560.047 438.061 560.133 438.266 560.133 438.48V447.839C560.133 448.053 560.047 448.258 559.896 448.41C559.745 448.561 559.54 448.646 559.326 448.646V448.646Z" fill="white"/>
<path d="M571.267 448.646H565.135C564.921 448.646 564.716 448.561 564.565 448.41C564.414 448.258 564.329 448.053 564.328 447.839V438.48C564.329 438.266 564.414 438.061 564.565 437.91C564.716 437.759 564.921 437.674 565.135 437.674H571.267C571.481 437.674 571.686 437.759 571.837 437.91C571.988 438.061 572.073 438.266 572.074 438.48V447.839C572.073 448.053 571.988 448.258 571.837 448.41C571.686 448.561 571.481 448.646 571.267 448.646Z" fill="white"/>
<path d="M559.326 465.751H553.194C552.98 465.75 552.775 465.665 552.624 465.514C552.473 465.363 552.388 465.158 552.387 464.944V455.585C552.388 455.371 552.473 455.166 552.624 455.015C552.775 454.863 552.98 454.778 553.194 454.778H559.326C559.54 454.778 559.745 454.863 559.896 455.015C560.047 455.166 560.133 455.371 560.133 455.585V464.944C560.133 465.158 560.047 465.363 559.896 465.514C559.745 465.665 559.54 465.75 559.326 465.751V465.751Z" fill="white"/>
<path d="M571.267 465.751H565.135C564.921 465.75 564.716 465.665 564.565 465.514C564.414 465.363 564.329 465.158 564.328 464.944V455.585C564.329 455.371 564.414 455.166 564.565 455.015C564.716 454.863 564.921 454.778 565.135 454.778H571.267C571.481 454.778 571.686 454.863 571.837 455.015C571.988 455.166 572.073 455.371 572.074 455.585V464.944C572.073 465.158 571.988 465.363 571.837 465.514C571.686 465.665 571.481 465.75 571.267 465.751V465.751Z" fill="white"/>
</svg>
