<svg width="467" height="475" viewBox="0 0 467 475" fill="none" xmlns="http://www.w3.org/2000/svg">
<path d="M240.277 1.1225L122.652 27.5857C119.5 28.2986 116.76 30.2324 115.033 32.9629C113.305 35.6934 112.731 38.9977 113.437 42.1508L145.691 185.515L283.894 154.423C285.029 154.171 286.068 153.597 286.887 152.771L254.842 10.3375C254.129 7.18603 252.195 4.44595 249.465 2.71841C246.734 0.990874 243.43 0.416944 240.277 1.1225V1.1225Z" fill="#E6E6E6"/>
<path d="M197.55 20.8632L133.088 35.3657C130.218 36.0143 127.723 37.7746 126.149 40.2606C124.576 42.7465 124.052 45.7552 124.694 48.6266L155.019 183.417L277.763 155.802L255.678 57.64C252.834 45.0625 245.116 34.127 234.219 27.2324C223.321 20.3379 210.134 18.0473 197.55 20.8632V20.8632Z" fill="white"/>
<path d="M254.158 148.536L173.237 166.741C172.89 166.819 172.562 166.964 172.271 167.168C171.98 167.372 171.732 167.632 171.542 167.932C171.352 168.233 171.222 168.567 171.162 168.918C171.101 169.268 171.11 169.627 171.188 169.973C171.266 170.32 171.411 170.648 171.616 170.939C171.821 171.229 172.081 171.476 172.382 171.666C172.683 171.856 173.018 171.984 173.368 172.044C173.718 172.104 174.077 172.095 174.424 172.016L255.345 153.811C255.692 153.733 256.021 153.589 256.312 153.384C256.603 153.18 256.851 152.92 257.042 152.62C257.232 152.32 257.362 151.985 257.422 151.634C257.483 151.284 257.474 150.925 257.396 150.578C257.318 150.231 257.173 149.903 256.968 149.612C256.762 149.322 256.502 149.075 256.201 148.885C255.9 148.695 255.565 148.567 255.215 148.507C254.864 148.447 254.505 148.457 254.158 148.536Z" fill="#E4E4E4"/>
<path d="M251.812 138.104L170.89 156.31C170.19 156.467 169.581 156.897 169.197 157.503C168.813 158.11 168.686 158.844 168.844 159.544C169.001 160.244 169.431 160.853 170.037 161.237C170.644 161.621 171.378 161.748 172.078 161.59L253 143.384C253.346 143.306 253.674 143.161 253.965 142.956C254.255 142.751 254.502 142.492 254.692 142.191C254.882 141.891 255.011 141.556 255.072 141.206C255.133 140.856 255.124 140.497 255.046 140.15C254.968 139.804 254.822 139.476 254.617 139.185C254.413 138.895 254.153 138.647 253.852 138.457C253.552 138.267 253.217 138.138 252.867 138.078C252.517 138.017 252.158 138.026 251.811 138.104H251.812Z" fill="#E4E4E4"/>
<path d="M203.623 137.992L168.544 145.884C167.845 146.041 167.237 146.47 166.853 147.076C166.47 147.682 166.343 148.415 166.5 149.115C166.658 149.814 167.086 150.422 167.692 150.806C168.298 151.189 169.032 151.316 169.731 151.159L204.809 143.267C205.156 143.19 205.485 143.045 205.776 142.841C206.067 142.636 206.315 142.377 206.506 142.076C206.696 141.776 206.826 141.441 206.887 141.091C206.947 140.74 206.939 140.381 206.861 140.034C206.783 139.687 206.637 139.359 206.432 139.069C206.227 138.778 205.966 138.531 205.665 138.341C205.365 138.152 205.029 138.023 204.679 137.963C204.328 137.903 203.969 137.913 203.623 137.992V137.992Z" fill="#E4E4E4"/>
<path d="M244.552 105.836L163.63 124.041C163.284 124.119 162.956 124.265 162.665 124.47C162.375 124.674 162.127 124.934 161.937 125.235C161.554 125.841 161.427 126.575 161.584 127.276C161.742 127.976 162.171 128.585 162.777 128.968C163.384 129.352 164.118 129.479 164.818 129.322L245.74 111.116C246.086 111.038 246.414 110.893 246.705 110.688C246.995 110.483 247.243 110.223 247.433 109.923C247.623 109.622 247.752 109.288 247.812 108.937C247.873 108.587 247.864 108.229 247.786 107.882C247.708 107.535 247.562 107.207 247.358 106.917C247.153 106.626 246.893 106.379 246.593 106.189C246.292 105.999 245.957 105.87 245.607 105.809C245.257 105.749 244.898 105.758 244.552 105.836V105.836Z" fill="#E4E4E4"/>
<path d="M242.206 95.4097L161.285 113.615C160.938 113.693 160.609 113.838 160.319 114.042C160.028 114.247 159.78 114.506 159.59 114.806C159.399 115.107 159.27 115.441 159.209 115.792C159.149 116.142 159.157 116.501 159.236 116.847C159.314 117.194 159.459 117.522 159.664 117.813C159.869 118.103 160.129 118.35 160.43 118.54C160.73 118.73 161.065 118.858 161.416 118.918C161.766 118.979 162.125 118.969 162.471 118.89L243.393 100.685C243.74 100.607 244.067 100.462 244.358 100.257C244.648 100.053 244.896 99.7932 245.086 99.4931C245.276 99.193 245.405 98.8584 245.466 98.5084C245.526 98.1584 245.517 97.7998 245.439 97.4533C245.361 97.1067 245.216 96.7789 245.011 96.4886C244.807 96.1983 244.547 95.9512 244.246 95.7614C243.946 95.5716 243.611 95.4429 243.261 95.3826C242.911 95.3222 242.553 95.3314 242.206 95.4097V95.4097Z" fill="#E4E4E4"/>
<path d="M194.016 95.2922L158.938 103.184C158.591 103.262 158.263 103.408 157.973 103.612C157.682 103.817 157.435 104.077 157.245 104.377C157.055 104.678 156.926 105.012 156.865 105.363C156.805 105.713 156.814 106.071 156.892 106.418C156.97 106.765 157.115 107.093 157.32 107.383C157.525 107.674 157.785 107.921 158.085 108.111C158.385 108.301 158.72 108.43 159.07 108.491C159.42 108.551 159.779 108.542 160.126 108.464L195.204 100.572C195.551 100.494 195.879 100.349 196.169 100.144C196.46 99.9394 196.707 99.6795 196.897 99.3792C197.087 99.0789 197.216 98.7441 197.276 98.3939C197.337 98.0437 197.328 97.6851 197.25 97.3383C197.172 96.9916 197.027 96.6637 196.822 96.3732C196.617 96.0827 196.357 95.8354 196.057 95.6454C195.756 95.4554 195.422 95.3265 195.072 95.2658C194.721 95.2052 194.363 95.2142 194.016 95.2922V95.2922Z" fill="#E4E4E4"/>
<path d="M234.945 63.136L154.024 81.3416C153.323 81.4992 152.715 81.9284 152.331 82.5349C151.947 83.1414 151.82 83.8755 151.978 84.5757C152.135 85.276 152.564 85.8849 153.171 86.2686C153.777 86.6524 154.511 86.7794 155.212 86.6219L236.133 68.4162C236.48 68.3382 236.808 68.1927 237.098 67.9879C237.389 67.7832 237.636 67.5232 237.826 67.2229C238.016 66.9226 238.145 66.5878 238.206 66.2376C238.266 65.8875 238.257 65.5288 238.179 65.1821C238.101 64.8354 237.956 64.5074 237.751 64.217C237.546 63.9265 237.286 63.6792 236.986 63.4892C236.686 63.2992 236.351 63.1702 236.001 63.1096C235.651 63.049 235.292 63.058 234.945 63.136V63.136Z" fill="#E6E6E6"/>
<path d="M232.6 52.7099L151.678 70.9156C151.331 70.9936 151.003 71.1391 150.713 71.3439C150.422 71.5486 150.175 71.8086 149.985 72.1089C149.601 72.7154 149.474 73.4495 149.632 74.1497C149.789 74.8499 150.219 75.4589 150.825 75.8426C151.432 76.2263 152.166 76.3534 152.866 76.1959L233.788 57.9902C234.134 57.9122 234.462 57.7667 234.753 57.562C235.043 57.3572 235.29 57.0972 235.48 56.7969C235.67 56.4966 235.799 56.1618 235.86 55.8116C235.921 55.4614 235.912 55.1028 235.834 54.7561C235.756 54.4094 235.61 54.0814 235.405 53.791C235.201 53.5005 234.941 53.2532 234.64 53.0632C234.34 52.8732 234.005 52.7442 233.655 52.6836C233.305 52.623 232.946 52.6319 232.6 52.7099V52.7099Z" fill="#E6E6E6"/>
<path d="M184.409 52.5922L149.331 60.4841C148.631 60.6416 148.022 61.0709 147.638 61.6774C147.255 62.2839 147.128 63.018 147.285 63.7182C147.443 64.4185 147.872 65.0274 148.478 65.4111C149.085 65.7948 149.819 65.9219 150.519 65.7644L185.597 57.8725C185.944 57.7945 186.272 57.649 186.562 57.4442C186.853 57.2395 187.1 56.9795 187.29 56.6792C187.48 56.3789 187.609 56.0441 187.67 55.6939C187.73 55.3438 187.722 54.9851 187.644 54.6384C187.566 54.2917 187.42 53.9637 187.215 53.6733C187.01 53.3828 186.751 53.1355 186.45 52.9455C186.15 52.7555 185.815 52.6265 185.465 52.5659C185.115 52.5053 184.756 52.5142 184.409 52.5922Z" fill="#E6E6E6"/>
<path d="M5.61374 167.463C4.84697 167.464 4.11186 167.769 3.56967 168.311C3.02749 168.853 2.72251 169.588 2.72165 170.355V469.402C2.72249 470.169 3.02746 470.904 3.56964 471.447C4.11182 471.989 4.84692 472.294 5.61374 472.295H380.56C381.326 472.294 382.061 471.989 382.603 471.447C383.146 470.904 383.45 470.169 383.451 469.402V218.359C383.45 217.592 383.146 216.857 382.603 216.314C382.061 215.772 381.326 215.467 380.56 215.466H165.365C163.181 215.468 161.074 214.654 159.458 213.184L111.08 169.226C109.832 168.09 108.204 167.462 106.517 167.463H5.61374Z" fill="#3F3D56"/>
<path d="M453.077 89.2464L252.314 2.93518C246.931 0.628285 240.853 0.550799 235.413 2.71969C229.973 4.88858 225.615 9.12674 223.296 14.5044L118.097 259.199L353.982 360.61C355.916 361.449 358.051 361.713 360.132 361.371L464.647 118.265C466.954 112.882 467.031 106.804 464.862 101.364C462.693 95.9235 458.455 91.5657 453.077 89.2464Z" fill="#E6E6E6"/>
<path d="M369.375 72.7564L259.352 25.4557C254.451 23.3542 248.916 23.2825 243.962 25.2562C239.008 27.2299 235.039 31.0879 232.925 35.9841L134.018 266.044L343.518 356.112L415.547 188.569C424.754 167.085 425.064 142.827 416.408 121.116C407.752 99.4042 390.837 82.0128 369.375 72.7564V72.7564Z" fill="white"/>
<path d="M316.611 320.335L178.494 260.957C177.902 260.701 177.267 260.565 176.622 260.556C175.978 260.546 175.339 260.664 174.74 260.902C174.142 261.14 173.596 261.494 173.134 261.943C172.673 262.392 172.304 262.928 172.05 263.52C171.795 264.112 171.66 264.748 171.652 265.392C171.643 266.036 171.762 266.675 172.001 267.274C172.24 267.872 172.595 268.417 173.045 268.878C173.495 269.339 174.031 269.706 174.623 269.96L312.74 329.339C313.332 329.594 313.967 329.73 314.612 329.74C315.256 329.749 315.895 329.631 316.494 329.393C317.092 329.155 317.638 328.801 318.1 328.352C318.561 327.903 318.93 327.367 319.184 326.775C319.439 326.184 319.574 325.548 319.582 324.903C319.591 324.259 319.472 323.62 319.233 323.022C318.994 322.424 318.639 321.879 318.189 321.418C317.739 320.957 317.203 320.589 316.611 320.335V320.335Z" fill="#E4E4E4"/>
<path d="M324.265 302.531L186.148 243.152C184.953 242.639 183.603 242.622 182.395 243.103C181.187 243.585 180.22 244.527 179.706 245.722C179.193 246.917 179.175 248.267 179.656 249.475C180.137 250.683 181.079 251.651 182.274 252.165L320.391 311.543C320.982 311.798 321.618 311.933 322.263 311.942C322.907 311.95 323.546 311.832 324.144 311.593C324.743 311.355 325.288 311.001 325.75 310.551C326.211 310.102 326.58 309.566 326.834 308.975C327.089 308.383 327.224 307.747 327.232 307.103C327.241 306.458 327.123 305.819 326.884 305.221C326.646 304.622 326.292 304.077 325.842 303.615C325.393 303.154 324.857 302.785 324.265 302.531H324.265Z" fill="#E4E4E4"/>
<path d="M253.67 251.097L193.799 225.357C193.207 225.102 192.572 224.967 191.928 224.958C191.284 224.949 190.645 225.066 190.047 225.305C189.449 225.543 188.903 225.897 188.442 226.346C187.98 226.795 187.612 227.33 187.358 227.922C187.103 228.513 186.968 229.149 186.96 229.793C186.951 230.437 187.07 231.076 187.309 231.674C187.547 232.272 187.901 232.817 188.351 233.278C188.8 233.739 189.336 234.107 189.928 234.36L249.799 260.1C250.391 260.355 251.026 260.491 251.67 260.5C252.314 260.509 252.953 260.391 253.551 260.153C254.15 259.914 254.695 259.561 255.156 259.112C255.618 258.663 255.986 258.127 256.24 257.535C256.495 256.944 256.63 256.308 256.638 255.664C256.647 255.021 256.528 254.381 256.289 253.783C256.051 253.186 255.697 252.64 255.247 252.179C254.798 251.719 254.262 251.351 253.67 251.097V251.097Z" fill="#E4E4E4"/>
<path d="M347.943 247.455L209.826 188.076C208.631 187.564 207.282 187.547 206.075 188.029C204.868 188.512 203.901 189.453 203.388 190.647C202.874 191.842 202.856 193.191 203.337 194.399C203.817 195.606 204.758 196.574 205.952 197.089L344.069 256.467C344.661 256.723 345.297 256.859 345.942 256.869C346.586 256.878 347.227 256.76 347.826 256.522C348.425 256.283 348.971 255.929 349.433 255.48C349.895 255.03 350.264 254.494 350.518 253.901C350.773 253.309 350.909 252.672 350.917 252.028C350.925 251.383 350.806 250.743 350.567 250.144C350.328 249.546 349.973 249 349.523 248.538C349.073 248.077 348.536 247.709 347.943 247.455V247.455Z" fill="#E4E4E4"/>
<path d="M355.594 229.66L217.477 170.281C216.885 170.026 216.249 169.89 215.605 169.88C214.961 169.871 214.322 169.988 213.723 170.227C213.124 170.465 212.579 170.818 212.117 171.268C211.655 171.717 211.287 172.253 211.032 172.844C210.778 173.436 210.643 174.072 210.634 174.716C210.626 175.36 210.745 176 210.984 176.598C211.223 177.196 211.578 177.741 212.027 178.202C212.477 178.663 213.014 179.031 213.606 179.284L351.723 238.663C352.314 238.918 352.95 239.055 353.594 239.064C354.238 239.073 354.878 238.956 355.477 238.718C356.075 238.48 356.621 238.126 357.083 237.677C357.544 237.228 357.913 236.692 358.167 236.1C358.422 235.508 358.557 234.872 358.565 234.228C358.574 233.584 358.455 232.944 358.216 232.346C357.977 231.748 357.622 231.203 357.172 230.742C356.722 230.281 356.186 229.913 355.594 229.66V229.66Z" fill="#E4E4E4"/>
<path d="M285.003 178.217L225.131 152.477C223.936 151.964 222.586 151.946 221.378 152.428C220.17 152.91 219.203 153.852 218.689 155.047C218.176 156.241 218.158 157.591 218.639 158.799C219.12 160.008 220.062 160.975 221.256 161.489L281.128 187.229C281.72 187.484 282.356 187.619 283 187.628C283.644 187.637 284.284 187.519 284.883 187.28C285.481 187.042 286.027 186.688 286.489 186.238C286.95 185.789 287.319 185.253 287.573 184.661C287.828 184.069 287.963 183.433 287.972 182.788C287.98 182.144 287.862 181.505 287.623 180.906C287.384 180.308 287.03 179.762 286.58 179.301C286.131 178.839 285.595 178.471 285.003 178.217V178.217Z" fill="#E4E4E4"/>
<path d="M379.276 174.575L241.159 115.196C239.964 114.685 238.615 114.668 237.408 115.15C236.201 115.632 235.235 116.574 234.721 117.768C234.208 118.962 234.19 120.311 234.67 121.518C235.151 122.726 236.091 123.694 237.284 124.209L375.401 183.587C375.993 183.842 376.629 183.978 377.273 183.986C377.917 183.995 378.557 183.877 379.156 183.638C379.754 183.4 380.3 183.046 380.762 182.597C381.223 182.147 381.592 181.611 381.846 181.019C382.101 180.427 382.236 179.791 382.245 179.147C382.253 178.503 382.135 177.863 381.896 177.264C381.657 176.666 381.303 176.12 380.853 175.659C380.404 175.198 379.868 174.829 379.276 174.575V174.575Z" fill="#FFB563"/>
<path d="M386.926 156.78L248.809 97.401C247.614 96.8889 246.265 96.8721 245.058 97.3542C243.85 97.8362 242.884 98.7778 242.371 99.9721C241.857 101.166 241.839 102.516 242.319 103.723C242.8 104.931 243.741 105.899 244.934 106.413L383.051 165.792C383.644 166.049 384.281 166.186 384.926 166.196C385.571 166.206 386.212 166.089 386.812 165.851C387.412 165.613 387.959 165.258 388.421 164.809C388.884 164.359 389.253 163.822 389.508 163.229C389.763 162.636 389.899 161.999 389.907 161.353C389.915 160.708 389.795 160.068 389.556 159.468C389.316 158.869 388.96 158.323 388.509 157.862C388.058 157.401 387.52 157.033 386.926 156.78V156.78Z" fill="#FFB563"/>
<path d="M316.335 105.336L256.463 79.5966C255.268 79.0834 253.918 79.0658 252.711 79.5477C251.503 80.0296 250.535 80.9715 250.022 82.1663C249.508 83.3611 249.49 84.711 249.971 85.9192C250.453 87.1274 251.394 88.0949 252.589 88.609L312.46 114.349C313.052 114.603 313.688 114.739 314.333 114.748C314.977 114.757 315.616 114.638 316.215 114.4C316.814 114.161 317.359 113.807 317.821 113.358C318.283 112.908 318.651 112.372 318.906 111.781C319.16 111.189 319.295 110.552 319.304 109.908C319.312 109.264 319.194 108.624 318.955 108.026C318.717 107.427 318.362 106.882 317.913 106.42C317.463 105.959 316.927 105.591 316.335 105.336V105.336Z" fill="#FFB563"/>
<path d="M167.277 178.122L49.6518 204.586C46.5003 205.298 43.7603 207.232 42.0327 209.963C40.3052 212.693 39.7313 215.998 40.4368 219.151L72.6909 362.515L210.894 331.423C212.029 331.171 213.068 330.597 213.887 329.771L181.842 187.337C181.129 184.186 179.195 181.446 176.465 179.718C173.734 177.991 170.43 177.417 167.277 178.122Z" fill="#E6E6E6"/>
<path d="M124.55 197.863L60.0883 212.366C57.2185 213.014 54.7231 214.775 53.1494 217.261C51.5757 219.747 51.0523 222.755 51.6938 225.627L82.0188 360.417L204.763 332.802L182.678 234.64C179.834 222.063 172.116 211.127 161.218 204.232C150.321 197.338 137.134 195.047 124.55 197.863V197.863Z" fill="white"/>
<path d="M181.158 325.536L100.237 343.741C99.89 343.819 99.5617 343.964 99.2709 344.168C98.9801 344.372 98.7324 344.632 98.5421 344.932C98.3517 345.232 98.2225 345.567 98.1617 345.917C98.1009 346.268 98.1097 346.626 98.1878 346.973C98.2658 347.32 98.4114 347.648 98.6163 347.938C98.8213 348.229 99.0815 348.476 99.382 348.666C99.6826 348.856 100.018 348.984 100.368 349.044C100.718 349.104 101.077 349.095 101.424 349.016L182.345 330.811C182.692 330.733 183.021 330.589 183.312 330.384C183.603 330.18 183.851 329.92 184.042 329.62C184.232 329.32 184.362 328.985 184.422 328.634C184.483 328.284 184.474 327.925 184.396 327.578C184.318 327.231 184.173 326.903 183.968 326.612C183.762 326.322 183.502 326.075 183.201 325.885C182.9 325.695 182.565 325.567 182.215 325.507C181.864 325.447 181.505 325.457 181.158 325.536V325.536Z" fill="#E4E4E4"/>
<path d="M178.811 315.104L97.89 333.31C97.1898 333.467 96.5809 333.897 96.1971 334.503C95.8134 335.11 95.6863 335.844 95.8439 336.544C96.0014 337.244 96.4306 337.853 97.0372 338.237C97.6437 338.621 98.3778 338.748 99.078 338.59L179.999 320.385C180.7 320.227 181.309 319.798 181.692 319.191C182.076 318.585 182.203 317.851 182.046 317.15C181.888 316.45 181.459 315.841 180.852 315.457C180.246 315.074 179.512 314.947 178.811 315.104V315.104Z" fill="#E4E4E4"/>
<path d="M130.623 314.992L95.5444 322.884C95.198 322.962 94.8704 323.107 94.5803 323.312C94.2901 323.516 94.043 323.776 93.8532 324.076C93.6634 324.376 93.5345 324.71 93.474 325.06C93.4134 325.41 93.4224 325.768 93.5003 326.115C93.5783 326.461 93.7236 326.789 93.9282 327.079C94.1327 327.369 94.3924 327.616 94.6924 327.806C94.9924 327.996 95.3268 328.125 95.6767 328.185C96.0265 328.246 96.3848 328.237 96.7311 328.159L131.809 320.267C132.156 320.19 132.485 320.045 132.776 319.841C133.067 319.636 133.315 319.377 133.506 319.076C133.696 318.776 133.826 318.441 133.887 318.091C133.947 317.74 133.939 317.381 133.861 317.034C133.783 316.687 133.637 316.359 133.432 316.069C133.227 315.778 132.966 315.531 132.665 315.341C132.365 315.152 132.029 315.023 131.679 314.963C131.328 314.903 130.969 314.913 130.623 314.992V314.992Z" fill="#E4E4E4"/>
<path d="M171.552 282.836L90.6303 301.041C90.2836 301.119 89.9557 301.265 89.6652 301.47C89.3747 301.674 89.1274 301.934 88.9374 302.235C88.5537 302.841 88.4266 303.575 88.5842 304.276C88.7417 304.976 89.1709 305.585 89.7775 305.968C90.384 306.352 91.1181 306.479 91.8183 306.322L172.74 288.116C173.44 287.959 174.049 287.529 174.433 286.923C174.816 286.316 174.943 285.582 174.786 284.882C174.628 284.182 174.199 283.573 173.593 283.189C172.986 282.805 172.252 282.678 171.552 282.836V282.836Z" fill="#E4E4E4"/>
<path d="M169.206 272.41L88.2847 290.615C87.9377 290.693 87.6095 290.838 87.3186 291.042C87.0278 291.246 86.7802 291.506 86.5898 291.806C86.3995 292.107 86.2702 292.441 86.2094 292.792C86.1486 293.142 86.1575 293.501 86.2355 293.847C86.3135 294.194 86.4592 294.522 86.6641 294.813C86.869 295.103 87.1292 295.35 87.4298 295.54C87.7304 295.73 88.0654 295.858 88.4157 295.918C88.766 295.979 89.1248 295.969 89.4714 295.89L170.393 277.685C170.74 277.607 171.067 277.462 171.358 277.257C171.648 277.053 171.896 276.793 172.086 276.493C172.276 276.193 172.405 275.858 172.466 275.508C172.526 275.158 172.517 274.8 172.439 274.453C172.361 274.107 172.216 273.779 172.011 273.489C171.807 273.198 171.547 272.951 171.246 272.761C170.946 272.572 170.611 272.443 170.261 272.383C169.911 272.322 169.553 272.331 169.206 272.41V272.41Z" fill="#E4E4E4"/>
<path d="M121.016 272.292L85.9378 280.184C85.2376 280.342 84.6287 280.771 84.2449 281.377C83.8612 281.984 83.7341 282.718 83.8917 283.418C84.0492 284.118 84.4784 284.727 85.085 285.111C85.6915 285.495 86.4256 285.622 87.1258 285.464L122.204 277.572C122.904 277.415 123.513 276.986 123.897 276.379C124.281 275.773 124.408 275.039 124.25 274.338C124.093 273.638 123.663 273.029 123.057 272.645C122.45 272.262 121.716 272.135 121.016 272.292Z" fill="#E4E4E4"/>
<path d="M161.945 240.136L81.0237 258.341C80.677 258.419 80.3491 258.565 80.0586 258.77C79.7681 258.974 79.5208 259.234 79.3308 259.535C78.9471 260.141 78.82 260.875 78.9776 261.576C79.1351 262.276 79.5643 262.885 80.1709 263.269C80.7774 263.652 81.5115 263.779 82.2117 263.622L163.133 245.416C163.48 245.338 163.808 245.193 164.098 244.988C164.389 244.783 164.636 244.523 164.826 244.223C165.016 243.922 165.145 243.588 165.206 243.238C165.266 242.887 165.257 242.529 165.179 242.182C165.101 241.835 164.956 241.507 164.751 241.217C164.546 240.926 164.286 240.679 163.986 240.489C163.686 240.299 163.351 240.17 163.001 240.109C162.651 240.049 162.292 240.058 161.945 240.136H161.945Z" fill="#E6E6E6"/>
<path d="M159.6 229.71L78.6781 247.915C78.3314 247.993 78.0034 248.139 77.7129 248.344C77.4225 248.548 77.1752 248.808 76.9852 249.109C76.6015 249.715 76.4744 250.449 76.6319 251.15C76.7895 251.85 77.2187 252.459 77.8252 252.842C78.4317 253.226 79.1658 253.353 79.8661 253.196L160.788 234.99C161.488 234.833 162.097 234.403 162.48 233.797C162.864 233.19 162.991 232.456 162.834 231.756C162.676 231.056 162.247 230.447 161.64 230.063C161.034 229.679 160.3 229.552 159.6 229.71H159.6Z" fill="#E6E6E6"/>
<path d="M111.409 229.592L76.3312 237.484C75.631 237.642 75.0221 238.071 74.6383 238.677C74.2546 239.284 74.1275 240.018 74.2851 240.718C74.4426 241.418 74.8719 242.027 75.4784 242.411C76.0849 242.795 76.819 242.922 77.5192 242.764L112.597 234.873C112.944 234.795 113.272 234.649 113.562 234.444C113.853 234.239 114.1 233.98 114.29 233.679C114.48 233.379 114.609 233.044 114.67 232.694C114.73 232.344 114.722 231.985 114.644 231.638C114.566 231.292 114.42 230.964 114.215 230.673C114.01 230.383 113.751 230.135 113.45 229.945C113.15 229.755 112.815 229.627 112.465 229.566C112.115 229.505 111.756 229.514 111.409 229.592Z" fill="#E6E6E6"/>
<path d="M3.12939 246.009C2.74965 246.009 2.3736 246.083 2.02274 246.229C1.67187 246.374 1.35304 246.587 1.08447 246.855C0.815904 247.124 0.602842 247.443 0.457458 247.793C0.312075 248.144 0.237216 248.52 0.237152 248.9C0.237152 249.008 0.326172 471.727 0.326172 471.727C0.40537 472.433 0.742293 473.086 1.27252 473.56C1.80275 474.034 2.48906 474.295 3.20016 474.295H405.973C406.684 474.296 407.37 474.034 407.9 473.56C408.431 473.086 408.768 472.433 408.847 471.727L433.917 249.225C433.963 248.82 433.922 248.411 433.799 248.023C433.675 247.635 433.471 247.277 433.2 246.974C432.93 246.668 432.598 246.424 432.226 246.258C431.855 246.092 431.451 246.007 431.044 246.009L3.12939 246.009Z" fill="#3F3D56"/>
<path d="M31.5516 258.339C27.4653 258.351 23.5478 259.97 20.6458 262.847C17.7438 265.724 16.0903 269.627 16.0428 273.713L16.5457 446.32C16.5278 448.369 16.9158 450.4 17.6872 452.297C18.4586 454.195 19.5981 455.92 21.0401 457.375C22.482 458.829 24.1978 459.984 26.0884 460.772C27.979 461.56 30.0069 461.965 32.055 461.965H287.732C317.056 461.984 345.358 451.192 367.223 431.652C389.088 412.112 402.982 385.197 406.245 356.055L415.312 275.585C415.557 273.416 415.341 271.219 414.678 269.139C414.015 267.058 412.92 265.142 411.465 263.514C410.011 261.886 408.229 260.583 406.236 259.691C404.243 258.8 402.084 258.339 399.901 258.339H31.5516ZM423.363 258.339L423.317 257.339H423.363V258.339Z" fill="#FFB563"/>
<path d="M143.235 387.656H44.1883C43.1649 387.656 42.1833 387.249 41.4596 386.526C40.7359 385.802 40.3294 384.82 40.3294 383.797C40.3294 382.774 40.7359 381.792 41.4596 381.068C42.1833 380.345 43.1649 379.938 44.1883 379.938H143.235C148.211 379.869 148.261 387.726 143.235 387.656Z" fill="#E4E4E4"/>
<path d="M276.661 407.842H44.1883C43.1649 407.842 42.1833 407.436 41.4596 406.712C40.7359 405.988 40.3294 405.007 40.3294 403.983C40.3294 402.96 40.7359 401.978 41.4596 401.254C42.1833 400.531 43.1649 400.124 44.1883 400.124H276.661C281.637 400.055 281.687 407.912 276.661 407.842Z" fill="#E4E4E4"/>
</svg>
