<svg width="328" height="328" viewBox="0 0 328 328" fill="none" xmlns="http://www.w3.org/2000/svg">
<path d="M300.757 166C300.916 163.353 301.005 160.687 301.005 158C301.005 122.991 287.098 89.4167 262.343 64.6619C237.589 39.9071 204.014 26 169.005 26V166H300.757Z" fill="#6C63FF"/>
<path d="M159.005 178V38C133.239 37.999 108.035 45.5391 86.5028 59.6907C64.9702 73.8422 48.0503 93.9864 37.8294 117.639C27.6085 141.292 24.5335 167.419 28.9837 192.798C33.4339 218.177 45.2147 241.699 62.8733 260.464C80.5319 279.228 103.296 292.413 128.359 298.394C153.422 304.376 179.687 302.891 203.916 294.123C228.145 285.356 249.278 269.688 264.71 249.054C280.141 228.419 289.196 203.719 290.757 178H159.005Z" fill="#3F3D56"/>
</svg>
