<svg width="741" height="436" viewBox="0 0 741 436" fill="none" xmlns="http://www.w3.org/2000/svg">
<path d="M683.85 5.36232H423.681V0H305.71V5.36232H44.4678C42.1567 5.36232 39.8683 5.81753 37.7331 6.70193C35.598 7.58634 33.6579 8.88264 32.0237 10.5168C30.3896 12.151 29.0933 14.091 28.2089 16.2262C27.3245 18.3613 26.8693 20.6498 26.8693 22.9608V379.213C26.8693 383.88 28.7234 388.357 32.0237 391.657C35.3241 394.957 39.8004 396.812 44.4678 396.812H683.85C686.162 396.812 688.45 396.356 690.585 395.472C692.72 394.588 694.66 393.291 696.295 391.657C697.929 390.023 699.225 388.083 700.109 385.948C700.994 383.813 701.449 381.524 701.449 379.213V22.9608C701.449 20.6498 700.994 18.3613 700.109 16.2262C699.225 14.091 697.929 12.151 696.295 10.5168C694.66 8.88263 692.72 7.58633 690.585 6.70192C688.45 5.81751 686.162 5.36231 683.85 5.36232V5.36232Z" fill="#3F3D56"/>
<path d="M677.855 36.4637H50.4635V390.377H677.855V36.4637Z" fill="#E02578"/>
<path d="M363.623 26.8116C367.177 26.8116 370.058 23.9306 370.058 20.3768C370.058 16.823 367.177 13.942 363.623 13.942C360.069 13.942 357.188 16.823 357.188 20.3768C357.188 23.9306 360.069 26.8116 363.623 26.8116Z" fill="#E02578"/>
<path d="M641.838 81.5068H612.098V51.7669H641.838V81.5068ZM613.391 80.2138H640.545V53.0599H613.391V80.2138Z" fill="#3F3D56"/>
<path d="M719.065 383.942H657.836V379.53C657.836 379.416 657.813 379.302 657.769 379.196C657.725 379.09 657.661 378.993 657.579 378.912C657.498 378.831 657.402 378.766 657.296 378.722C657.189 378.678 657.076 378.656 656.961 378.656H635.968C635.853 378.656 635.739 378.678 635.633 378.722C635.527 378.766 635.431 378.831 635.349 378.912C635.268 378.993 635.204 379.09 635.16 379.196C635.116 379.302 635.093 379.416 635.093 379.53V383.942H621.973V379.53C621.973 379.416 621.95 379.302 621.906 379.196C621.862 379.09 621.798 378.993 621.716 378.912C621.635 378.831 621.539 378.766 621.433 378.722C621.327 378.678 621.213 378.656 621.098 378.656H600.105C599.99 378.656 599.876 378.678 599.77 378.722C599.664 378.766 599.568 378.831 599.487 378.912C599.405 378.993 599.341 379.09 599.297 379.196C599.253 379.302 599.23 379.416 599.23 379.53V383.942H586.11V379.53C586.11 379.416 586.087 379.302 586.043 379.196C585.999 379.09 585.935 378.993 585.854 378.912C585.772 378.831 585.676 378.766 585.57 378.722C585.464 378.678 585.35 378.656 585.235 378.656H564.242C564.127 378.656 564.013 378.678 563.907 378.722C563.801 378.766 563.705 378.831 563.624 378.912C563.542 378.993 563.478 379.09 563.434 379.196C563.39 379.302 563.367 379.416 563.367 379.53V383.942H550.247V379.53C550.247 379.416 550.224 379.302 550.18 379.196C550.136 379.09 550.072 378.993 549.991 378.912C549.909 378.831 549.813 378.766 549.707 378.722C549.601 378.678 549.487 378.656 549.372 378.656H528.379C528.264 378.656 528.151 378.678 528.044 378.722C527.938 378.766 527.842 378.831 527.761 378.912C527.68 378.993 527.615 379.09 527.571 379.196C527.527 379.302 527.505 379.416 527.505 379.53V383.942H514.384V379.53C514.384 379.416 514.361 379.302 514.317 379.196C514.273 379.09 514.209 378.993 514.128 378.912C514.047 378.831 513.95 378.766 513.844 378.722C513.738 378.678 513.624 378.656 513.509 378.656H492.516C492.401 378.656 492.288 378.678 492.182 378.722C492.076 378.766 491.979 378.831 491.898 378.912C491.817 378.993 491.752 379.09 491.708 379.196C491.664 379.302 491.642 379.416 491.642 379.53V383.942H478.521V379.53C478.521 379.416 478.498 379.302 478.455 379.196C478.411 379.09 478.346 378.993 478.265 378.912C478.184 378.831 478.087 378.766 477.981 378.722C477.875 378.678 477.761 378.656 477.646 378.656H456.654C456.539 378.656 456.425 378.678 456.319 378.722C456.213 378.766 456.116 378.831 456.035 378.912C455.954 378.993 455.889 379.09 455.845 379.196C455.801 379.302 455.779 379.416 455.779 379.53V383.942H442.658V379.53C442.658 379.416 442.636 379.302 442.592 379.196C442.548 379.09 442.483 378.993 442.402 378.912C442.321 378.831 442.224 378.766 442.118 378.722C442.012 378.678 441.898 378.656 441.784 378.656H277.339C277.224 378.656 277.11 378.678 277.004 378.722C276.898 378.766 276.802 378.831 276.721 378.912C276.639 378.993 276.575 379.09 276.531 379.196C276.487 379.302 276.464 379.416 276.464 379.53V383.942H263.344V379.53C263.344 379.416 263.321 379.302 263.277 379.196C263.233 379.09 263.169 378.993 263.088 378.912C263.006 378.831 262.91 378.766 262.804 378.722C262.698 378.678 262.584 378.656 262.469 378.656H241.476C241.361 378.656 241.248 378.678 241.141 378.722C241.035 378.766 240.939 378.831 240.858 378.912C240.776 378.993 240.712 379.09 240.668 379.196C240.624 379.302 240.601 379.416 240.601 379.53V383.942H227.481V379.53C227.481 379.416 227.458 379.302 227.414 379.196C227.37 379.09 227.306 378.993 227.225 378.912C227.143 378.831 227.047 378.766 226.941 378.722C226.835 378.678 226.721 378.656 226.606 378.656H205.613C205.498 378.656 205.385 378.678 205.279 378.722C205.172 378.766 205.076 378.831 204.995 378.912C204.914 378.993 204.849 379.09 204.805 379.196C204.761 379.302 204.739 379.416 204.739 379.53V383.942H191.618V379.53C191.618 379.416 191.595 379.302 191.551 379.196C191.507 379.09 191.443 378.993 191.362 378.912C191.281 378.831 191.184 378.766 191.078 378.722C190.972 378.678 190.858 378.656 190.743 378.656H169.75C169.636 378.656 169.522 378.678 169.416 378.722C169.31 378.766 169.213 378.831 169.132 378.912C169.051 378.993 168.986 379.09 168.942 379.196C168.898 379.302 168.876 379.416 168.876 379.53V383.942H155.755V379.53C155.755 379.416 155.733 379.302 155.689 379.196C155.645 379.09 155.58 378.993 155.499 378.912C155.418 378.831 155.321 378.766 155.215 378.722C155.109 378.678 154.995 378.656 154.88 378.656H133.887C133.773 378.656 133.659 378.678 133.553 378.722C133.447 378.766 133.35 378.831 133.269 378.912C133.188 378.993 133.123 379.09 133.079 379.196C133.035 379.302 133.013 379.416 133.013 379.53V383.942H119.892V379.53C119.892 379.416 119.87 379.302 119.826 379.196C119.782 379.09 119.717 378.993 119.636 378.912C119.555 378.831 119.458 378.766 119.352 378.722C119.246 378.678 119.132 378.656 119.018 378.656H98.0246C97.9098 378.656 97.796 378.678 97.6899 378.722C97.5838 378.766 97.4873 378.831 97.4061 378.912C97.3249 378.993 97.2605 379.09 97.2165 379.196C97.1726 379.302 97.1499 379.416 97.1499 379.53V383.942H84.0294V379.53C84.0294 379.416 84.0067 379.302 83.9628 379.196C83.9188 379.09 83.8544 378.993 83.7732 378.912C83.692 378.831 83.5955 378.766 83.4894 378.722C83.3833 378.678 83.2695 378.656 83.1546 378.656H62.1618C62.0469 378.656 61.9331 378.678 61.827 378.722C61.7209 378.766 61.6245 378.831 61.5432 378.912C61.462 378.993 61.3976 379.09 61.3536 379.196C61.3097 379.302 61.287 379.416 61.287 379.53V383.942H21.0506C15.483 383.942 10.1434 386.154 6.20642 390.091C2.26949 394.028 0.0577419 399.367 0.0577393 404.935V414.427C0.0577525 419.995 2.2695 425.335 6.20644 429.272C10.1434 433.209 15.483 435.42 21.0506 435.42H719.065C724.632 435.42 729.972 433.209 733.909 429.272C737.846 425.335 740.058 419.995 740.058 414.427V404.935C740.058 399.367 737.846 394.028 733.909 390.091C729.972 386.154 724.632 383.942 719.065 383.942V383.942Z" fill="#3F3D56"/>
<path d="M639.072 233.671H437.072V118.671H639.072V233.671ZM439.072 231.671H637.072V120.671H439.072V231.671Z" fill="#3F3D56"/>
<path d="M269.072 256.671H89.0716V144.671H269.072V256.671ZM91.0716 254.671H267.072V146.671H91.0716V254.671Z" fill="#3F3D56"/>
<path d="M173.166 213.671L172.993 211.434C172.478 206.791 174.026 201.717 178.325 196.557C182.196 191.999 184.345 188.645 184.345 184.775C184.345 180.389 181.594 177.466 176.176 177.38C173.077 177.367 170.048 178.297 167.49 180.046L165.426 174.628C168.264 172.563 173.166 171.187 177.723 171.187C187.614 171.187 192.085 177.294 192.085 183.829C192.085 189.677 188.817 193.891 184.689 198.793C180.906 203.264 179.53 207.049 179.787 211.434L179.873 213.671L173.166 213.671ZM171.274 225.711C171.227 225.009 171.327 224.305 171.567 223.644C171.806 222.983 172.18 222.379 172.665 221.87C173.15 221.361 173.735 220.958 174.384 220.686C175.032 220.415 175.73 220.281 176.433 220.293C179.444 220.293 181.508 222.528 181.508 225.711C181.536 226.4 181.425 227.089 181.18 227.734C180.936 228.38 180.564 228.969 180.086 229.468C179.608 229.966 179.034 230.362 178.399 230.633C177.764 230.903 177.081 231.043 176.391 231.043C175.7 231.043 175.017 230.903 174.382 230.633C173.747 230.362 173.174 229.966 172.696 229.468C172.218 228.969 171.845 228.38 171.601 227.734C171.357 227.089 171.245 226.4 171.274 225.711V225.711Z" fill="#D0CDE1"/>
<path d="M532.166 188.671L531.993 186.434C531.478 181.791 533.026 176.717 537.325 171.557C541.196 166.999 543.345 163.645 543.345 159.775C543.345 155.389 540.594 152.466 535.176 152.38C532.077 152.367 529.048 153.297 526.49 155.046L524.426 149.628C527.264 147.563 532.166 146.187 536.723 146.187C546.614 146.187 551.085 152.294 551.085 158.829C551.085 164.677 547.817 168.891 543.689 173.793C539.906 178.264 538.53 182.049 538.787 186.434L538.873 188.671L532.166 188.671ZM530.274 200.711C530.227 200.009 530.327 199.305 530.567 198.644C530.806 197.983 531.18 197.379 531.665 196.87C532.15 196.361 532.735 195.958 533.384 195.686C534.032 195.415 534.73 195.281 535.433 195.293C538.444 195.293 540.508 197.528 540.508 200.711C540.536 201.4 540.425 202.089 540.18 202.734C539.936 203.38 539.564 203.969 539.086 204.468C538.608 204.966 538.034 205.362 537.399 205.633C536.764 205.903 536.081 206.043 535.391 206.043C534.7 206.043 534.017 205.903 533.382 205.633C532.747 205.362 532.174 204.966 531.696 204.468C531.218 203.969 530.845 203.38 530.601 202.734C530.357 202.089 530.245 201.4 530.274 200.711V200.711Z" fill="#D0CDE1"/>
<path d="M367.693 347.141C415.351 347.141 453.985 308.507 453.985 260.849C453.985 213.191 415.351 174.557 367.693 174.557C320.035 174.557 281.401 213.191 281.401 260.849C281.401 308.507 320.035 347.141 367.693 347.141Z" fill="#2F2E41"/>
<path d="M334.365 379.018L308.568 374.348L316.935 320.484L342.731 325.154L334.365 379.018Z" fill="#2F2E41"/>
<path d="M394.324 334.493L368.527 329.823L360.161 376.042L385.957 380.711L394.324 334.493Z" fill="#2F2E41"/>
<path d="M403.199 383.229C404.094 378.794 395.232 373.263 383.405 370.876C371.579 368.488 361.266 370.148 360.37 374.583C359.475 379.018 368.337 384.549 380.163 386.936C391.99 389.324 402.303 387.664 403.199 383.229Z" fill="#2F2E41"/>
<path d="M349.47 381.836C350.064 377.351 340.85 372.43 328.889 370.846C316.928 369.261 306.75 371.613 306.156 376.098C305.562 380.583 314.776 385.504 326.737 387.088C338.698 388.673 348.876 386.321 349.47 381.836Z" fill="#2F2E41"/>
<path d="M373.734 269.233C390.023 269.233 403.227 256.029 403.227 239.741C403.227 223.453 390.023 210.249 373.734 210.249C357.446 210.249 344.242 223.453 344.242 239.741C344.242 256.029 357.446 269.233 373.734 269.233Z" fill="white"/>
<path d="M385.856 239.001C391.285 239.001 395.686 234.599 395.686 229.17C395.686 223.74 391.285 219.339 385.856 219.339C380.426 219.339 376.025 223.74 376.025 229.17C376.025 234.599 380.426 239.001 385.856 239.001Z" fill="#3F3D56"/>
<path d="M299.621 166.972C298.323 135.025 325.856 107.966 361.118 106.534C396.38 105.102 426.018 129.838 427.315 161.785C428.613 193.732 404.101 200.99 368.84 202.423C333.578 203.855 300.918 198.919 299.621 166.972Z" fill="white"/>
<path d="M450.398 258.33C473.625 253.006 491.099 242.78 489.428 235.488C487.756 228.196 467.572 226.601 444.346 231.925C421.119 237.249 403.645 247.476 405.317 254.768C406.988 262.059 427.172 263.654 450.398 258.33Z" fill="#2F2E41"/>
<path d="M281.01 286.499C304.236 281.175 321.71 270.948 320.039 263.657C318.368 256.365 298.184 254.77 274.957 260.094C251.731 265.418 234.257 275.645 235.928 282.937C237.599 290.228 257.783 291.823 281.01 286.499Z" fill="#2F2E41"/>
<path d="M343.993 294.855C343.533 297.396 343.578 300.003 344.125 302.526C344.673 305.049 345.712 307.44 347.183 309.562C348.654 311.683 350.529 313.495 352.7 314.892C354.872 316.289 357.297 317.245 359.838 317.705C362.378 318.165 364.985 318.12 367.508 317.572C370.031 317.025 372.422 315.986 374.544 314.515C376.666 313.043 378.477 311.169 379.874 308.997C381.271 306.826 382.227 304.401 382.687 301.86C384.621 291.175 376.36 287.394 365.675 285.46C354.99 283.525 345.927 284.17 343.993 294.855Z" fill="white"/>
<path d="M181.422 13.1223H39.5348V148.09H181.422V13.1223Z" fill="#D0CDE1"/>
<path d="M165.298 29.2458H55.6583V113.088H165.298V29.2458Z" fill="white"/>
<path d="M115.186 122.979H55.5497V126.118H115.186V122.979Z" fill="#F2F2F2"/>
<path d="M115.186 132.396H55.5497V135.535H115.186V132.396Z" fill="#F2F2F2"/>
<path d="M75.167 83.7447C82.101 83.7447 87.7221 78.1236 87.7221 71.1896C87.7221 64.2556 82.101 58.6345 75.167 58.6345C68.233 58.6345 62.6119 64.2556 62.6119 71.1896C62.6119 78.1236 68.233 83.7447 75.167 83.7447Z" fill="#3F3D56"/>
<path d="M110.478 83.7447C117.412 83.7447 123.033 78.1236 123.033 71.1896C123.033 64.2556 117.412 58.6345 110.478 58.6345C103.544 58.6345 97.9232 64.2556 97.9232 71.1896C97.9232 78.1236 103.544 83.7447 110.478 83.7447Z" fill="#E02578"/>
<path d="M145.789 83.7447C152.723 83.7447 158.345 78.1236 158.345 71.1896C158.345 64.2556 152.723 58.6345 145.789 58.6345C138.855 58.6345 133.234 64.2556 133.234 71.1896C133.234 78.1236 138.855 83.7447 145.789 83.7447Z" fill="#E6E6E6"/>
<path d="M110.478 27.2467C113.945 27.2467 116.756 24.4362 116.756 20.9692C116.756 17.5022 113.945 14.6917 110.478 14.6917C107.011 14.6917 104.201 17.5022 104.201 20.9692C104.201 24.4362 107.011 27.2467 110.478 27.2467Z" fill="#3F3D56"/>
<path d="M248.909 274.459H107.022V409.426H248.909V274.459Z" fill="#D0CDE1"/>
<path d="M232.786 290.582H123.146V374.425H232.786V290.582Z" fill="white"/>
<path d="M185.709 304.361H147.272V342.798H185.709V304.361Z" fill="#E02578"/>
<path d="M161.986 313.973V360.646H208.66V313.973H161.986ZM206.635 358.622H164.01V315.997H206.635V358.622Z" fill="#3F3D56"/>
<path d="M182.674 382.747H123.037V385.885H182.674V382.747Z" fill="#F2F2F2"/>
<path d="M177.966 288.583C181.433 288.583 184.243 285.773 184.243 282.306C184.243 278.839 181.433 276.028 177.966 276.028C174.499 276.028 171.688 278.839 171.688 282.306C171.688 285.773 174.499 288.583 177.966 288.583Z" fill="#3F3D56"/>
<path d="M618.323 234.053H476.437V369.02H618.323V234.053Z" fill="#D0CDE1"/>
<path d="M602.2 250.176H492.56V334.019H602.2V250.176Z" fill="white"/>
<path d="M559.173 315.812H535.587V322.802H559.173V315.812Z" fill="#3F3D56"/>
<path d="M587.688 261.393H507.072V264.388H587.688V261.393Z" fill="#3F3D56"/>
<path d="M587.688 270.879H507.072V273.874H587.688V270.879Z" fill="#3F3D56"/>
<path d="M587.688 280.365H507.072V283.36H587.688V280.365Z" fill="#3F3D56"/>
<path d="M587.688 289.851H507.072V292.846H587.688V289.851Z" fill="#3F3D56"/>
<path d="M587.688 299.337H507.072V302.332H587.688V299.337Z" fill="#3F3D56"/>
<path d="M552.088 342.341H492.451V345.479H552.088V342.341Z" fill="#F2F2F2"/>
<path d="M575.629 350.188H492.451V353.326H575.629V350.188Z" fill="#F2F2F2"/>
<path d="M547.38 248.177C550.847 248.177 553.658 245.367 553.658 241.9C553.658 238.433 550.847 235.622 547.38 235.622C543.913 235.622 541.102 238.433 541.102 241.9C541.102 245.367 543.913 248.177 547.38 248.177Z" fill="#3F3D56"/>
</svg>
