<svg width="646" height="360" viewBox="0 0 646 360" fill="none" xmlns="http://www.w3.org/2000/svg">
<path d="M374.91 348.767C370.107 348.763 365.503 346.151 362.108 341.507C358.713 336.863 356.806 330.566 356.806 324C356.806 317.434 358.713 311.137 362.108 306.493C365.503 301.849 370.107 299.237 374.91 299.233H644C642.647 295.836 640.649 293 638.217 291.024C635.785 289.047 633.008 288.003 630.179 288H95.2995C88.3212 288.011 81.6314 291.808 76.7 298.559C71.7686 305.309 68.9991 314.46 69 324C69.0035 333.539 71.7745 342.686 76.7049 349.435C81.6353 356.184 88.3225 359.983 95.2995 360H630.179C633.008 359.997 635.785 358.953 638.217 356.976C640.649 354.999 642.646 352.164 644 348.767L374.91 348.767Z" fill="#CCCCCC"/>
<path d="M644.524 313H388.476C388.085 312.998 387.709 312.734 387.432 312.266C387.155 311.797 387 311.162 387 310.5C387 309.838 387.155 309.203 387.432 308.734C387.709 308.266 388.085 308.002 388.476 308H644.524C644.915 308.002 645.291 308.266 645.568 308.734C645.845 309.203 646 309.838 646 310.5C646 311.162 645.845 311.797 645.568 312.266C645.291 312.734 644.915 312.998 644.524 313Z" fill="#CCCCCC"/>
<path d="M644.52 326H388.48C388.087 326 387.711 325.789 387.433 325.414C387.156 325.039 387 324.53 387 324C387 323.47 387.156 322.961 387.433 322.586C387.711 322.211 388.087 322 388.48 322H644.52C644.913 322 645.289 322.211 645.567 322.586C645.844 322.961 646 323.47 646 324C646 324.53 645.844 325.039 645.567 325.414C645.289 325.789 644.913 326 644.52 326V326Z" fill="#CCCCCC"/>
<path d="M644.524 339H388.476C388.085 338.999 387.709 338.787 387.432 338.413C387.155 338.038 387 337.53 387 337C387 336.47 387.155 335.962 387.432 335.588C387.709 335.213 388.085 335.001 388.476 335H644.524C644.915 335.001 645.291 335.213 645.568 335.588C645.845 335.962 646 336.47 646 337C646 337.53 645.845 338.038 645.568 338.413C645.291 338.787 644.915 338.999 644.524 339Z" fill="#CCCCCC"/>
<path d="M305.91 277.767C301.108 277.763 296.503 275.151 293.108 270.507C289.713 265.863 287.807 259.566 287.807 253C287.807 246.434 289.713 240.137 293.108 235.493C296.503 230.849 301.108 228.238 305.91 228.233H575C573.647 224.836 571.649 222.001 569.217 220.024C566.785 218.047 564.009 217.003 561.179 217H26.3C19.3216 217.011 12.6318 220.809 7.70038 227.559C2.76896 234.309 -0.000681131 243.46 1.25648e-07 253C0.00362539 262.539 2.77464 271.686 7.70513 278.435C12.6356 285.184 19.323 288.983 26.3 289H561.179C564.009 288.997 566.785 287.953 569.217 285.976C571.649 283.999 573.647 281.164 575 277.767L305.91 277.767Z" fill="#F7F339"/>
<path d="M374.91 134.611C370.108 134.607 365.503 131.959 362.108 127.25C358.713 122.541 356.807 116.157 356.807 109.5C356.807 102.843 358.713 96.4587 362.108 91.7499C365.503 87.0412 370.108 84.3936 374.91 84.389H644C642.647 80.9452 640.649 78.0701 638.217 76.0661C635.785 74.062 633.009 73.0029 630.179 73H95.3C88.3216 73.0109 81.6318 76.8614 76.7004 83.7054C71.769 90.5494 68.9993 99.827 69 109.5C69.0036 119.171 71.7746 128.445 76.7051 135.288C81.6356 142.131 88.323 145.983 95.3 146H630.179C633.009 145.997 635.785 144.938 638.217 142.934C640.649 140.93 642.647 138.055 644 134.611L374.91 134.611Z" fill="#F7F339"/>
<path d="M574.526 242H319.471C319.08 241.998 318.706 241.734 318.431 241.266C318.155 240.797 318 240.162 318 239.5C318 238.838 318.155 238.203 318.431 237.734C318.706 237.266 319.08 237.002 319.471 237H574.526C574.917 237 575.292 237.263 575.568 237.732C575.845 238.201 576 238.837 576 239.5C576 240.163 575.845 240.799 575.568 241.268C575.292 241.737 574.917 242 574.526 242V242Z" fill="#CCCCCC"/>
<path d="M574.526 255H319.474C319.083 255 318.708 254.789 318.432 254.414C318.155 254.039 318 253.53 318 253C318 252.47 318.155 251.961 318.432 251.586C318.708 251.211 319.083 251 319.474 251H574.526C574.917 251 575.292 251.211 575.568 251.586C575.845 251.961 576 252.47 576 253C576 253.53 575.845 254.039 575.568 254.414C575.292 254.789 574.917 255 574.526 255V255Z" fill="#CCCCCC"/>
<path d="M574.522 269H319.471C319.08 268.998 318.706 268.734 318.431 268.266C318.155 267.797 318 267.162 318 266.5C318 265.838 318.155 265.203 318.431 264.734C318.706 264.266 319.08 264.002 319.471 264H574.522C574.716 263.999 574.908 264.063 575.087 264.189C575.267 264.314 575.43 264.498 575.567 264.73C575.704 264.962 575.813 265.238 575.887 265.542C575.962 265.846 576 266.171 576 266.5C576 266.829 575.962 267.154 575.887 267.458C575.813 267.762 575.704 268.038 575.567 268.27C575.43 268.502 575.267 268.686 575.087 268.811C574.908 268.937 574.716 269.001 574.522 269V269Z" fill="#CCCCCC"/>
<path d="M342.91 205.611C338.108 205.607 333.503 202.959 330.108 198.25C326.713 193.541 324.806 187.157 324.806 180.5C324.806 173.843 326.713 167.459 330.108 162.75C333.503 158.041 338.108 155.394 342.91 155.389H612C610.647 151.945 608.649 149.07 606.217 147.066C603.785 145.062 601.009 144.003 598.179 144H63.2995C56.3212 144.011 49.6314 147.861 44.7 154.705C39.7687 161.549 36.9991 170.827 37 180.5C37.0035 190.171 39.7745 199.445 44.7049 206.288C49.6353 213.131 56.3225 216.983 63.2995 217H598.179C601.009 216.997 603.785 215.938 606.217 213.934C608.649 211.93 610.647 209.055 612 205.611L342.91 205.611Z" fill="#CCCCCC"/>
<path d="M342.91 61.6112C338.108 61.6066 333.503 58.959 330.108 54.2502C326.713 49.5415 324.806 43.157 324.806 36.5001C324.806 29.8432 326.713 23.4587 330.108 18.75C333.503 14.0412 338.108 11.3936 342.91 11.389H612C610.647 7.9452 608.649 5.07024 606.217 3.06619C603.785 1.06214 601.009 0.00298541 598.179 0H63.2995C56.3212 0.0108542 49.6314 3.86133 44.7 10.7054C39.7687 17.5494 36.9991 26.8271 37 36.5C37.0035 46.171 39.7745 55.4452 44.7049 62.2879C49.6353 69.1306 56.3225 72.983 63.2995 73H598.179C601.009 72.9971 603.785 71.9379 606.217 69.9339C608.649 67.9299 610.647 65.055 612 61.6111L342.91 61.6112Z" fill="#CCCCCC"/>
<path d="M582.52 168H326.477C326.085 167.999 325.709 167.787 325.432 167.413C325.155 167.038 325 166.53 325 166C325 165.47 325.155 164.962 325.432 164.587C325.709 164.213 326.085 164.001 326.477 164H582.52C582.912 164 583.289 164.211 583.566 164.586C583.844 164.961 584 165.47 584 166C584 166.53 583.844 167.039 583.566 167.414C583.289 167.789 582.912 168 582.52 168Z" fill="#CCCCCC"/>
<path d="M621.52 98H365.477C365.085 97.9987 364.709 97.7875 364.432 97.4126C364.155 97.0376 364 96.5296 364 96C364 95.4704 364.155 94.9624 364.432 94.5875C364.709 94.2125 365.085 94.0013 365.477 94H621.52C621.912 94 622.289 94.2107 622.566 94.5858C622.844 94.9609 623 95.4696 623 96C623 96.5304 622.844 97.0392 622.566 97.4142C622.289 97.7893 621.912 98 621.52 98Z" fill="#CCCCCC"/>
<path d="M582.52 24H326.477C326.085 23.9987 325.709 23.7875 325.432 23.4126C325.155 23.0376 325 22.5296 325 22C325 21.4704 325.155 20.9624 325.432 20.5875C325.709 20.2125 326.085 20.0013 326.477 20H582.52C582.912 20 583.289 20.2107 583.566 20.5858C583.844 20.9609 584 21.4696 584 22C584 22.5304 583.844 23.0392 583.566 23.4142C583.289 23.7893 582.912 24 582.52 24Z" fill="#CCCCCC"/>
<path d="M582.52 182H326.48C326.286 182 326.093 181.935 325.914 181.81C325.734 181.684 325.571 181.5 325.433 181.268C325.296 181.036 325.187 180.76 325.113 180.457C325.038 180.153 325 179.828 325 179.5C325 179.172 325.038 178.847 325.113 178.543C325.187 178.24 325.296 177.964 325.433 177.732C325.571 177.5 325.734 177.316 325.914 177.19C326.093 177.065 326.286 177 326.48 177H582.52C582.714 177 582.907 177.065 583.086 177.19C583.266 177.316 583.429 177.5 583.567 177.732C583.704 177.964 583.813 178.24 583.887 178.543C583.962 178.847 584 179.172 584 179.5C584 179.828 583.962 180.153 583.887 180.457C583.813 180.76 583.704 181.036 583.567 181.268C583.429 181.5 583.266 181.684 583.086 181.81C582.907 181.935 582.714 182 582.52 182V182Z" fill="#CCCCCC"/>
<path d="M621.52 112H365.48C365.286 112 365.093 111.935 364.914 111.81C364.734 111.684 364.571 111.5 364.433 111.268C364.296 111.036 364.187 110.76 364.113 110.457C364.038 110.153 364 109.828 364 109.5C364 109.172 364.038 108.847 364.113 108.543C364.187 108.24 364.296 107.964 364.433 107.732C364.571 107.5 364.734 107.316 364.914 107.19C365.093 107.065 365.286 107 365.48 107H621.52C621.714 107 621.907 107.065 622.086 107.19C622.266 107.316 622.429 107.5 622.567 107.732C622.704 107.964 622.813 108.24 622.887 108.543C622.962 108.847 623 109.172 623 109.5C623 109.828 622.962 110.153 622.887 110.457C622.813 110.76 622.704 111.036 622.567 111.268C622.429 111.5 622.266 111.684 622.086 111.81C621.907 111.935 621.714 112 621.52 112V112Z" fill="#CCCCCC"/>
<path d="M582.52 38H326.48C326.286 38 326.093 37.9354 325.914 37.8098C325.734 37.6841 325.571 37.4999 325.433 37.2678C325.296 37.0357 325.187 36.76 325.113 36.4567C325.038 36.1534 325 35.8283 325 35.5C325 35.1717 325.038 34.8466 325.113 34.5433C325.187 34.24 325.296 33.9644 325.433 33.7323C325.571 33.5001 325.734 33.316 325.914 33.1903C326.093 33.0647 326.286 33 326.48 33H582.52C582.714 33 582.907 33.0647 583.086 33.1903C583.266 33.316 583.429 33.5001 583.567 33.7323C583.704 33.9644 583.813 34.24 583.887 34.5433C583.962 34.8466 584 35.1717 584 35.5C584 35.8283 583.962 36.1534 583.887 36.4567C583.813 36.76 583.704 37.0357 583.567 37.2678C583.429 37.4999 583.266 37.6841 583.086 37.8098C582.907 37.9354 582.714 38 582.52 38V38Z" fill="#CCCCCC"/>
<path d="M582.52 195H326.48C326.088 195 325.711 194.789 325.433 194.414C325.156 194.039 325 193.53 325 193C325 192.47 325.156 191.961 325.433 191.586C325.711 191.211 326.088 191 326.48 191H582.52C582.714 191 582.907 191.052 583.086 191.152C583.266 191.253 583.429 191.4 583.567 191.586C583.704 191.771 583.813 191.992 583.887 192.235C583.962 192.477 584 192.737 584 193C584 193.263 583.962 193.523 583.887 193.765C583.813 194.008 583.704 194.228 583.567 194.414C583.429 194.6 583.266 194.747 583.086 194.848C582.907 194.948 582.714 195 582.52 195V195Z" fill="#CCCCCC"/>
<path d="M621.52 125H365.48C365.088 125 364.711 124.842 364.433 124.561C364.156 124.279 364 123.898 364 123.5C364 123.102 364.156 122.721 364.433 122.439C364.711 122.158 365.088 122 365.48 122H621.52C621.714 122 621.907 122.039 622.086 122.114C622.266 122.19 622.429 122.3 622.567 122.439C622.704 122.579 622.813 122.744 622.887 122.926C622.962 123.108 623 123.303 623 123.5C623 123.697 622.962 123.892 622.887 124.074C622.813 124.256 622.704 124.421 622.567 124.561C622.429 124.7 622.266 124.81 622.086 124.886C621.907 124.961 621.714 125 621.52 125V125Z" fill="#CCCCCC"/>
<path d="M582.52 51H326.48C326.088 51 325.711 50.7892 325.433 50.4142C325.156 50.0391 325 49.5304 325 49C325 48.4695 325.156 47.9608 325.433 47.5858C325.711 47.2107 326.088 47 326.48 47H582.52C582.714 47 582.907 47.0517 583.086 47.1522C583.266 47.2527 583.429 47.4 583.567 47.5858C583.704 47.7715 583.813 47.992 583.887 48.2346C583.962 48.4773 584 48.7373 584 49C584 49.2626 583.962 49.5227 583.887 49.7654C583.813 50.008 583.704 50.2285 583.567 50.4142C583.429 50.5999 583.266 50.7472 583.086 50.8477C582.907 50.9483 582.714 51 582.52 51V51Z" fill="#CCCCCC"/>
</svg>
