<svg width="490" height="281" viewBox="0 0 490 281" fill="none" xmlns="http://www.w3.org/2000/svg">
<path d="M382.03 171.916V172.568C380.628 170.925 379.197 169.296 377.781 167.667C377.186 166.987 376.591 166.308 375.996 165.628C373.475 162.766 370.939 159.915 368.39 157.073C365.826 154.24 363.262 151.407 360.67 148.588C360.047 147.908 359.424 147.229 358.787 146.549C358.277 145.977 357.722 145.447 357.129 144.962C356.531 144.464 355.844 144.085 355.104 143.843C354.252 143.607 353.354 143.597 352.498 143.815C351.52 144.042 350.586 144.396 349.637 144.693C348.659 145.019 347.696 145.33 346.719 145.642C344.764 146.28 342.824 146.917 340.869 147.554C340.845 147.564 340.82 147.569 340.795 147.569C340.769 147.568 340.744 147.563 340.721 147.553C340.697 147.543 340.676 147.529 340.658 147.511C340.64 147.493 340.626 147.471 340.617 147.448L340.614 147.441C340.603 147.414 340.598 147.385 340.599 147.356C340.6 147.327 340.608 147.299 340.622 147.273C340.635 147.247 340.654 147.225 340.677 147.207C340.701 147.19 340.727 147.178 340.756 147.172C341.237 147.016 341.733 146.86 342.229 146.704C344.198 146.053 346.152 145.416 348.121 144.778C349.098 144.452 350.076 144.141 351.053 143.829C351.96 143.485 352.917 143.293 353.886 143.263C355.468 143.376 356.952 144.073 358.05 145.217C358.659 145.784 359.212 146.379 359.764 146.988C360.415 147.696 361.067 148.404 361.719 149.112C364.339 151.974 366.94 154.844 369.523 157.724C372.115 160.614 374.684 163.508 377.228 166.407C377.412 166.619 377.596 166.832 377.781 167.044C379.211 168.659 380.614 170.288 382.03 171.916Z" fill="white"/>
<path d="M356.91 147.572C356.374 146.882 355.661 146.352 354.847 146.039L354.042 146.067C360.363 155.904 368.645 164.332 378.371 170.825C371.217 163.074 364.063 155.323 356.91 147.572Z" fill="white"/>
<path d="M488.839 249.802L456.752 77.9924C456.203 75.1602 454.708 72.5985 452.512 70.7274C450.316 68.8563 447.549 67.7868 444.666 67.6943C444.407 67.6886 444.147 67.6886 443.888 67.6943L422.029 68.4784L419.676 68.5649L408.767 68.957L406.414 69.0378L399.397 69.2915L257.899 74.3713C257.686 74.3828 257.467 74.3828 257.254 74.377L225.546 73.714L213.813 73.4718L213.438 73.4661L204.777 73.2815L129.312 71.7132L109.304 71.2922L99.438 71.0904L97.0741 71.0385L85.8246 70.8078L83.4663 70.756L71.9573 70.5195L69.599 70.4677L56.9541 70.2024L54.9706 70.1621L43.6923 69.9257L41.9107 69.8911H41.6512C38.657 69.9033 35.7636 70.9736 33.4824 72.913C31.2011 74.8524 29.679 77.5358 29.1851 80.489L0.164782 258.774C-0.129917 260.58 -0.0284557 262.428 0.462115 264.191C0.952686 265.954 1.82062 267.589 3.00585 268.984C4.19107 270.378 5.66523 271.498 7.32619 272.266C8.98715 273.034 10.7952 273.431 12.6251 273.431H179.286C181.739 273.438 184.126 274.225 186.101 275.68L189.261 278.021C191.439 279.624 194.07 280.492 196.774 280.5C228.962 272.005 262.804 272.005 294.992 280.5C296.652 280.504 298.296 280.179 299.829 279.544C301.362 278.909 302.754 277.975 303.924 276.798C305.924 274.798 308.594 273.609 311.419 273.46L477.088 264.73C478.885 264.636 480.641 264.16 482.238 263.332C483.835 262.504 485.237 261.345 486.35 259.931C487.462 258.518 488.26 256.883 488.69 255.136C489.119 253.389 489.17 251.57 488.839 249.802V249.802Z" fill="#CCCCCC"/>
<path d="M443.439 223.01C443.226 228.832 440.71 234.332 436.444 238.3C432.178 242.267 426.511 244.379 420.689 244.17C411.069 243.83 399.589 243.66 387.129 243.92C346.439 244.79 295.319 250.39 264.569 270.53C260.704 273.067 256.137 274.32 251.519 274.11C251.179 274.09 250.849 274.07 250.509 274.04C245.721 273.602 241.209 271.603 237.669 268.35C220.729 252.85 181.879 234.08 92.9489 232.76C92.5789 232.76 92.2189 232.74 91.8589 232.72C88.9786 232.539 86.1622 231.792 83.5707 230.521C80.9793 229.251 78.6636 227.482 76.7561 225.317C74.8485 223.151 73.3864 220.631 72.4535 217.899C71.5206 215.168 71.135 212.28 71.3189 209.4L80.0589 70.69L81.3689 49.9L83.6689 13.53C83.9009 9.86728 85.5185 6.43023 88.1931 3.91716C90.8678 1.40409 94.3989 0.00351982 98.0689 0H98.1589L151.139 0.309998C173.459 1.32 191.946 4.16333 206.599 8.84C211.604 10.3921 216.474 12.3521 221.159 14.7C227.558 17.8024 233.307 22.0956 238.099 27.3501C241.084 30.7067 245.155 32.9052 249.599 33.56C250.288 33.663 250.983 33.7264 251.679 33.75C255.777 33.9196 259.821 32.7623 263.209 30.45C297.819 7.26004 368.349 5.50005 407.299 6.50005C412.746 6.62709 417.951 8.77727 421.9 12.5318C425.848 16.2863 428.258 21.3762 428.659 26.81L430.239 47.5001L431.809 68.13L440.869 187.36L443.389 220.53C443.451 221.355 443.467 222.183 443.439 223.01V223.01Z" fill="#F2F2F2"/>
<path d="M106.129 48.8098C138.056 38.6235 173.675 41.3203 203.922 55.6707C212.552 59.744 220.703 64.764 228.223 70.6383C230.351 72.3081 233.378 69.3213 231.228 67.6337C203.447 46.086 168.541 35.8499 133.523 38.9819C123.835 39.8488 114.271 41.7703 105 44.7124C102.404 45.5404 103.514 49.6444 106.129 48.8098H106.129Z" fill="#3F3D56"/>
<path d="M281.813 72.2867C311.497 56.6845 347.043 53.2822 379.317 62.1386C388.518 64.6575 397.41 68.193 405.829 72.6798C408.241 73.9668 410.39 70.3 407.974 69.0108C377.214 52.5975 340.29 48.8192 306.7 57.9686C297.329 60.5255 288.265 64.0962 279.669 68.6176C277.247 69.8904 279.392 73.5592 281.813 72.2867Z" fill="#3F3D56"/>
<path d="M281.813 100.615C311.497 85.0127 347.043 81.6104 379.317 90.4669C388.518 92.9857 397.41 96.5213 405.829 101.008C408.241 102.295 410.39 98.6282 407.974 97.339C377.214 80.9257 340.29 77.1474 306.7 86.2968C297.329 88.8537 288.265 92.4245 279.669 96.9458C277.247 98.2186 279.392 101.887 281.813 100.615L281.813 100.615Z" fill="#3F3D56"/>
<path d="M409.013 127.423C409.036 127.059 408.948 126.696 408.761 126.382C408.574 126.068 408.298 125.817 407.966 125.662C383.325 112.759 355.385 107.526 327.744 110.636C327.571 110.65 327.412 110.677 327.224 110.691H327.217C327.047 110.706 326.878 110.732 326.711 110.768C310.271 112.659 294.322 117.575 279.669 125.267C279.35 125.457 279.085 125.727 278.902 126.051C278.718 126.374 278.622 126.74 278.622 127.112V179.957C278.628 180.282 278.707 180.602 278.854 180.892C279.001 181.182 279.212 181.435 279.471 181.632C279.73 181.828 280.031 181.963 280.35 182.026C280.669 182.089 280.998 182.079 281.313 181.996C281.965 181.809 282.616 181.628 283.282 181.455C298.095 177.445 313.302 175.067 328.632 174.361C328.958 174.347 329.284 174.334 329.624 174.32C342.11 173.783 354.618 174.233 367.034 175.665C367.294 175.68 367.553 175.707 367.81 175.748C368.448 175.817 369.1 175.894 369.738 175.977C369.995 176.005 370.237 176.032 370.473 176.074C372.955 176.386 375.417 176.74 377.886 177.121C381.45 177.69 385.014 178.323 388.578 179.021C388.8 179.063 389.029 179.118 389.258 179.16C394.978 180.297 400.671 181.614 406.337 183.071C406.652 183.152 406.982 183.161 407.301 183.096C407.621 183.031 407.921 182.895 408.18 182.698C408.439 182.5 408.65 182.246 408.797 181.955C408.944 181.664 409.022 181.344 409.027 181.018V127.507C409.029 127.478 409.025 127.45 409.013 127.423V127.423Z" fill="#3F3D56"/>
<path d="M331.076 113.517C329.519 112.755 327.735 112.598 326.069 113.077C325.333 113.353 324.659 113.773 324.087 114.311C323.514 114.849 323.054 115.496 322.734 116.214C322.157 117.59 321.787 119.043 321.636 120.528C321.548 121.112 321.543 121.848 322.13 122.121C322.343 122.198 322.573 122.216 322.795 122.172C323.017 122.128 323.223 122.024 323.391 121.871C323.694 121.573 323.944 121.224 324.129 120.841C325.149 119.256 326.551 117.953 328.207 117.052C329.863 116.152 331.719 115.684 333.603 115.69L335.172 116.316C333.938 115.204 332.56 114.263 331.076 113.517V113.517Z" fill="#FF6582"/>
<path d="M348.054 125.697C346.837 123.905 345.394 121.992 343.135 121.406C340.519 120.729 337.831 122.075 335.551 123.404C328.772 127.352 322.207 131.657 315.885 136.301L315.892 136.371L330.567 135.47C334.102 135.253 337.757 135.006 340.881 133.518C342.002 132.815 343.256 132.348 344.564 132.146C345.376 132.19 346.171 132.395 346.903 132.748C347.636 133.1 348.291 133.595 348.831 134.202C355.594 140.613 357.552 150.416 365.139 156.048C360.311 145.467 354.596 135.314 348.054 125.697V125.697Z" fill="white"/>
<path d="M329.626 174.319C329.286 174.333 328.96 174.347 328.634 174.361C326.269 173.511 323.847 172.761 321.397 172.109C319.81 171.684 318.196 171.302 316.581 170.976C314.754 170.58 312.912 170.268 311.071 169.999C307.565 169.489 304.032 169.191 300.49 169.106C300.464 169.109 300.436 169.107 300.411 169.098C300.385 169.09 300.361 169.076 300.341 169.058C300.321 169.04 300.305 169.018 300.294 168.994C300.283 168.969 300.277 168.942 300.277 168.915C300.277 168.888 300.283 168.861 300.294 168.837C300.305 168.812 300.321 168.79 300.341 168.772C300.361 168.754 300.385 168.74 300.411 168.732C300.436 168.724 300.464 168.721 300.49 168.724C300.943 168.724 301.397 168.738 301.836 168.767C305.385 168.898 308.923 169.243 312.431 169.8C314.258 170.098 316.085 170.452 317.898 170.849C319.541 171.217 321.184 171.628 322.799 172.081C325.107 172.732 327.383 173.478 329.626 174.319Z" fill="white"/>
<path d="M370.475 176.075C370.235 176.032 369.994 176.004 369.739 175.976C368.761 175.169 367.77 174.404 366.736 173.653C365.447 172.718 364.116 171.84 362.756 171.019C359.745 169.191 356.601 167.59 353.351 166.231C348.213 164.091 342.894 162.413 337.459 161.217C331.258 159.859 324.982 158.875 318.663 158.271C312.346 157.619 306 157.223 299.655 156.826C299.386 156.812 299.371 156.415 299.655 156.429C300.448 156.486 301.241 156.529 302.048 156.585C308.465 156.982 314.881 157.435 321.255 158.158C327.575 158.835 333.844 159.923 340.022 161.415C345.297 162.715 350.445 164.483 355.405 166.698C358.257 167.98 361.021 169.452 363.676 171.103C365.362 172.166 366.991 173.299 368.549 174.503C369.201 175.013 369.852 175.523 370.475 176.075Z" fill="white"/>
<path d="M367.813 175.749C367.554 175.708 367.294 175.679 367.033 175.664C366.736 175.423 366.424 175.197 366.113 174.97C363.932 173.409 361.657 171.986 359.3 170.707C357.159 169.543 354.961 168.489 352.713 167.548C347.578 165.402 342.259 163.724 336.821 162.534C330.621 161.176 324.344 160.192 318.025 159.588C311.708 158.936 305.363 158.54 299.017 158.143C298.748 158.115 298.748 157.733 299.017 157.747C299.825 157.803 300.618 157.846 301.411 157.903C307.827 158.299 314.244 158.752 320.618 159.475C326.937 160.152 333.207 161.24 339.385 162.733C344.66 164.03 349.808 165.798 354.767 168.016C356.637 168.866 358.464 169.786 360.249 170.792C362.895 172.245 365.424 173.902 367.813 175.749Z" fill="white"/>
<path d="M389.257 179.163C389.03 179.12 388.804 179.064 388.577 179.021C388.322 178.752 388.081 178.469 387.84 178.185C386.623 176.783 385.419 175.367 384.229 173.936C379.54 168.356 375.093 162.605 370.9 156.741C367.303 151.727 363.889 146.614 360.66 141.401C359.116 138.937 357.628 136.444 356.17 133.923C355.036 131.968 353.932 130.009 352.855 128.045C352.544 127.478 352.246 126.911 351.949 126.345C351.254 125.013 350.56 123.668 349.824 122.351C349.023 120.737 347.848 119.338 346.396 118.271C345.671 117.785 344.831 117.497 343.96 117.436C342.732 117.44 341.524 117.752 340.447 118.342C332.523 122.032 325.048 126.618 318.167 132.01C311.447 137.237 305.371 143.242 300.065 149.9C299.896 150.098 299.527 149.914 299.683 149.701C300.32 148.908 300.972 148.115 301.623 147.336C306.723 141.304 312.465 135.847 318.748 131.061C318.762 131.047 318.79 131.033 318.805 131.019C319.357 130.58 319.909 130.155 320.476 129.744C323.984 127.161 327.635 124.778 331.411 122.606C333.337 121.487 335.306 120.424 337.317 119.419C337.813 119.164 338.323 118.909 338.832 118.668C339.342 118.413 339.853 118.172 340.362 117.931C341.372 117.417 342.475 117.113 343.606 117.039C347.544 116.982 349.569 120.948 350.971 123.625C351.41 124.461 351.864 125.297 352.303 126.132C354.003 129.291 355.773 132.436 357.614 135.537C358.733 137.464 359.895 139.376 361.07 141.274C362.756 143.979 364.484 146.656 366.283 149.319C366.283 149.321 366.283 149.323 366.284 149.325C366.284 149.326 366.285 149.328 366.287 149.329C366.288 149.33 366.289 149.332 366.291 149.332C366.293 149.333 366.294 149.333 366.296 149.333H366.297C368.379 152.478 370.546 155.565 372.784 158.639C376.623 163.894 380.645 169.031 384.852 174.05C386.297 175.778 387.765 177.482 389.257 179.163Z" fill="white"/>
<path d="M338.724 116.607L338.332 116.779C337.434 115.263 336.176 113.993 334.67 113.081C333.163 112.169 331.454 111.643 329.696 111.55C323.897 111.138 318.803 115.003 318.34 120.164C318.152 122.289 318.767 124.408 320.064 126.102L319.7 126.317C318.349 124.553 317.709 122.347 317.905 120.133C318.386 114.758 323.692 110.734 329.73 111.163C331.562 111.259 333.341 111.807 334.91 112.757C336.479 113.706 337.789 115.029 338.724 116.607V116.607Z" fill="#FF6582"/>
<path d="M310.07 127.05C308.548 126.388 306.89 126.098 305.234 126.203C303.578 126.309 301.97 126.807 300.545 127.656C305.75 128.455 310.909 129.527 316.001 130.867C313.893 129.768 312.243 128.044 310.07 127.05Z" fill="white"/>
<path d="M300.516 127.652L299.942 128.066C300.136 127.921 300.338 127.785 300.545 127.656L300.516 127.652Z" fill="white"/>
<path d="M317.775 130.056C317.546 129.83 317.319 129.603 317.089 129.376C315.326 127.458 313.203 125.904 310.841 124.804C309.638 124.298 308.348 124.031 307.043 124.02C305.694 124.052 304.361 124.311 303.099 124.786C302.505 124.997 301.925 125.237 301.353 125.492C300.7 125.785 300.058 126.097 299.419 126.412C298.22 127.002 297.036 127.619 295.868 128.261C293.544 129.54 291.293 130.916 289.115 132.389C287.986 133.154 286.88 133.943 285.797 134.757C284.79 135.514 283.803 136.29 282.837 137.087C282.63 137.257 282.322 136.982 282.529 136.813C282.783 136.602 283.041 136.392 283.298 136.185C284.026 135.599 284.765 135.025 285.516 134.462C286.885 133.433 288.29 132.445 289.73 131.496C291.97 130.019 294.286 128.643 296.68 127.366C297.876 126.729 299.089 126.118 300.318 125.535C300.689 125.359 301.065 125.186 301.445 125.023C302.312 124.634 303.207 124.31 304.122 124.053C305.435 123.677 306.808 123.557 308.166 123.699C309.467 123.865 310.729 124.254 311.897 124.848C314.213 126.146 316.302 127.812 318.083 129.781C318.269 129.967 317.962 130.243 317.775 130.056Z" fill="white"/>
<path d="M106.129 77.1381C138.056 66.9518 173.675 69.6486 203.922 83.9989C212.552 88.0722 220.703 93.0922 228.223 98.9665C230.351 100.636 233.378 97.6495 231.228 95.9619C203.447 74.4142 168.541 64.1781 133.523 67.3101C123.835 68.177 114.271 70.0986 105 73.0406C102.404 73.8686 103.514 77.9726 106.129 77.138L106.129 77.1381Z" fill="#3F3D56"/>
<path d="M106.129 105.466C138.056 95.28 173.675 97.9768 203.922 112.327C212.552 116.4 220.703 121.42 228.223 127.295C230.351 128.965 233.378 125.978 231.228 124.29C203.447 102.742 168.541 92.5063 133.523 95.6383C123.835 96.5053 114.271 98.4268 105 101.369C102.404 102.197 103.514 106.301 106.129 105.466L106.129 105.466Z" fill="#3F3D56"/>
<path d="M106.129 133.794C138.056 123.608 173.675 126.305 203.922 140.655C212.552 144.729 220.703 149.749 228.223 155.623C230.351 157.293 233.378 154.306 231.228 152.618C203.447 131.071 168.541 120.835 133.523 123.967C123.835 124.833 114.271 126.755 105 129.697C102.404 130.525 103.514 134.629 106.129 133.794L106.129 133.794Z" fill="#3F3D56"/>
<path d="M106.129 162.123C138.056 151.936 173.675 154.633 203.922 168.984C212.552 173.057 220.703 178.077 228.223 183.951C230.351 185.621 233.378 182.634 231.228 180.947C203.447 159.399 168.541 149.163 133.523 152.295C123.835 153.162 114.271 155.083 105 158.025C102.404 158.853 103.514 162.957 106.129 162.123L106.129 162.123Z" fill="#3F3D56"/>
<path d="M106.129 190.451C138.056 180.265 173.675 182.961 203.922 197.312C212.552 201.385 220.703 206.405 228.223 212.279C230.351 213.949 233.378 210.962 231.228 209.275C203.447 187.727 168.541 177.491 133.523 180.623C123.835 181.49 114.271 183.411 105 186.354C102.404 187.182 103.514 191.285 106.129 190.451H106.129Z" fill="#3F3D56"/>
<path d="M221.159 14.7V82.63C221.159 83.98 218.799 85.11 215.619 85.42C215.592 85.4184 215.565 85.4218 215.539 85.43C215.009 85.47 214.449 85.5 213.879 85.5C212.126 85.5322 210.381 85.2476 208.729 84.66C208.579 84.6 208.429 84.53 208.279 84.47C208.139 84.39 207.989 84.32 207.849 84.24C207.059 83.77 206.599 83.22 206.599 82.63V8.84C211.604 10.3921 216.474 12.352 221.159 14.7V14.7Z" fill="#007FF5"/>
<path d="M251.677 30.4554H249.597V272.69H251.677V30.4554Z" fill="#E6E6E6"/>
</svg>
